<?xml version="1.0" encoding="utf-8" standalone="no"?>
<!DOCTYPE svg PUBLIC "-//W3C//DTD SVG 1.1//EN"
  "http://www.w3.org/Graphics/SVG/1.1/DTD/svg11.dtd">
<svg xmlns:xlink="http://www.w3.org/1999/xlink" width="460.8pt" height="345.6pt" viewBox="0 0 460.8 345.6" xmlns="http://www.w3.org/2000/svg" version="1.1">
 <metadata>
  <rdf:RDF xmlns:dc="http://purl.org/dc/elements/1.1/" xmlns:cc="http://creativecommons.org/ns#" xmlns:rdf="http://www.w3.org/1999/02/22-rdf-syntax-ns#">
   <cc:Work>
    <dc:type rdf:resource="http://purl.org/dc/dcmitype/StillImage"/>
    <dc:date>2022-10-04T12:15:58.355020</dc:date>
    <dc:format>image/svg+xml</dc:format>
    <dc:creator>
     <cc:Agent>
      <dc:title>Matplotlib v3.5.3, https://matplotlib.org/</dc:title>
     </cc:Agent>
    </dc:creator>
   </cc:Work>
  </rdf:RDF>
 </metadata>
 <defs>
  <style type="text/css">*{stroke-linejoin: round; stroke-linecap: butt}</style>
 </defs>
 <g id="figure_1">
  <g id="patch_1">
   <path d="M 0 345.6 
L 460.8 345.6 
L 460.8 0 
L 0 0 
z
" style="fill: #ffffff"/>
  </g>
  <g id="axes_1">
   <g id="patch_2">
    <path d="M 57.6 307.584 
L 414.72 307.584 
L 414.72 41.472 
L 57.6 41.472 
z
" style="fill: #ffffff"/>
   </g>
   <g id="patch_3">
    <path d="M 136.849092 307.584 
L 136.849092 299.664 
L 139.184891 299.664 
L 139.184891 307.584 
L 141.52069 307.584 
L 141.52069 303.624 
L 143.856489 303.624 
L 143.856489 295.704 
L 146.192289 295.704 
L 146.192289 299.664 
L 148.528088 299.664 
L 148.528088 287.784 
L 150.863887 287.784 
L 150.863887 279.864 
L 153.199686 279.864 
L 153.199686 279.864 
L 155.535485 279.864 
L 155.535485 271.944 
L 157.871284 271.944 
L 157.871284 244.224 
L 160.207083 244.224 
L 160.207083 228.384 
L 162.542882 228.384 
L 162.542882 200.664 
L 164.878681 200.664 
L 164.878681 172.944 
L 167.214481 172.944 
L 167.214481 184.824 
L 169.55028 184.824 
L 169.55028 157.104 
L 171.886079 157.104 
L 171.886079 141.264 
L 174.221878 141.264 
L 174.221878 85.824 
L 176.557677 85.824 
L 176.557677 54.144 
L 178.893476 54.144 
L 178.893476 66.024 
L 181.229275 66.024 
L 181.229275 81.864 
L 183.565074 81.864 
L 183.565074 101.664 
L 185.900874 101.664 
L 185.900874 73.944 
L 188.236673 73.944 
L 188.236673 101.664 
L 190.572472 101.664 
L 190.572472 129.384 
L 192.908271 129.384 
L 192.908271 105.624 
L 195.24407 105.624 
L 195.24407 105.624 
L 197.579869 105.624 
L 197.579869 149.184 
L 199.915668 149.184 
L 199.915668 180.864 
L 202.251467 180.864 
L 202.251467 204.624 
L 204.587266 204.624 
L 204.587266 212.544 
L 206.923066 212.544 
L 206.923066 208.584 
L 209.258865 208.584 
L 209.258865 248.184 
L 211.594664 248.184 
L 211.594664 264.024 
L 213.930463 264.024 
L 213.930463 275.904 
L 216.266262 275.904 
L 216.266262 264.024 
L 218.602061 264.024 
L 218.602061 291.744 
L 220.93786 291.744 
L 220.93786 279.864 
L 223.273659 279.864 
L 223.273659 295.704 
L 225.609459 295.704 
L 225.609459 307.584 
L 227.945258 307.584 
L 227.945258 299.664 
L 230.281057 299.664 
L 230.281057 307.584 
L 227.945258 307.584 
L 227.945258 307.584 
L 225.609459 307.584 
L 225.609459 307.584 
L 223.273659 307.584 
L 223.273659 307.584 
L 220.93786 307.584 
L 220.93786 307.584 
L 218.602061 307.584 
L 218.602061 307.584 
L 216.266262 307.584 
L 216.266262 307.584 
L 213.930463 307.584 
L 213.930463 307.584 
L 211.594664 307.584 
L 211.594664 307.584 
L 209.258865 307.584 
L 209.258865 307.584 
L 206.923066 307.584 
L 206.923066 307.584 
L 204.587266 307.584 
L 204.587266 307.584 
L 202.251467 307.584 
L 202.251467 307.584 
L 199.915668 307.584 
L 199.915668 307.584 
L 197.579869 307.584 
L 197.579869 307.584 
L 195.24407 307.584 
L 195.24407 307.584 
L 192.908271 307.584 
L 192.908271 307.584 
L 190.572472 307.584 
L 190.572472 307.584 
L 188.236673 307.584 
L 188.236673 307.584 
L 185.900874 307.584 
L 185.900874 307.584 
L 183.565074 307.584 
L 183.565074 307.584 
L 181.229275 307.584 
L 181.229275 307.584 
L 178.893476 307.584 
L 178.893476 307.584 
L 176.557677 307.584 
L 176.557677 307.584 
L 174.221878 307.584 
L 174.221878 307.584 
L 171.886079 307.584 
L 171.886079 307.584 
L 169.55028 307.584 
L 169.55028 307.584 
L 167.214481 307.584 
L 167.214481 307.584 
L 164.878681 307.584 
L 164.878681 307.584 
L 162.542882 307.584 
L 162.542882 307.584 
L 160.207083 307.584 
L 160.207083 307.584 
L 157.871284 307.584 
L 157.871284 307.584 
L 155.535485 307.584 
L 155.535485 307.584 
L 153.199686 307.584 
L 153.199686 307.584 
L 150.863887 307.584 
L 150.863887 307.584 
L 148.528088 307.584 
L 148.528088 307.584 
L 146.192289 307.584 
L 146.192289 307.584 
L 143.856489 307.584 
L 143.856489 307.584 
L 141.52069 307.584 
L 141.52069 307.584 
L 139.184891 307.584 
L 139.184891 307.584 
z
" clip-path="url(#p44f690183e)" style="fill: #1f77b4; opacity: 0.3"/>
   </g>
   <g id="patch_4">
    <path d="M 73.832727 307.584 
L 73.832727 302.260201 
L 77.307601 302.260201 
L 77.307601 304.9221 
L 80.782475 304.9221 
L 80.782475 304.9221 
L 84.257348 304.9221 
L 84.257348 304.9221 
L 87.732222 304.9221 
L 87.732222 302.260201 
L 91.207095 302.260201 
L 91.207095 288.950703 
L 94.681969 288.950703 
L 94.681969 294.274502 
L 98.156843 294.274502 
L 98.156843 283.626904 
L 101.631716 283.626904 
L 101.631716 264.993607 
L 105.10659 264.993607 
L 105.10659 286.288804 
L 108.581463 286.288804 
L 108.581463 267.655507 
L 112.056337 267.655507 
L 112.056337 238.374612 
L 115.531211 238.374612 
L 115.531211 249.02221 
L 119.006084 249.02221 
L 119.006084 230.388913 
L 122.480958 230.388913 
L 122.480958 195.784219 
L 125.955832 195.784219 
L 125.955832 169.165224 
L 129.430705 169.165224 
L 129.430705 179.812822 
L 132.905579 179.812822 
L 132.905579 131.89863 
L 136.380452 131.89863 
L 136.380452 99.955836 
L 139.855326 99.955836 
L 139.855326 137.222429 
L 143.3302 137.222429 
L 143.3302 107.941534 
L 146.805073 107.941534 
L 146.805073 147.870027 
L 150.279947 147.870027 
L 150.279947 169.165224 
L 153.754821 169.165224 
L 153.754821 139.884329 
L 157.229694 139.884329 
L 157.229694 161.179525 
L 160.704568 161.179525 
L 160.704568 158.517626 
L 164.179441 158.517626 
L 164.179441 235.712712 
L 167.654315 235.712712 
L 167.654315 230.388913 
L 171.129189 230.388913 
L 171.129189 235.712712 
L 174.604062 235.712712 
L 174.604062 259.669808 
L 178.078936 259.669808 
L 178.078936 267.655507 
L 181.55381 267.655507 
L 181.55381 291.612603 
L 185.028683 291.612603 
L 185.028683 280.965005 
L 188.503557 280.965005 
L 188.503557 296.936402 
L 191.97843 296.936402 
L 191.97843 304.9221 
L 195.453304 304.9221 
L 195.453304 302.260201 
L 198.928178 302.260201 
L 198.928178 304.9221 
L 202.403051 304.9221 
L 202.403051 302.260201 
L 205.877925 302.260201 
L 205.877925 304.9221 
L 209.352799 304.9221 
L 209.352799 302.260201 
L 212.827672 302.260201 
L 212.827672 307.584 
L 209.352799 307.584 
L 209.352799 307.584 
L 205.877925 307.584 
L 205.877925 307.584 
L 202.403051 307.584 
L 202.403051 307.584 
L 198.928178 307.584 
L 198.928178 307.584 
L 195.453304 307.584 
L 195.453304 307.584 
L 191.97843 307.584 
L 191.97843 307.584 
L 188.503557 307.584 
L 188.503557 307.584 
L 185.028683 307.584 
L 185.028683 307.584 
L 181.55381 307.584 
L 181.55381 307.584 
L 178.078936 307.584 
L 178.078936 307.584 
L 174.604062 307.584 
L 174.604062 307.584 
L 171.129189 307.584 
L 171.129189 307.584 
L 167.654315 307.584 
L 167.654315 307.584 
L 164.179441 307.584 
L 164.179441 307.584 
L 160.704568 307.584 
L 160.704568 307.584 
L 157.229694 307.584 
L 157.229694 307.584 
L 153.754821 307.584 
L 153.754821 307.584 
L 150.279947 307.584 
L 150.279947 307.584 
L 146.805073 307.584 
L 146.805073 307.584 
L 143.3302 307.584 
L 143.3302 307.584 
L 139.855326 307.584 
L 139.855326 307.584 
L 136.380452 307.584 
L 136.380452 307.584 
L 132.905579 307.584 
L 132.905579 307.584 
L 129.430705 307.584 
L 129.430705 307.584 
L 125.955832 307.584 
L 125.955832 307.584 
L 122.480958 307.584 
L 122.480958 307.584 
L 119.006084 307.584 
L 119.006084 307.584 
L 115.531211 307.584 
L 115.531211 307.584 
L 112.056337 307.584 
L 112.056337 307.584 
L 108.581463 307.584 
L 108.581463 307.584 
L 105.10659 307.584 
L 105.10659 307.584 
L 101.631716 307.584 
L 101.631716 307.584 
L 98.156843 307.584 
L 98.156843 307.584 
L 94.681969 307.584 
L 94.681969 307.584 
L 91.207095 307.584 
L 91.207095 307.584 
L 87.732222 307.584 
L 87.732222 307.584 
L 84.257348 307.584 
L 84.257348 307.584 
L 80.782475 307.584 
L 80.782475 307.584 
L 77.307601 307.584 
L 77.307601 307.584 
z
" clip-path="url(#p44f690183e)" style="fill: #ff7f0e; opacity: 0.3"/>
   </g>
   <g id="patch_5">
    <path d="M 122.190509 307.584 
L 122.190509 304.905789 
L 129.097928 304.905789 
L 129.097928 304.905789 
L 136.005347 304.905789 
L 136.005347 304.905789 
L 142.912766 304.905789 
L 142.912766 303.566683 
L 149.820185 303.566683 
L 149.820185 300.888471 
L 156.727604 300.888471 
L 156.727604 295.532048 
L 163.635023 295.532048 
L 163.635023 295.532048 
L 170.542442 295.532048 
L 170.542442 283.480097 
L 177.449862 283.480097 
L 177.449862 276.784568 
L 184.357281 276.784568 
L 184.357281 278.123674 
L 191.2647 278.123674 
L 191.2647 276.784568 
L 198.172119 276.784568 
L 198.172119 256.697982 
L 205.079538 256.697982 
L 205.079538 258.037088 
L 211.986957 258.037088 
L 211.986957 245.985136 
L 218.894376 245.985136 
L 218.894376 229.915868 
L 225.801795 229.915868 
L 225.801795 197.77733 
L 232.709214 197.77733 
L 232.709214 223.220339 
L 239.616633 223.220339 
L 239.616633 239.289608 
L 246.524053 239.289608 
L 246.524053 216.52481 
L 253.431472 216.52481 
L 253.431472 220.542127 
L 260.338891 220.542127 
L 260.338891 221.881233 
L 267.24631 221.881233 
L 267.24631 233.933185 
L 274.153729 233.933185 
L 274.153729 228.576762 
L 281.061148 228.576762 
L 281.061148 240.628713 
L 287.968567 240.628713 
L 287.968567 256.697982 
L 294.875986 256.697982 
L 294.875986 275.445462 
L 301.783405 275.445462 
L 301.783405 267.410828 
L 308.690824 267.410828 
L 308.690824 283.480097 
L 315.598244 283.480097 
L 315.598244 292.853837 
L 322.505663 292.853837 
L 322.505663 300.888471 
L 329.413082 300.888471 
L 329.413082 299.549366 
L 336.320501 299.549366 
L 336.320501 300.888471 
L 343.22792 300.888471 
L 343.22792 304.905789 
L 350.135339 304.905789 
L 350.135339 303.566683 
L 357.042758 303.566683 
L 357.042758 304.905789 
L 363.950177 304.905789 
L 363.950177 307.584 
L 370.857596 307.584 
L 370.857596 307.584 
L 377.765015 307.584 
L 377.765015 306.244894 
L 384.672435 306.244894 
L 384.672435 307.584 
L 391.579854 307.584 
L 391.579854 306.244894 
L 398.487273 306.244894 
L 398.487273 307.584 
L 391.579854 307.584 
L 391.579854 307.584 
L 384.672435 307.584 
L 384.672435 307.584 
L 377.765015 307.584 
L 377.765015 307.584 
L 370.857596 307.584 
L 370.857596 307.584 
L 363.950177 307.584 
L 363.950177 307.584 
L 357.042758 307.584 
L 357.042758 307.584 
L 350.135339 307.584 
L 350.135339 307.584 
L 343.22792 307.584 
L 343.22792 307.584 
L 336.320501 307.584 
L 336.320501 307.584 
L 329.413082 307.584 
L 329.413082 307.584 
L 322.505663 307.584 
L 322.505663 307.584 
L 315.598244 307.584 
L 315.598244 307.584 
L 308.690824 307.584 
L 308.690824 307.584 
L 301.783405 307.584 
L 301.783405 307.584 
L 294.875986 307.584 
L 294.875986 307.584 
L 287.968567 307.584 
L 287.968567 307.584 
L 281.061148 307.584 
L 281.061148 307.584 
L 274.153729 307.584 
L 274.153729 307.584 
L 267.24631 307.584 
L 267.24631 307.584 
L 260.338891 307.584 
L 260.338891 307.584 
L 253.431472 307.584 
L 253.431472 307.584 
L 246.524053 307.584 
L 246.524053 307.584 
L 239.616633 307.584 
L 239.616633 307.584 
L 232.709214 307.584 
L 232.709214 307.584 
L 225.801795 307.584 
L 225.801795 307.584 
L 218.894376 307.584 
L 218.894376 307.584 
L 211.986957 307.584 
L 211.986957 307.584 
L 205.079538 307.584 
L 205.079538 307.584 
L 198.172119 307.584 
L 198.172119 307.584 
L 191.2647 307.584 
L 191.2647 307.584 
L 184.357281 307.584 
L 184.357281 307.584 
L 177.449862 307.584 
L 177.449862 307.584 
L 170.542442 307.584 
L 170.542442 307.584 
L 163.635023 307.584 
L 163.635023 307.584 
L 156.727604 307.584 
L 156.727604 307.584 
L 149.820185 307.584 
L 149.820185 307.584 
L 142.912766 307.584 
L 142.912766 307.584 
L 136.005347 307.584 
L 136.005347 307.584 
L 129.097928 307.584 
L 129.097928 307.584 
z
" clip-path="url(#p44f690183e)" style="fill: #2ca02c; opacity: 0.3"/>
   </g>
   <g id="matplotlib.axis_1">
    <g id="xtick_1">
     <g id="line2d_1">
      <defs>
       <path id="m3d9d3d1284" d="M 0 0 
L 0 3.5 
" style="stroke: #000000; stroke-width: 0.8"/>
      </defs>
      <g>
       <use xlink:href="#m3d9d3d1284" x="60.828257" y="307.584" style="stroke: #000000; stroke-width: 0.8"/>
      </g>
     </g>
     <g id="text_1">
      <!-- −6 -->
      <g transform="translate(53.457164 322.182437)scale(0.1 -0.1)">
       <defs>
        <path id="DejaVuSans-2212" d="M 678 2272 
L 4684 2272 
L 4684 1741 
L 678 1741 
L 678 2272 
z
" transform="scale(0.015625)"/>
        <path id="DejaVuSans-36" d="M 2113 2584 
Q 1688 2584 1439 2293 
Q 1191 2003 1191 1497 
Q 1191 994 1439 701 
Q 1688 409 2113 409 
Q 2538 409 2786 701 
Q 3034 994 3034 1497 
Q 3034 2003 2786 2293 
Q 2538 2584 2113 2584 
z
M 3366 4563 
L 3366 3988 
Q 3128 4100 2886 4159 
Q 2644 4219 2406 4219 
Q 1781 4219 1451 3797 
Q 1122 3375 1075 2522 
Q 1259 2794 1537 2939 
Q 1816 3084 2150 3084 
Q 2853 3084 3261 2657 
Q 3669 2231 3669 1497 
Q 3669 778 3244 343 
Q 2819 -91 2113 -91 
Q 1303 -91 875 529 
Q 447 1150 447 2328 
Q 447 3434 972 4092 
Q 1497 4750 2381 4750 
Q 2619 4750 2861 4703 
Q 3103 4656 3366 4563 
z
" transform="scale(0.015625)"/>
       </defs>
       <use xlink:href="#DejaVuSans-2212"/>
       <use xlink:href="#DejaVuSans-36" x="83.789062"/>
      </g>
     </g>
    </g>
    <g id="xtick_2">
     <g id="line2d_2">
      <g>
       <use xlink:href="#m3d9d3d1284" x="102.170978" y="307.584" style="stroke: #000000; stroke-width: 0.8"/>
      </g>
     </g>
     <g id="text_2">
      <!-- −4 -->
      <g transform="translate(94.799884 322.182437)scale(0.1 -0.1)">
       <defs>
        <path id="DejaVuSans-34" d="M 2419 4116 
L 825 1625 
L 2419 1625 
L 2419 4116 
z
M 2253 4666 
L 3047 4666 
L 3047 1625 
L 3713 1625 
L 3713 1100 
L 3047 1100 
L 3047 0 
L 2419 0 
L 2419 1100 
L 313 1100 
L 313 1709 
L 2253 4666 
z
" transform="scale(0.015625)"/>
       </defs>
       <use xlink:href="#DejaVuSans-2212"/>
       <use xlink:href="#DejaVuSans-34" x="83.789062"/>
      </g>
     </g>
    </g>
    <g id="xtick_3">
     <g id="line2d_3">
      <g>
       <use xlink:href="#m3d9d3d1284" x="143.513698" y="307.584" style="stroke: #000000; stroke-width: 0.8"/>
      </g>
     </g>
     <g id="text_3">
      <!-- −2 -->
      <g transform="translate(136.142604 322.182437)scale(0.1 -0.1)">
       <defs>
        <path id="DejaVuSans-32" d="M 1228 531 
L 3431 531 
L 3431 0 
L 469 0 
L 469 531 
Q 828 903 1448 1529 
Q 2069 2156 2228 2338 
Q 2531 2678 2651 2914 
Q 2772 3150 2772 3378 
Q 2772 3750 2511 3984 
Q 2250 4219 1831 4219 
Q 1534 4219 1204 4116 
Q 875 4013 500 3803 
L 500 4441 
Q 881 4594 1212 4672 
Q 1544 4750 1819 4750 
Q 2544 4750 2975 4387 
Q 3406 4025 3406 3419 
Q 3406 3131 3298 2873 
Q 3191 2616 2906 2266 
Q 2828 2175 2409 1742 
Q 1991 1309 1228 531 
z
" transform="scale(0.015625)"/>
       </defs>
       <use xlink:href="#DejaVuSans-2212"/>
       <use xlink:href="#DejaVuSans-32" x="83.789062"/>
      </g>
     </g>
    </g>
    <g id="xtick_4">
     <g id="line2d_4">
      <g>
       <use xlink:href="#m3d9d3d1284" x="184.856419" y="307.584" style="stroke: #000000; stroke-width: 0.8"/>
      </g>
     </g>
     <g id="text_4">
      <!-- 0 -->
      <g transform="translate(181.675169 322.182437)scale(0.1 -0.1)">
       <defs>
        <path id="DejaVuSans-30" d="M 2034 4250 
Q 1547 4250 1301 3770 
Q 1056 3291 1056 2328 
Q 1056 1369 1301 889 
Q 1547 409 2034 409 
Q 2525 409 2770 889 
Q 3016 1369 3016 2328 
Q 3016 3291 2770 3770 
Q 2525 4250 2034 4250 
z
M 2034 4750 
Q 2819 4750 3233 4129 
Q 3647 3509 3647 2328 
Q 3647 1150 3233 529 
Q 2819 -91 2034 -91 
Q 1250 -91 836 529 
Q 422 1150 422 2328 
Q 422 3509 836 4129 
Q 1250 4750 2034 4750 
z
" transform="scale(0.015625)"/>
       </defs>
       <use xlink:href="#DejaVuSans-30"/>
      </g>
     </g>
    </g>
    <g id="xtick_5">
     <g id="line2d_5">
      <g>
       <use xlink:href="#m3d9d3d1284" x="226.199139" y="307.584" style="stroke: #000000; stroke-width: 0.8"/>
      </g>
     </g>
     <g id="text_5">
      <!-- 2 -->
      <g transform="translate(223.017889 322.182437)scale(0.1 -0.1)">
       <use xlink:href="#DejaVuSans-32"/>
      </g>
     </g>
    </g>
    <g id="xtick_6">
     <g id="line2d_6">
      <g>
       <use xlink:href="#m3d9d3d1284" x="267.54186" y="307.584" style="stroke: #000000; stroke-width: 0.8"/>
      </g>
     </g>
     <g id="text_6">
      <!-- 4 -->
      <g transform="translate(264.36061 322.182437)scale(0.1 -0.1)">
       <use xlink:href="#DejaVuSans-34"/>
      </g>
     </g>
    </g>
    <g id="xtick_7">
     <g id="line2d_7">
      <g>
       <use xlink:href="#m3d9d3d1284" x="308.88458" y="307.584" style="stroke: #000000; stroke-width: 0.8"/>
      </g>
     </g>
     <g id="text_7">
      <!-- 6 -->
      <g transform="translate(305.70333 322.182437)scale(0.1 -0.1)">
       <use xlink:href="#DejaVuSans-36"/>
      </g>
     </g>
    </g>
    <g id="xtick_8">
     <g id="line2d_8">
      <g>
       <use xlink:href="#m3d9d3d1284" x="350.227301" y="307.584" style="stroke: #000000; stroke-width: 0.8"/>
      </g>
     </g>
     <g id="text_8">
      <!-- 8 -->
      <g transform="translate(347.046051 322.182437)scale(0.1 -0.1)">
       <defs>
        <path id="DejaVuSans-38" d="M 2034 2216 
Q 1584 2216 1326 1975 
Q 1069 1734 1069 1313 
Q 1069 891 1326 650 
Q 1584 409 2034 409 
Q 2484 409 2743 651 
Q 3003 894 3003 1313 
Q 3003 1734 2745 1975 
Q 2488 2216 2034 2216 
z
M 1403 2484 
Q 997 2584 770 2862 
Q 544 3141 544 3541 
Q 544 4100 942 4425 
Q 1341 4750 2034 4750 
Q 2731 4750 3128 4425 
Q 3525 4100 3525 3541 
Q 3525 3141 3298 2862 
Q 3072 2584 2669 2484 
Q 3125 2378 3379 2068 
Q 3634 1759 3634 1313 
Q 3634 634 3220 271 
Q 2806 -91 2034 -91 
Q 1263 -91 848 271 
Q 434 634 434 1313 
Q 434 1759 690 2068 
Q 947 2378 1403 2484 
z
M 1172 3481 
Q 1172 3119 1398 2916 
Q 1625 2713 2034 2713 
Q 2441 2713 2670 2916 
Q 2900 3119 2900 3481 
Q 2900 3844 2670 4047 
Q 2441 4250 2034 4250 
Q 1625 4250 1398 4047 
Q 1172 3844 1172 3481 
z
" transform="scale(0.015625)"/>
       </defs>
       <use xlink:href="#DejaVuSans-38"/>
      </g>
     </g>
    </g>
    <g id="xtick_9">
     <g id="line2d_9">
      <g>
       <use xlink:href="#m3d9d3d1284" x="391.570021" y="307.584" style="stroke: #000000; stroke-width: 0.8"/>
      </g>
     </g>
     <g id="text_9">
      <!-- 10 -->
      <g transform="translate(385.207521 322.182437)scale(0.1 -0.1)">
       <defs>
        <path id="DejaVuSans-31" d="M 794 531 
L 1825 531 
L 1825 4091 
L 703 3866 
L 703 4441 
L 1819 4666 
L 2450 4666 
L 2450 531 
L 3481 531 
L 3481 0 
L 794 0 
L 794 531 
z
" transform="scale(0.015625)"/>
       </defs>
       <use xlink:href="#DejaVuSans-31"/>
       <use xlink:href="#DejaVuSans-30" x="63.623047"/>
      </g>
     </g>
    </g>
   </g>
   <g id="matplotlib.axis_2">
    <g id="ytick_1">
     <g id="line2d_10">
      <defs>
       <path id="m36728ef5cc" d="M 0 0 
L -3.5 0 
" style="stroke: #000000; stroke-width: 0.8"/>
      </defs>
      <g>
       <use xlink:href="#m36728ef5cc" x="57.6" y="307.584" style="stroke: #000000; stroke-width: 0.8"/>
      </g>
     </g>
     <g id="text_10">
      <!-- 0.0 -->
      <g transform="translate(34.696875 311.383219)scale(0.1 -0.1)">
       <defs>
        <path id="DejaVuSans-2e" d="M 684 794 
L 1344 794 
L 1344 0 
L 684 0 
L 684 794 
z
" transform="scale(0.015625)"/>
       </defs>
       <use xlink:href="#DejaVuSans-30"/>
       <use xlink:href="#DejaVuSans-2e" x="63.623047"/>
       <use xlink:href="#DejaVuSans-30" x="95.410156"/>
      </g>
     </g>
    </g>
    <g id="ytick_2">
     <g id="line2d_11">
      <g>
       <use xlink:href="#m36728ef5cc" x="57.6" y="262.837237" style="stroke: #000000; stroke-width: 0.8"/>
      </g>
     </g>
     <g id="text_11">
      <!-- 0.1 -->
      <g transform="translate(34.696875 266.636456)scale(0.1 -0.1)">
       <use xlink:href="#DejaVuSans-30"/>
       <use xlink:href="#DejaVuSans-2e" x="63.623047"/>
       <use xlink:href="#DejaVuSans-31" x="95.410156"/>
      </g>
     </g>
    </g>
    <g id="ytick_3">
     <g id="line2d_12">
      <g>
       <use xlink:href="#m36728ef5cc" x="57.6" y="218.090475" style="stroke: #000000; stroke-width: 0.8"/>
      </g>
     </g>
     <g id="text_12">
      <!-- 0.2 -->
      <g transform="translate(34.696875 221.889693)scale(0.1 -0.1)">
       <use xlink:href="#DejaVuSans-30"/>
       <use xlink:href="#DejaVuSans-2e" x="63.623047"/>
       <use xlink:href="#DejaVuSans-32" x="95.410156"/>
      </g>
     </g>
    </g>
    <g id="ytick_4">
     <g id="line2d_13">
      <g>
       <use xlink:href="#m36728ef5cc" x="57.6" y="173.343712" style="stroke: #000000; stroke-width: 0.8"/>
      </g>
     </g>
     <g id="text_13">
      <!-- 0.3 -->
      <g transform="translate(34.696875 177.142931)scale(0.1 -0.1)">
       <defs>
        <path id="DejaVuSans-33" d="M 2597 2516 
Q 3050 2419 3304 2112 
Q 3559 1806 3559 1356 
Q 3559 666 3084 287 
Q 2609 -91 1734 -91 
Q 1441 -91 1130 -33 
Q 819 25 488 141 
L 488 750 
Q 750 597 1062 519 
Q 1375 441 1716 441 
Q 2309 441 2620 675 
Q 2931 909 2931 1356 
Q 2931 1769 2642 2001 
Q 2353 2234 1838 2234 
L 1294 2234 
L 1294 2753 
L 1863 2753 
Q 2328 2753 2575 2939 
Q 2822 3125 2822 3475 
Q 2822 3834 2567 4026 
Q 2313 4219 1838 4219 
Q 1578 4219 1281 4162 
Q 984 4106 628 3988 
L 628 4550 
Q 988 4650 1302 4700 
Q 1616 4750 1894 4750 
Q 2613 4750 3031 4423 
Q 3450 4097 3450 3541 
Q 3450 3153 3228 2886 
Q 3006 2619 2597 2516 
z
" transform="scale(0.015625)"/>
       </defs>
       <use xlink:href="#DejaVuSans-30"/>
       <use xlink:href="#DejaVuSans-2e" x="63.623047"/>
       <use xlink:href="#DejaVuSans-33" x="95.410156"/>
      </g>
     </g>
    </g>
    <g id="ytick_5">
     <g id="line2d_14">
      <g>
       <use xlink:href="#m36728ef5cc" x="57.6" y="128.596949" style="stroke: #000000; stroke-width: 0.8"/>
      </g>
     </g>
     <g id="text_14">
      <!-- 0.4 -->
      <g transform="translate(34.696875 132.396168)scale(0.1 -0.1)">
       <use xlink:href="#DejaVuSans-30"/>
       <use xlink:href="#DejaVuSans-2e" x="63.623047"/>
       <use xlink:href="#DejaVuSans-34" x="95.410156"/>
      </g>
     </g>
    </g>
    <g id="ytick_6">
     <g id="line2d_15">
      <g>
       <use xlink:href="#m36728ef5cc" x="57.6" y="83.850187" style="stroke: #000000; stroke-width: 0.8"/>
      </g>
     </g>
     <g id="text_15">
      <!-- 0.5 -->
      <g transform="translate(34.696875 87.649405)scale(0.1 -0.1)">
       <defs>
        <path id="DejaVuSans-35" d="M 691 4666 
L 3169 4666 
L 3169 4134 
L 1269 4134 
L 1269 2991 
Q 1406 3038 1543 3061 
Q 1681 3084 1819 3084 
Q 2600 3084 3056 2656 
Q 3513 2228 3513 1497 
Q 3513 744 3044 326 
Q 2575 -91 1722 -91 
Q 1428 -91 1123 -41 
Q 819 9 494 109 
L 494 744 
Q 775 591 1075 516 
Q 1375 441 1709 441 
Q 2250 441 2565 725 
Q 2881 1009 2881 1497 
Q 2881 1984 2565 2268 
Q 2250 2553 1709 2553 
Q 1456 2553 1204 2497 
Q 953 2441 691 2322 
L 691 4666 
z
" transform="scale(0.015625)"/>
       </defs>
       <use xlink:href="#DejaVuSans-30"/>
       <use xlink:href="#DejaVuSans-2e" x="63.623047"/>
       <use xlink:href="#DejaVuSans-35" x="95.410156"/>
      </g>
     </g>
    </g>
   </g>
   <g id="patch_6">
    <path d="M 57.6 307.584 
L 57.6 41.472 
" style="fill: none; stroke: #000000; stroke-width: 0.8; stroke-linejoin: miter; stroke-linecap: square"/>
   </g>
   <g id="patch_7">
    <path d="M 414.72 307.584 
L 414.72 41.472 
" style="fill: none; stroke: #000000; stroke-width: 0.8; stroke-linejoin: miter; stroke-linecap: square"/>
   </g>
   <g id="patch_8">
    <path d="M 57.6 307.584 
L 414.72 307.584 
" style="fill: none; stroke: #000000; stroke-width: 0.8; stroke-linejoin: miter; stroke-linecap: square"/>
   </g>
   <g id="patch_9">
    <path d="M 57.6 41.472 
L 414.72 41.472 
" style="fill: none; stroke: #000000; stroke-width: 0.8; stroke-linejoin: miter; stroke-linecap: square"/>
   </g>
  </g>
 </g>
 <defs>
  <clipPath id="p44f690183e">
   <rect x="57.6" y="41.472" width="357.12" height="266.112"/>
  </clipPath>
 </defs>
</svg>
