<?xml version="1.0" encoding="utf-8" standalone="no"?>
<!DOCTYPE svg PUBLIC "-//W3C//DTD SVG 1.1//EN"
  "http://www.w3.org/Graphics/SVG/1.1/DTD/svg11.dtd">
<svg xmlns:xlink="http://www.w3.org/1999/xlink" width="460.8pt" height="345.6pt" viewBox="0 0 460.8 345.6" xmlns="http://www.w3.org/2000/svg" version="1.1">
 <metadata>
  <rdf:RDF xmlns:dc="http://purl.org/dc/elements/1.1/" xmlns:cc="http://creativecommons.org/ns#" xmlns:rdf="http://www.w3.org/1999/02/22-rdf-syntax-ns#">
   <cc:Work>
    <dc:type rdf:resource="http://purl.org/dc/dcmitype/StillImage"/>
    <dc:date>2022-10-04T09:25:54.320375</dc:date>
    <dc:format>image/svg+xml</dc:format>
    <dc:creator>
     <cc:Agent>
      <dc:title>Matplotlib v3.5.3, https://matplotlib.org/</dc:title>
     </cc:Agent>
    </dc:creator>
   </cc:Work>
  </rdf:RDF>
 </metadata>
 <defs>
  <style type="text/css">*{stroke-linejoin: round; stroke-linecap: butt}</style>
 </defs>
 <g id="figure_1">
  <g id="patch_1">
   <path d="M 0 345.6 
L 460.8 345.6 
L 460.8 0 
L 0 0 
z
" style="fill: #ffffff"/>
  </g>
  <g id="axes_1">
   <g id="patch_2">
    <path d="M 57.6 307.584 
L 414.72 307.584 
L 414.72 41.472 
L 57.6 41.472 
z
" style="fill: #ffffff"/>
   </g>
   <g id="matplotlib.axis_1">
    <g id="xtick_1">
     <g id="line2d_1">
      <path d="M 73.832727 307.584 
L 73.832727 41.472 
" clip-path="url(#p3404190adb)" style="fill: none; stroke: #cccccc; stroke-width: 0.8; stroke-linecap: round"/>
     </g>
     <g id="line2d_2"/>
     <g id="text_1">
      <!-- 0 -->
      <g style="fill: #262626" transform="translate(71.052259 318.241812)scale(0.1 -0.1)">
       <defs>
        <path id="ArialMT-30" d="M 266 2259 
Q 266 3072 433 3567 
Q 600 4063 929 4331 
Q 1259 4600 1759 4600 
Q 2128 4600 2406 4451 
Q 2684 4303 2865 4023 
Q 3047 3744 3150 3342 
Q 3253 2941 3253 2259 
Q 3253 1453 3087 958 
Q 2922 463 2592 192 
Q 2263 -78 1759 -78 
Q 1097 -78 719 397 
Q 266 969 266 2259 
z
M 844 2259 
Q 844 1131 1108 757 
Q 1372 384 1759 384 
Q 2147 384 2411 759 
Q 2675 1134 2675 2259 
Q 2675 3391 2411 3762 
Q 2147 4134 1753 4134 
Q 1366 4134 1134 3806 
Q 844 3388 844 2259 
z
" transform="scale(0.015625)"/>
       </defs>
       <use xlink:href="#ArialMT-30"/>
      </g>
     </g>
    </g>
    <g id="xtick_2">
     <g id="line2d_3">
      <path d="M 138.763636 307.584 
L 138.763636 41.472 
" clip-path="url(#p3404190adb)" style="fill: none; stroke: #cccccc; stroke-width: 0.8; stroke-linecap: round"/>
     </g>
     <g id="line2d_4"/>
     <g id="text_2">
      <!-- 2 -->
      <g style="fill: #262626" transform="translate(135.983168 318.241812)scale(0.1 -0.1)">
       <defs>
        <path id="ArialMT-32" d="M 3222 541 
L 3222 0 
L 194 0 
Q 188 203 259 391 
Q 375 700 629 1000 
Q 884 1300 1366 1694 
Q 2113 2306 2375 2664 
Q 2638 3022 2638 3341 
Q 2638 3675 2398 3904 
Q 2159 4134 1775 4134 
Q 1369 4134 1125 3890 
Q 881 3647 878 3216 
L 300 3275 
Q 359 3922 746 4261 
Q 1134 4600 1788 4600 
Q 2447 4600 2831 4234 
Q 3216 3869 3216 3328 
Q 3216 3053 3103 2787 
Q 2991 2522 2730 2228 
Q 2469 1934 1863 1422 
Q 1356 997 1212 845 
Q 1069 694 975 541 
L 3222 541 
z
" transform="scale(0.015625)"/>
       </defs>
       <use xlink:href="#ArialMT-32"/>
      </g>
     </g>
    </g>
    <g id="xtick_3">
     <g id="line2d_5">
      <path d="M 203.694545 307.584 
L 203.694545 41.472 
" clip-path="url(#p3404190adb)" style="fill: none; stroke: #cccccc; stroke-width: 0.8; stroke-linecap: round"/>
     </g>
     <g id="line2d_6"/>
     <g id="text_3">
      <!-- 4 -->
      <g style="fill: #262626" transform="translate(200.914077 318.241812)scale(0.1 -0.1)">
       <defs>
        <path id="ArialMT-34" d="M 2069 0 
L 2069 1097 
L 81 1097 
L 81 1613 
L 2172 4581 
L 2631 4581 
L 2631 1613 
L 3250 1613 
L 3250 1097 
L 2631 1097 
L 2631 0 
L 2069 0 
z
M 2069 1613 
L 2069 3678 
L 634 1613 
L 2069 1613 
z
" transform="scale(0.015625)"/>
       </defs>
       <use xlink:href="#ArialMT-34"/>
      </g>
     </g>
    </g>
    <g id="xtick_4">
     <g id="line2d_7">
      <path d="M 268.625455 307.584 
L 268.625455 41.472 
" clip-path="url(#p3404190adb)" style="fill: none; stroke: #cccccc; stroke-width: 0.8; stroke-linecap: round"/>
     </g>
     <g id="line2d_8"/>
     <g id="text_4">
      <!-- 6 -->
      <g style="fill: #262626" transform="translate(265.844986 318.241812)scale(0.1 -0.1)">
       <defs>
        <path id="ArialMT-36" d="M 3184 3459 
L 2625 3416 
Q 2550 3747 2413 3897 
Q 2184 4138 1850 4138 
Q 1581 4138 1378 3988 
Q 1113 3794 959 3422 
Q 806 3050 800 2363 
Q 1003 2672 1297 2822 
Q 1591 2972 1913 2972 
Q 2475 2972 2870 2558 
Q 3266 2144 3266 1488 
Q 3266 1056 3080 686 
Q 2894 316 2569 119 
Q 2244 -78 1831 -78 
Q 1128 -78 684 439 
Q 241 956 241 2144 
Q 241 3472 731 4075 
Q 1159 4600 1884 4600 
Q 2425 4600 2770 4297 
Q 3116 3994 3184 3459 
z
M 888 1484 
Q 888 1194 1011 928 
Q 1134 663 1356 523 
Q 1578 384 1822 384 
Q 2178 384 2434 671 
Q 2691 959 2691 1453 
Q 2691 1928 2437 2201 
Q 2184 2475 1800 2475 
Q 1419 2475 1153 2201 
Q 888 1928 888 1484 
z
" transform="scale(0.015625)"/>
       </defs>
       <use xlink:href="#ArialMT-36"/>
      </g>
     </g>
    </g>
    <g id="xtick_5">
     <g id="line2d_9">
      <path d="M 333.556364 307.584 
L 333.556364 41.472 
" clip-path="url(#p3404190adb)" style="fill: none; stroke: #cccccc; stroke-width: 0.8; stroke-linecap: round"/>
     </g>
     <g id="line2d_10"/>
     <g id="text_5">
      <!-- 8 -->
      <g style="fill: #262626" transform="translate(330.775895 318.241812)scale(0.1 -0.1)">
       <defs>
        <path id="ArialMT-38" d="M 1131 2484 
Q 781 2613 612 2850 
Q 444 3088 444 3419 
Q 444 3919 803 4259 
Q 1163 4600 1759 4600 
Q 2359 4600 2725 4251 
Q 3091 3903 3091 3403 
Q 3091 3084 2923 2848 
Q 2756 2613 2416 2484 
Q 2838 2347 3058 2040 
Q 3278 1734 3278 1309 
Q 3278 722 2862 322 
Q 2447 -78 1769 -78 
Q 1091 -78 675 323 
Q 259 725 259 1325 
Q 259 1772 486 2073 
Q 713 2375 1131 2484 
z
M 1019 3438 
Q 1019 3113 1228 2906 
Q 1438 2700 1772 2700 
Q 2097 2700 2305 2904 
Q 2513 3109 2513 3406 
Q 2513 3716 2298 3927 
Q 2084 4138 1766 4138 
Q 1444 4138 1231 3931 
Q 1019 3725 1019 3438 
z
M 838 1322 
Q 838 1081 952 856 
Q 1066 631 1291 507 
Q 1516 384 1775 384 
Q 2178 384 2440 643 
Q 2703 903 2703 1303 
Q 2703 1709 2433 1975 
Q 2163 2241 1756 2241 
Q 1359 2241 1098 1978 
Q 838 1716 838 1322 
z
" transform="scale(0.015625)"/>
       </defs>
       <use xlink:href="#ArialMT-38"/>
      </g>
     </g>
    </g>
    <g id="xtick_6">
     <g id="line2d_11">
      <path d="M 398.487273 307.584 
L 398.487273 41.472 
" clip-path="url(#p3404190adb)" style="fill: none; stroke: #cccccc; stroke-width: 0.8; stroke-linecap: round"/>
     </g>
     <g id="line2d_12"/>
     <g id="text_6">
      <!-- 10 -->
      <g style="fill: #262626" transform="translate(392.926335 318.241812)scale(0.1 -0.1)">
       <defs>
        <path id="ArialMT-31" d="M 2384 0 
L 1822 0 
L 1822 3584 
Q 1619 3391 1289 3197 
Q 959 3003 697 2906 
L 697 3450 
Q 1169 3672 1522 3987 
Q 1875 4303 2022 4600 
L 2384 4600 
L 2384 0 
z
" transform="scale(0.015625)"/>
       </defs>
       <use xlink:href="#ArialMT-31"/>
       <use xlink:href="#ArialMT-30" x="55.615234"/>
      </g>
     </g>
    </g>
   </g>
   <g id="matplotlib.axis_2">
    <g id="ytick_1">
     <g id="line2d_13">
      <path d="M 57.6 284.295499 
L 414.72 284.295499 
" clip-path="url(#p3404190adb)" style="fill: none; stroke: #cccccc; stroke-width: 0.8; stroke-linecap: round"/>
     </g>
     <g id="line2d_14"/>
     <g id="text_7">
      <!-- −3 -->
      <g style="fill: #262626" transform="translate(42.698437 287.874405)scale(0.1 -0.1)">
       <defs>
        <path id="ArialMT-2212" d="M 3381 1997 
L 356 1997 
L 356 2522 
L 3381 2522 
L 3381 1997 
z
" transform="scale(0.015625)"/>
        <path id="ArialMT-33" d="M 269 1209 
L 831 1284 
Q 928 806 1161 595 
Q 1394 384 1728 384 
Q 2125 384 2398 659 
Q 2672 934 2672 1341 
Q 2672 1728 2419 1979 
Q 2166 2231 1775 2231 
Q 1616 2231 1378 2169 
L 1441 2663 
Q 1497 2656 1531 2656 
Q 1891 2656 2178 2843 
Q 2466 3031 2466 3422 
Q 2466 3731 2256 3934 
Q 2047 4138 1716 4138 
Q 1388 4138 1169 3931 
Q 950 3725 888 3313 
L 325 3413 
Q 428 3978 793 4289 
Q 1159 4600 1703 4600 
Q 2078 4600 2393 4439 
Q 2709 4278 2876 4000 
Q 3044 3722 3044 3409 
Q 3044 3113 2884 2869 
Q 2725 2625 2413 2481 
Q 2819 2388 3044 2092 
Q 3269 1797 3269 1353 
Q 3269 753 2831 336 
Q 2394 -81 1725 -81 
Q 1122 -81 723 278 
Q 325 638 269 1209 
z
" transform="scale(0.015625)"/>
       </defs>
       <use xlink:href="#ArialMT-2212"/>
       <use xlink:href="#ArialMT-33" x="58.398438"/>
      </g>
     </g>
    </g>
    <g id="ytick_2">
     <g id="line2d_15">
      <path d="M 57.6 247.939439 
L 414.72 247.939439 
" clip-path="url(#p3404190adb)" style="fill: none; stroke: #cccccc; stroke-width: 0.8; stroke-linecap: round"/>
     </g>
     <g id="line2d_16"/>
     <g id="text_8">
      <!-- −2 -->
      <g style="fill: #262626" transform="translate(42.698437 251.518345)scale(0.1 -0.1)">
       <use xlink:href="#ArialMT-2212"/>
       <use xlink:href="#ArialMT-32" x="58.398438"/>
      </g>
     </g>
    </g>
    <g id="ytick_3">
     <g id="line2d_17">
      <path d="M 57.6 211.583379 
L 414.72 211.583379 
" clip-path="url(#p3404190adb)" style="fill: none; stroke: #cccccc; stroke-width: 0.8; stroke-linecap: round"/>
     </g>
     <g id="line2d_18"/>
     <g id="text_9">
      <!-- −1 -->
      <g style="fill: #262626" transform="translate(42.698437 215.162285)scale(0.1 -0.1)">
       <use xlink:href="#ArialMT-2212"/>
       <use xlink:href="#ArialMT-31" x="58.398438"/>
      </g>
     </g>
    </g>
    <g id="ytick_4">
     <g id="line2d_19">
      <path d="M 57.6 175.227319 
L 414.72 175.227319 
" clip-path="url(#p3404190adb)" style="fill: none; stroke: #cccccc; stroke-width: 0.8; stroke-linecap: round"/>
     </g>
     <g id="line2d_20"/>
     <g id="text_10">
      <!-- 0 -->
      <g style="fill: #262626" transform="translate(48.539062 178.806225)scale(0.1 -0.1)">
       <use xlink:href="#ArialMT-30"/>
      </g>
     </g>
    </g>
    <g id="ytick_5">
     <g id="line2d_21">
      <path d="M 57.6 138.871259 
L 414.72 138.871259 
" clip-path="url(#p3404190adb)" style="fill: none; stroke: #cccccc; stroke-width: 0.8; stroke-linecap: round"/>
     </g>
     <g id="line2d_22"/>
     <g id="text_11">
      <!-- 1 -->
      <g style="fill: #262626" transform="translate(48.539062 142.450165)scale(0.1 -0.1)">
       <use xlink:href="#ArialMT-31"/>
      </g>
     </g>
    </g>
    <g id="ytick_6">
     <g id="line2d_23">
      <path d="M 57.6 102.515199 
L 414.72 102.515199 
" clip-path="url(#p3404190adb)" style="fill: none; stroke: #cccccc; stroke-width: 0.8; stroke-linecap: round"/>
     </g>
     <g id="line2d_24"/>
     <g id="text_12">
      <!-- 2 -->
      <g style="fill: #262626" transform="translate(48.539062 106.094105)scale(0.1 -0.1)">
       <use xlink:href="#ArialMT-32"/>
      </g>
     </g>
    </g>
    <g id="ytick_7">
     <g id="line2d_25">
      <path d="M 57.6 66.159139 
L 414.72 66.159139 
" clip-path="url(#p3404190adb)" style="fill: none; stroke: #cccccc; stroke-width: 0.8; stroke-linecap: round"/>
     </g>
     <g id="line2d_26"/>
     <g id="text_13">
      <!-- 3 -->
      <g style="fill: #262626" transform="translate(48.539062 69.738045)scale(0.1 -0.1)">
       <use xlink:href="#ArialMT-33"/>
      </g>
     </g>
    </g>
   </g>
   <g id="LineCollection_1">
    <path d="M 73.832727 187.13859 
L 73.832727 128.968894 
" clip-path="url(#p3404190adb)" style="fill: none; stroke: #000000; stroke-width: 1.5"/>
    <path d="M 80.45833 229.984848 
L 80.45833 171.815152 
" clip-path="url(#p3404190adb)" style="fill: none; stroke: #000000; stroke-width: 1.5"/>
    <path d="M 87.083933 170.644235 
L 87.083933 112.474539 
" clip-path="url(#p3404190adb)" style="fill: none; stroke: #000000; stroke-width: 1.5"/>
    <path d="M 93.709536 218.663226 
L 93.709536 160.49353 
" clip-path="url(#p3404190adb)" style="fill: none; stroke: #000000; stroke-width: 1.5"/>
    <path d="M 100.335139 184.515643 
L 100.335139 126.345947 
" clip-path="url(#p3404190adb)" style="fill: none; stroke: #000000; stroke-width: 1.5"/>
    <path d="M 106.960742 157.948934 
L 106.960742 99.779238 
" clip-path="url(#p3404190adb)" style="fill: none; stroke: #000000; stroke-width: 1.5"/>
    <path d="M 113.586345 178.501725 
L 113.586345 120.332029 
" clip-path="url(#p3404190adb)" style="fill: none; stroke: #000000; stroke-width: 1.5"/>
    <path d="M 120.211948 187.536495 
L 120.211948 129.366799 
" clip-path="url(#p3404190adb)" style="fill: none; stroke: #000000; stroke-width: 1.5"/>
    <path d="M 126.837551 252.275147 
L 126.837551 194.105451 
" clip-path="url(#p3404190adb)" style="fill: none; stroke: #000000; stroke-width: 1.5"/>
    <path d="M 133.463154 111.737696 
L 133.463154 53.568 
" clip-path="url(#p3404190adb)" style="fill: none; stroke: #000000; stroke-width: 1.5"/>
    <path d="M 140.088757 131.016097 
L 140.088757 72.846401 
" clip-path="url(#p3404190adb)" style="fill: none; stroke: #000000; stroke-width: 1.5"/>
    <path d="M 146.71436 127.838687 
L 146.71436 69.668991 
" clip-path="url(#p3404190adb)" style="fill: none; stroke: #000000; stroke-width: 1.5"/>
    <path d="M 153.339963 180.001669 
L 153.339963 121.831973 
" clip-path="url(#p3404190adb)" style="fill: none; stroke: #000000; stroke-width: 1.5"/>
    <path d="M 159.965566 191.593175 
L 159.965566 133.423479 
" clip-path="url(#p3404190adb)" style="fill: none; stroke: #000000; stroke-width: 1.5"/>
    <path d="M 166.591169 234.986283 
L 166.591169 176.816587 
" clip-path="url(#p3404190adb)" style="fill: none; stroke: #000000; stroke-width: 1.5"/>
    <path d="M 173.216772 204.275109 
L 173.216772 146.105413 
" clip-path="url(#p3404190adb)" style="fill: none; stroke: #000000; stroke-width: 1.5"/>
    <path d="M 179.842375 186.979862 
L 179.842375 128.810166 
" clip-path="url(#p3404190adb)" style="fill: none; stroke: #000000; stroke-width: 1.5"/>
    <path d="M 186.467978 211.508058 
L 186.467978 153.338362 
" clip-path="url(#p3404190adb)" style="fill: none; stroke: #000000; stroke-width: 1.5"/>
    <path d="M 193.093581 203.549048 
L 193.093581 145.379352 
" clip-path="url(#p3404190adb)" style="fill: none; stroke: #000000; stroke-width: 1.5"/>
    <path d="M 199.719184 217.416864 
L 199.719184 159.247168 
" clip-path="url(#p3404190adb)" style="fill: none; stroke: #000000; stroke-width: 1.5"/>
    <path d="M 206.344787 195.953176 
L 206.344787 137.78348 
" clip-path="url(#p3404190adb)" style="fill: none; stroke: #000000; stroke-width: 1.5"/>
    <path d="M 212.97039 295.488 
L 212.97039 237.318304 
" clip-path="url(#p3404190adb)" style="fill: none; stroke: #000000; stroke-width: 1.5"/>
    <path d="M 219.595993 256.440145 
L 219.595993 198.270449 
" clip-path="url(#p3404190adb)" style="fill: none; stroke: #000000; stroke-width: 1.5"/>
    <path d="M 226.221596 270.416829 
L 226.221596 212.247133 
" clip-path="url(#p3404190adb)" style="fill: none; stroke: #000000; stroke-width: 1.5"/>
    <path d="M 232.847199 202.860597 
L 232.847199 144.690901 
" clip-path="url(#p3404190adb)" style="fill: none; stroke: #000000; stroke-width: 1.5"/>
    <path d="M 239.472801 226.239621 
L 239.472801 168.069925 
" clip-path="url(#p3404190adb)" style="fill: none; stroke: #000000; stroke-width: 1.5"/>
    <path d="M 246.098404 188.354343 
L 246.098404 130.184647 
" clip-path="url(#p3404190adb)" style="fill: none; stroke: #000000; stroke-width: 1.5"/>
    <path d="M 252.724007 230.23258 
L 252.724007 172.062884 
" clip-path="url(#p3404190adb)" style="fill: none; stroke: #000000; stroke-width: 1.5"/>
    <path d="M 259.34961 234.741687 
L 259.34961 176.571991 
" clip-path="url(#p3404190adb)" style="fill: none; stroke: #000000; stroke-width: 1.5"/>
    <path d="M 265.975213 248.732201 
L 265.975213 190.562505 
" clip-path="url(#p3404190adb)" style="fill: none; stroke: #000000; stroke-width: 1.5"/>
    <path d="M 272.600816 253.707859 
L 272.600816 195.538163 
" clip-path="url(#p3404190adb)" style="fill: none; stroke: #000000; stroke-width: 1.5"/>
    <path d="M 279.226419 200.204403 
L 279.226419 142.034707 
" clip-path="url(#p3404190adb)" style="fill: none; stroke: #000000; stroke-width: 1.5"/>
    <path d="M 285.852022 194.036469 
L 285.852022 135.866773 
" clip-path="url(#p3404190adb)" style="fill: none; stroke: #000000; stroke-width: 1.5"/>
    <path d="M 292.477625 173.156357 
L 292.477625 114.986661 
" clip-path="url(#p3404190adb)" style="fill: none; stroke: #000000; stroke-width: 1.5"/>
    <path d="M 299.103228 207.042275 
L 299.103228 148.872579 
" clip-path="url(#p3404190adb)" style="fill: none; stroke: #000000; stroke-width: 1.5"/>
    <path d="M 305.728831 222.477707 
L 305.728831 164.308011 
" clip-path="url(#p3404190adb)" style="fill: none; stroke: #000000; stroke-width: 1.5"/>
    <path d="M 312.354434 202.645015 
L 312.354434 144.475319 
" clip-path="url(#p3404190adb)" style="fill: none; stroke: #000000; stroke-width: 1.5"/>
    <path d="M 318.980037 170.738158 
L 318.980037 112.568462 
" clip-path="url(#p3404190adb)" style="fill: none; stroke: #000000; stroke-width: 1.5"/>
    <path d="M 325.60564 175.183669 
L 325.60564 117.013973 
" clip-path="url(#p3404190adb)" style="fill: none; stroke: #000000; stroke-width: 1.5"/>
    <path d="M 332.231243 133.652432 
L 332.231243 75.482736 
" clip-path="url(#p3404190adb)" style="fill: none; stroke: #000000; stroke-width: 1.5"/>
    <path d="M 338.856846 193.251237 
L 338.856846 135.081541 
" clip-path="url(#p3404190adb)" style="fill: none; stroke: #000000; stroke-width: 1.5"/>
    <path d="M 345.482449 186.121187 
L 345.482449 127.951491 
" clip-path="url(#p3404190adb)" style="fill: none; stroke: #000000; stroke-width: 1.5"/>
    <path d="M 352.108052 181.287581 
L 352.108052 123.117885 
" clip-path="url(#p3404190adb)" style="fill: none; stroke: #000000; stroke-width: 1.5"/>
    <path d="M 358.733655 196.212269 
L 358.733655 138.042573 
" clip-path="url(#p3404190adb)" style="fill: none; stroke: #000000; stroke-width: 1.5"/>
    <path d="M 365.359258 141.77304 
L 365.359258 83.603344 
" clip-path="url(#p3404190adb)" style="fill: none; stroke: #000000; stroke-width: 1.5"/>
    <path d="M 371.984861 158.385302 
L 371.984861 100.215606 
" clip-path="url(#p3404190adb)" style="fill: none; stroke: #000000; stroke-width: 1.5"/>
    <path d="M 378.610464 222.095587 
L 378.610464 163.925891 
" clip-path="url(#p3404190adb)" style="fill: none; stroke: #000000; stroke-width: 1.5"/>
    <path d="M 385.236067 181.763263 
L 385.236067 123.593567 
" clip-path="url(#p3404190adb)" style="fill: none; stroke: #000000; stroke-width: 1.5"/>
    <path d="M 391.86167 223.023164 
L 391.86167 164.853468 
" clip-path="url(#p3404190adb)" style="fill: none; stroke: #000000; stroke-width: 1.5"/>
    <path d="M 398.487273 220.305169 
L 398.487273 162.135473 
" clip-path="url(#p3404190adb)" style="fill: none; stroke: #000000; stroke-width: 1.5"/>
   </g>
   <g id="line2d_27">
    <defs>
     <path id="m80be40840d" d="M 0 1.5 
C 0.397805 1.5 0.77937 1.341951 1.06066 1.06066 
C 1.341951 0.77937 1.5 0.397805 1.5 0 
C 1.5 -0.397805 1.341951 -0.77937 1.06066 -1.06066 
C 0.77937 -1.341951 0.397805 -1.5 0 -1.5 
C -0.397805 -1.5 -0.77937 -1.341951 -1.06066 -1.06066 
C -1.341951 -0.77937 -1.5 -0.397805 -1.5 0 
C -1.5 0.397805 -1.341951 0.77937 -1.06066 1.06066 
C -0.77937 1.341951 -0.397805 1.5 0 1.5 
z
" style="stroke: #000000"/>
    </defs>
    <g clip-path="url(#p3404190adb)">
     <use xlink:href="#m80be40840d" x="73.832727" y="158.053742" style="stroke: #000000"/>
     <use xlink:href="#m80be40840d" x="80.45833" y="200.9" style="stroke: #000000"/>
     <use xlink:href="#m80be40840d" x="87.083933" y="141.559387" style="stroke: #000000"/>
     <use xlink:href="#m80be40840d" x="93.709536" y="189.578378" style="stroke: #000000"/>
     <use xlink:href="#m80be40840d" x="100.335139" y="155.430795" style="stroke: #000000"/>
     <use xlink:href="#m80be40840d" x="106.960742" y="128.864086" style="stroke: #000000"/>
     <use xlink:href="#m80be40840d" x="113.586345" y="149.416877" style="stroke: #000000"/>
     <use xlink:href="#m80be40840d" x="120.211948" y="158.451647" style="stroke: #000000"/>
     <use xlink:href="#m80be40840d" x="126.837551" y="223.190299" style="stroke: #000000"/>
     <use xlink:href="#m80be40840d" x="133.463154" y="82.652848" style="stroke: #000000"/>
     <use xlink:href="#m80be40840d" x="140.088757" y="101.931249" style="stroke: #000000"/>
     <use xlink:href="#m80be40840d" x="146.71436" y="98.753839" style="stroke: #000000"/>
     <use xlink:href="#m80be40840d" x="153.339963" y="150.916821" style="stroke: #000000"/>
     <use xlink:href="#m80be40840d" x="159.965566" y="162.508327" style="stroke: #000000"/>
     <use xlink:href="#m80be40840d" x="166.591169" y="205.901435" style="stroke: #000000"/>
     <use xlink:href="#m80be40840d" x="173.216772" y="175.190261" style="stroke: #000000"/>
     <use xlink:href="#m80be40840d" x="179.842375" y="157.895014" style="stroke: #000000"/>
     <use xlink:href="#m80be40840d" x="186.467978" y="182.42321" style="stroke: #000000"/>
     <use xlink:href="#m80be40840d" x="193.093581" y="174.4642" style="stroke: #000000"/>
     <use xlink:href="#m80be40840d" x="199.719184" y="188.332016" style="stroke: #000000"/>
     <use xlink:href="#m80be40840d" x="206.344787" y="166.868328" style="stroke: #000000"/>
     <use xlink:href="#m80be40840d" x="212.97039" y="266.403152" style="stroke: #000000"/>
     <use xlink:href="#m80be40840d" x="219.595993" y="227.355297" style="stroke: #000000"/>
     <use xlink:href="#m80be40840d" x="226.221596" y="241.331981" style="stroke: #000000"/>
     <use xlink:href="#m80be40840d" x="232.847199" y="173.775749" style="stroke: #000000"/>
     <use xlink:href="#m80be40840d" x="239.472801" y="197.154773" style="stroke: #000000"/>
     <use xlink:href="#m80be40840d" x="246.098404" y="159.269495" style="stroke: #000000"/>
     <use xlink:href="#m80be40840d" x="252.724007" y="201.147732" style="stroke: #000000"/>
     <use xlink:href="#m80be40840d" x="259.34961" y="205.656839" style="stroke: #000000"/>
     <use xlink:href="#m80be40840d" x="265.975213" y="219.647353" style="stroke: #000000"/>
     <use xlink:href="#m80be40840d" x="272.600816" y="224.623011" style="stroke: #000000"/>
     <use xlink:href="#m80be40840d" x="279.226419" y="171.119555" style="stroke: #000000"/>
     <use xlink:href="#m80be40840d" x="285.852022" y="164.951621" style="stroke: #000000"/>
     <use xlink:href="#m80be40840d" x="292.477625" y="144.071509" style="stroke: #000000"/>
     <use xlink:href="#m80be40840d" x="299.103228" y="177.957427" style="stroke: #000000"/>
     <use xlink:href="#m80be40840d" x="305.728831" y="193.392859" style="stroke: #000000"/>
     <use xlink:href="#m80be40840d" x="312.354434" y="173.560167" style="stroke: #000000"/>
     <use xlink:href="#m80be40840d" x="318.980037" y="141.65331" style="stroke: #000000"/>
     <use xlink:href="#m80be40840d" x="325.60564" y="146.098821" style="stroke: #000000"/>
     <use xlink:href="#m80be40840d" x="332.231243" y="104.567584" style="stroke: #000000"/>
     <use xlink:href="#m80be40840d" x="338.856846" y="164.166389" style="stroke: #000000"/>
     <use xlink:href="#m80be40840d" x="345.482449" y="157.036339" style="stroke: #000000"/>
     <use xlink:href="#m80be40840d" x="352.108052" y="152.202733" style="stroke: #000000"/>
     <use xlink:href="#m80be40840d" x="358.733655" y="167.127421" style="stroke: #000000"/>
     <use xlink:href="#m80be40840d" x="365.359258" y="112.688192" style="stroke: #000000"/>
     <use xlink:href="#m80be40840d" x="371.984861" y="129.300454" style="stroke: #000000"/>
     <use xlink:href="#m80be40840d" x="378.610464" y="193.010739" style="stroke: #000000"/>
     <use xlink:href="#m80be40840d" x="385.236067" y="152.678415" style="stroke: #000000"/>
     <use xlink:href="#m80be40840d" x="391.86167" y="193.938316" style="stroke: #000000"/>
     <use xlink:href="#m80be40840d" x="398.487273" y="191.220321" style="stroke: #000000"/>
    </g>
   </g>
   <g id="patch_3">
    <path d="M 57.6 307.584 
L 57.6 41.472 
" style="fill: none; stroke: #cccccc; stroke-linejoin: miter; stroke-linecap: square"/>
   </g>
   <g id="patch_4">
    <path d="M 414.72 307.584 
L 414.72 41.472 
" style="fill: none; stroke: #cccccc; stroke-linejoin: miter; stroke-linecap: square"/>
   </g>
   <g id="patch_5">
    <path d="M 57.6 307.584 
L 414.72 307.584 
" style="fill: none; stroke: #cccccc; stroke-linejoin: miter; stroke-linecap: square"/>
   </g>
   <g id="patch_6">
    <path d="M 57.6 41.472 
L 414.72 41.472 
" style="fill: none; stroke: #cccccc; stroke-linejoin: miter; stroke-linecap: square"/>
   </g>
  </g>
 </g>
 <defs>
  <clipPath id="p3404190adb">
   <rect x="57.6" y="41.472" width="357.12" height="266.112"/>
  </clipPath>
 </defs>
</svg>
