<?xml version="1.0" encoding="utf-8" standalone="no"?>
<!DOCTYPE svg PUBLIC "-//W3C//DTD SVG 1.1//EN"
  "http://www.w3.org/Graphics/SVG/1.1/DTD/svg11.dtd">
<svg xmlns:xlink="http://www.w3.org/1999/xlink" width="460.8pt" height="345.6pt" viewBox="0 0 460.8 345.6" xmlns="http://www.w3.org/2000/svg" version="1.1">
 <metadata>
  <rdf:RDF xmlns:dc="http://purl.org/dc/elements/1.1/" xmlns:cc="http://creativecommons.org/ns#" xmlns:rdf="http://www.w3.org/1999/02/22-rdf-syntax-ns#">
   <cc:Work>
    <dc:type rdf:resource="http://purl.org/dc/dcmitype/StillImage"/>
    <dc:date>2022-10-04T10:46:57.276424</dc:date>
    <dc:format>image/svg+xml</dc:format>
    <dc:creator>
     <cc:Agent>
      <dc:title>Matplotlib v3.5.3, https://matplotlib.org/</dc:title>
     </cc:Agent>
    </dc:creator>
   </cc:Work>
  </rdf:RDF>
 </metadata>
 <defs>
  <style type="text/css">*{stroke-linejoin: round; stroke-linecap: butt}</style>
 </defs>
 <g id="figure_1">
  <g id="patch_1">
   <path d="M 0 345.6 
L 460.8 345.6 
L 460.8 0 
L 0 0 
z
" style="fill: #ffffff"/>
  </g>
  <g id="axes_1">
   <g id="patch_2">
    <path d="M 57.6 307.584 
L 414.72 307.584 
L 414.72 41.472 
L 57.6 41.472 
z
" style="fill: #ffffff"/>
   </g>
   <g id="PolyCollection_1">
    <defs>
     <path id="m2f39b53a3d" d="M 57.6 -179.234177 
L 57.6 -120.991386 
L 57.957477 -121.250384 
L 58.314955 -121.51227 
L 58.672432 -121.777042 
L 59.02991 -122.0447 
L 59.387387 -122.315239 
L 59.744865 -122.588658 
L 60.102342 -122.864951 
L 60.45982 -123.144113 
L 60.817297 -123.426139 
L 61.174775 -123.711021 
L 61.532252 -123.998752 
L 61.88973 -124.289323 
L 62.247207 -124.582725 
L 62.604685 -124.878947 
L 62.962162 -125.177978 
L 63.31964 -125.479806 
L 63.677117 -125.784417 
L 64.034595 -126.091798 
L 64.392072 -126.401933 
L 64.74955 -126.714806 
L 65.107027 -127.030401 
L 65.464505 -127.3487 
L 65.821982 -127.669685 
L 66.179459 -127.993334 
L 66.536937 -128.319629 
L 66.894414 -128.648547 
L 67.251892 -128.980066 
L 67.609369 -129.314162 
L 67.966847 -129.650811 
L 68.324324 -129.989988 
L 68.681802 -130.331667 
L 69.039279 -130.67582 
L 69.396757 -131.022419 
L 69.754234 -131.371436 
L 70.111712 -131.722839 
L 70.469189 -132.076599 
L 70.826667 -132.432684 
L 71.184144 -132.79106 
L 71.541622 -133.151695 
L 71.899099 -133.514553 
L 72.256577 -133.879599 
L 72.614054 -134.246797 
L 72.971532 -134.616109 
L 73.329009 -134.987498 
L 73.686486 -135.360924 
L 74.043964 -135.736348 
L 74.401441 -136.113729 
L 74.758919 -136.493025 
L 75.116396 -136.874194 
L 75.473874 -137.257193 
L 75.831351 -137.641977 
L 76.188829 -138.028502 
L 76.546306 -138.416722 
L 76.903784 -138.80659 
L 77.261261 -139.19806 
L 77.618739 -139.591083 
L 77.976216 -139.985611 
L 78.333694 -140.381594 
L 78.691171 -140.778982 
L 79.048649 -141.177724 
L 79.406126 -141.577768 
L 79.763604 -141.979063 
L 80.121081 -142.381554 
L 80.478559 -142.785189 
L 80.836036 -143.189912 
L 81.193514 -143.59567 
L 81.550991 -144.002407 
L 81.908468 -144.410066 
L 82.265946 -144.818591 
L 82.623423 -145.227924 
L 82.980901 -145.638007 
L 83.338378 -146.048783 
L 83.695856 -146.460192 
L 84.053333 -146.872175 
L 84.410811 -147.284672 
L 84.768288 -147.697622 
L 85.125766 -148.110965 
L 85.483243 -148.52464 
L 85.840721 -148.938584 
L 86.198198 -149.352736 
L 86.555676 -149.767033 
L 86.913153 -150.181413 
L 87.270631 -150.595812 
L 87.628108 -151.010166 
L 87.985586 -151.424412 
L 88.343063 -151.838486 
L 88.700541 -152.252324 
L 89.058018 -152.665859 
L 89.415495 -153.079029 
L 89.772973 -153.491767 
L 90.13045 -153.904008 
L 90.487928 -154.315686 
L 90.845405 -154.726737 
L 91.202883 -155.137093 
L 91.56036 -155.546689 
L 91.917838 -155.95546 
L 92.275315 -156.363337 
L 92.632793 -156.770256 
L 92.99027 -157.176149 
L 93.347748 -157.510193 
L 93.705225 -157.20695 
L 94.062703 -156.903808 
L 94.42018 -156.600843 
L 94.777658 -156.298129 
L 95.135135 -155.995742 
L 95.492613 -155.693755 
L 95.85009 -155.392246 
L 96.207568 -155.09129 
L 96.565045 -154.790962 
L 96.922523 -154.491339 
L 97.28 -154.192497 
L 97.637477 -153.894513 
L 97.994955 -153.597463 
L 98.352432 -153.301423 
L 98.70991 -153.006471 
L 99.067387 -152.712683 
L 99.424865 -152.420136 
L 99.782342 -152.128906 
L 100.13982 -151.839069 
L 100.497297 -151.550702 
L 100.854775 -151.263882 
L 101.212252 -150.978683 
L 101.56973 -150.695183 
L 101.927207 -150.413455 
L 102.284685 -150.133577 
L 102.642162 -149.855621 
L 102.99964 -149.579663 
L 103.357117 -149.305778 
L 103.714595 -149.034038 
L 104.072072 -148.764516 
L 104.42955 -148.497287 
L 104.787027 -148.232421 
L 105.144505 -147.96999 
L 105.501982 -147.710066 
L 105.859459 -147.452719 
L 106.216937 -147.198019 
L 106.574414 -146.946034 
L 106.931892 -146.696833 
L 107.289369 -146.450484 
L 107.646847 -146.207054 
L 108.004324 -145.966608 
L 108.361802 -145.729211 
L 108.719279 -145.494929 
L 109.076757 -145.263823 
L 109.434234 -145.035958 
L 109.791712 -144.811393 
L 110.149189 -144.59019 
L 110.506667 -144.372408 
L 110.864144 -144.158105 
L 111.221622 -143.947339 
L 111.579099 -143.740165 
L 111.936577 -143.536638 
L 112.294054 -143.336813 
L 112.651532 -143.140742 
L 113.009009 -142.948476 
L 113.366486 -142.760066 
L 113.723964 -142.575559 
L 114.081441 -142.395004 
L 114.438919 -142.218447 
L 114.796396 -142.045932 
L 115.153874 -141.877502 
L 115.511351 -141.713201 
L 115.868829 -141.553067 
L 116.226306 -141.397141 
L 116.583784 -141.245459 
L 116.941261 -141.098057 
L 117.298739 -140.954971 
L 117.656216 -140.816233 
L 118.013694 -140.681873 
L 118.371171 -140.551923 
L 118.728649 -140.42641 
L 119.086126 -140.30536 
L 119.443604 -140.188798 
L 119.801081 -140.076748 
L 120.158559 -139.96923 
L 120.516036 -139.866264 
L 120.873514 -139.767869 
L 121.230991 -139.674059 
L 121.588468 -139.58485 
L 121.945946 -139.500255 
L 122.303423 -139.420283 
L 122.660901 -139.344944 
L 123.018378 -139.274245 
L 123.375856 -139.208192 
L 123.733333 -139.146787 
L 124.090811 -139.090032 
L 124.448288 -139.037927 
L 124.805766 -138.99047 
L 125.163243 -138.947656 
L 125.520721 -138.90948 
L 125.878198 -138.875933 
L 126.235676 -138.847006 
L 126.593153 -138.822686 
L 126.950631 -138.802959 
L 127.308108 -138.787811 
L 127.665586 -138.777224 
L 128.023063 -138.771176 
L 128.380541 -138.769648 
L 128.738018 -138.772615 
L 129.095495 -138.780052 
L 129.452973 -138.791931 
L 129.81045 -138.808223 
L 130.167928 -138.828896 
L 130.525405 -138.853916 
L 130.882883 -138.883249 
L 131.24036 -138.916855 
L 131.597838 -138.954698 
L 131.955315 -138.996733 
L 132.312793 -139.04292 
L 132.67027 -139.093211 
L 133.027748 -139.147559 
L 133.385225 -139.205917 
L 133.742703 -139.268231 
L 134.10018 -139.334449 
L 134.457658 -139.404517 
L 134.815135 -139.478376 
L 135.172613 -139.555968 
L 135.53009 -139.637233 
L 135.887568 -139.722107 
L 136.245045 -139.810525 
L 136.602523 -139.902422 
L 136.96 -139.997729 
L 137.317477 -140.096376 
L 137.674955 -140.198291 
L 138.032432 -140.303399 
L 138.38991 -140.411626 
L 138.747387 -140.522894 
L 139.104865 -140.637124 
L 139.462342 -140.754235 
L 139.81982 -140.874144 
L 140.177297 -140.996767 
L 140.534775 -141.122018 
L 140.892252 -141.249809 
L 141.24973 -141.380051 
L 141.607207 -141.512652 
L 141.964685 -141.647522 
L 142.322162 -141.784564 
L 142.67964 -141.923684 
L 143.037117 -142.064785 
L 143.394595 -142.207767 
L 143.752072 -142.352531 
L 144.10955 -142.498975 
L 144.467027 -142.646995 
L 144.824505 -142.796489 
L 145.181982 -142.947349 
L 145.539459 -143.099469 
L 145.896937 -143.252741 
L 146.254414 -143.407054 
L 146.611892 -143.562298 
L 146.969369 -143.718362 
L 147.326847 -143.875131 
L 147.684324 -144.032491 
L 148.041802 -144.190328 
L 148.399279 -144.348524 
L 148.756757 -144.506962 
L 149.114234 -144.665524 
L 149.471712 -144.82409 
L 149.829189 -144.98254 
L 150.186667 -145.140753 
L 150.544144 -145.298606 
L 150.901622 -145.455978 
L 151.259099 -145.612744 
L 151.616577 -145.76878 
L 151.974054 -145.923961 
L 152.331532 -146.078162 
L 152.689009 -146.231256 
L 153.046486 -146.383117 
L 153.403964 -146.533619 
L 153.761441 -146.682632 
L 154.118919 -146.83003 
L 154.476396 -146.975683 
L 154.833874 -147.119464 
L 155.191351 -147.261243 
L 155.548829 -147.400891 
L 155.906306 -147.538279 
L 156.263784 -147.673278 
L 156.621261 -147.805757 
L 156.978739 -147.935588 
L 157.336216 -148.06264 
L 157.693694 -148.186785 
L 158.051171 -148.307893 
L 158.408649 -148.425834 
L 158.766126 -148.540481 
L 159.123604 -148.651703 
L 159.481081 -148.759373 
L 159.838559 -148.863363 
L 160.196036 -148.963544 
L 160.553514 -149.059791 
L 160.910991 -149.151975 
L 161.268468 -149.239972 
L 161.625946 -149.323656 
L 161.983423 -149.402901 
L 162.340901 -149.477584 
L 162.698378 -149.547582 
L 163.055856 -149.612772 
L 163.413333 -149.673032 
L 163.770811 -149.728242 
L 164.128288 -149.778282 
L 164.485766 -149.823033 
L 164.843243 -149.661684 
L 165.200721 -149.026857 
L 165.558198 -148.387034 
L 165.915676 -147.742276 
L 166.273153 -147.092649 
L 166.630631 -146.438215 
L 166.988108 -145.77904 
L 167.345586 -145.115191 
L 167.703063 -144.446737 
L 168.060541 -143.773745 
L 168.418018 -143.096286 
L 168.775495 -142.414433 
L 169.132973 -141.728258 
L 169.49045 -141.037834 
L 169.847928 -140.343237 
L 170.205405 -139.644544 
L 170.562883 -138.941832 
L 170.92036 -138.235179 
L 171.277838 -137.524667 
L 171.635315 -136.810376 
L 171.992793 -136.092388 
L 172.35027 -135.370788 
L 172.707748 -134.64566 
L 173.065225 -133.91709 
L 173.422703 -133.185166 
L 173.78018 -132.449976 
L 174.137658 -131.711609 
L 174.495135 -130.970156 
L 174.852613 -130.225709 
L 175.21009 -129.478362 
L 175.567568 -128.728208 
L 175.925045 -127.975343 
L 176.282523 -127.219864 
L 176.64 -126.461868 
L 176.997477 -125.701454 
L 177.354955 -124.938722 
L 177.712432 -124.173772 
L 178.06991 -123.406708 
L 178.427387 -122.637633 
L 178.784865 -121.86665 
L 179.142342 -121.093865 
L 179.49982 -120.319384 
L 179.857297 -119.543315 
L 180.214775 -118.765767 
L 180.572252 -117.986849 
L 180.92973 -117.206671 
L 181.287207 -116.425345 
L 181.644685 -115.642983 
L 182.002162 -114.8597 
L 182.35964 -114.075608 
L 182.717117 -113.290824 
L 183.074595 -112.505463 
L 183.432072 -111.719644 
L 183.78955 -110.933482 
L 184.147027 -110.147099 
L 184.504505 -109.360612 
L 184.861982 -108.574143 
L 185.219459 -107.787813 
L 185.576937 -107.001744 
L 185.934414 -106.216058 
L 186.291892 -105.430879 
L 186.649369 -104.646331 
L 187.006847 -103.862539 
L 187.364324 -103.079629 
L 187.721802 -102.297726 
L 188.079279 -101.516957 
L 188.436757 -100.73745 
L 188.794234 -99.959332 
L 189.151712 -99.182732 
L 189.509189 -98.407779 
L 189.866667 -97.634601 
L 190.224144 -96.863329 
L 190.581622 -96.094093 
L 190.939099 -95.327023 
L 191.296577 -94.56225 
L 191.654054 -93.799905 
L 192.011532 -93.04012 
L 192.369009 -92.283026 
L 192.726486 -91.528755 
L 193.083964 -90.777439 
L 193.441441 -90.029211 
L 193.798919 -89.284202 
L 194.156396 -88.542545 
L 194.513874 -87.804373 
L 194.871351 -87.069817 
L 195.228829 -86.33901 
L 195.586306 -85.612085 
L 195.943784 -84.889173 
L 196.301261 -84.170407 
L 196.658739 -83.455918 
L 197.016216 -82.745837 
L 197.373694 -82.040297 
L 197.731171 -81.339428 
L 198.088649 -80.64336 
L 198.446126 -79.952224 
L 198.803604 -79.266149 
L 199.161081 -78.585266 
L 199.518559 -77.909701 
L 199.876036 -77.239585 
L 200.233514 -76.575044 
L 200.590991 -75.916205 
L 200.948468 -75.263194 
L 201.305946 -74.616137 
L 201.663423 -73.975159 
L 202.020901 -73.340383 
L 202.378378 -72.711933 
L 202.735856 -72.08993 
L 203.093333 -71.474496 
L 203.450811 -70.86575 
L 203.808288 -70.263813 
L 204.165766 -69.668801 
L 204.523243 -69.080831 
L 204.880721 -68.50002 
L 205.238198 -67.926481 
L 205.595676 -67.360329 
L 205.953153 -66.801673 
L 206.310631 -66.250626 
L 206.668108 -65.707297 
L 207.025586 -65.171792 
L 207.383063 -64.644218 
L 207.740541 -64.124679 
L 208.098018 -63.61328 
L 208.455495 -63.11012 
L 208.812973 -62.615301 
L 209.17045 -62.128919 
L 209.527928 -61.651072 
L 209.885405 -61.181854 
L 210.242883 -60.721357 
L 210.60036 -60.269673 
L 210.957838 -59.82689 
L 211.315315 -59.393096 
L 211.672793 -58.968376 
L 212.03027 -58.552813 
L 212.387748 -58.146487 
L 212.745225 -57.749478 
L 213.102703 -57.361863 
L 213.46018 -56.983716 
L 213.817658 -56.61511 
L 214.175135 -56.256115 
L 214.532613 -55.9068 
L 214.89009 -55.567229 
L 215.247568 -55.237467 
L 215.605045 -54.917575 
L 215.962523 -54.607611 
L 216.32 -54.307631 
L 216.677477 -54.017691 
L 217.034955 -53.737841 
L 217.392432 -53.468131 
L 217.74991 -53.208606 
L 218.107387 -52.959312 
L 218.464865 -52.72029 
L 218.822342 -52.491579 
L 219.17982 -52.273215 
L 219.537297 -52.065232 
L 219.894775 -51.867662 
L 220.252252 -51.680534 
L 220.60973 -51.503873 
L 220.967207 -51.337703 
L 221.324685 -51.182045 
L 221.682162 -51.036918 
L 222.03964 -50.902336 
L 222.397117 -50.778313 
L 222.754595 -50.66486 
L 223.112072 -50.561983 
L 223.46955 -50.469688 
L 223.827027 -50.387977 
L 224.184505 -50.31685 
L 224.541982 -50.256304 
L 224.899459 -50.206333 
L 225.256937 -50.16693 
L 225.614414 -50.138082 
L 225.971892 -50.119778 
L 226.329369 -50.112 
L 226.686847 -50.11473 
L 227.044324 -50.127947 
L 227.401802 -50.151628 
L 227.759279 -50.185745 
L 228.116757 -50.23027 
L 228.474234 -50.285171 
L 228.831712 -50.350415 
L 229.189189 -50.425966 
L 229.546667 -50.511784 
L 229.904144 -50.607829 
L 230.261622 -50.714057 
L 230.619099 -50.830423 
L 230.976577 -50.956877 
L 231.334054 -51.09337 
L 231.691532 -51.239849 
L 232.049009 -51.396259 
L 232.406486 -51.562544 
L 232.763964 -51.738643 
L 233.121441 -51.924496 
L 233.478919 -52.120039 
L 233.836396 -52.325207 
L 234.193874 -52.539932 
L 234.551351 -52.764146 
L 234.908829 -52.997777 
L 235.266306 -53.240752 
L 235.623784 -53.492996 
L 235.981261 -53.754433 
L 236.338739 -53.802542 
L 236.696216 -53.641494 
L 237.053694 -53.49522 
L 237.411171 -53.363822 
L 237.768649 -53.247393 
L 238.126126 -53.146027 
L 238.483604 -53.05981 
L 238.841081 -52.988827 
L 239.198559 -52.933158 
L 239.556036 -52.892878 
L 239.913514 -52.86806 
L 240.270991 -52.858773 
L 240.628468 -52.865079 
L 240.985946 -52.887041 
L 241.343423 -52.924712 
L 241.700901 -52.978147 
L 242.058378 -53.047393 
L 242.415856 -53.132493 
L 242.773333 -53.233489 
L 243.130811 -53.350416 
L 243.488288 -53.483306 
L 243.845766 -53.632188 
L 244.203243 -53.797085 
L 244.560721 -53.978017 
L 244.918198 -54.175 
L 245.275676 -54.388046 
L 245.633153 -54.617163 
L 245.990631 -54.862355 
L 246.348108 -55.123622 
L 246.705586 -55.400961 
L 247.063063 -55.694362 
L 247.420541 -56.003815 
L 247.778018 -56.329303 
L 248.135495 -56.670808 
L 248.492973 -57.028305 
L 248.85045 -57.401768 
L 249.207928 -57.791165 
L 249.565405 -58.196462 
L 249.922883 -58.617621 
L 250.28036 -59.054598 
L 250.637838 -59.507349 
L 250.995315 -59.975823 
L 251.352793 -60.459968 
L 251.71027 -60.959727 
L 252.067748 -61.475039 
L 252.425225 -62.005842 
L 252.782703 -62.552068 
L 253.14018 -63.113645 
L 253.497658 -63.690502 
L 253.855135 -64.28256 
L 254.212613 -64.889739 
L 254.57009 -65.511955 
L 254.927568 -66.149121 
L 255.285045 -66.801148 
L 255.642523 -67.467942 
L 256 -68.149407 
L 256.357477 -68.845445 
L 256.714955 -69.555953 
L 257.072432 -70.280826 
L 257.42991 -71.019957 
L 257.787387 -71.773235 
L 258.144865 -72.540547 
L 258.502342 -73.321777 
L 258.85982 -74.116807 
L 259.217297 -74.925516 
L 259.574775 -75.747781 
L 259.932252 -76.583475 
L 260.28973 -77.43247 
L 260.647207 -78.294636 
L 261.004685 -79.169839 
L 261.362162 -80.057945 
L 261.71964 -80.958817 
L 262.077117 -81.872315 
L 262.434595 -82.798298 
L 262.792072 -83.736622 
L 263.14955 -84.687143 
L 263.507027 -85.649712 
L 263.864505 -86.624182 
L 264.221982 -87.610402 
L 264.579459 -88.608218 
L 264.936937 -89.617478 
L 265.294414 -90.638026 
L 265.651892 -91.669704 
L 266.009369 -92.712355 
L 266.366847 -93.765817 
L 266.724324 -94.829931 
L 267.081802 -95.904532 
L 267.439279 -96.989458 
L 267.796757 -98.084543 
L 268.154234 -99.189621 
L 268.511712 -100.304525 
L 268.869189 -101.429087 
L 269.226667 -102.563137 
L 269.584144 -103.706504 
L 269.941622 -104.859018 
L 270.299099 -106.020507 
L 270.656577 -107.190798 
L 271.014054 -108.369718 
L 271.371532 -109.557091 
L 271.729009 -110.752744 
L 272.086486 -111.687522 
L 272.443964 -112.446565 
L 272.801441 -113.208093 
L 273.158919 -113.972119 
L 273.516396 -114.738659 
L 273.873874 -115.507729 
L 274.231351 -116.279345 
L 274.588829 -117.053529 
L 274.946306 -117.830298 
L 275.303784 -118.609676 
L 275.661261 -119.391684 
L 276.018739 -120.176347 
L 276.376216 -120.963688 
L 276.733694 -121.753734 
L 277.091171 -122.546511 
L 277.448649 -123.342048 
L 277.806126 -124.140371 
L 278.163604 -124.941511 
L 278.521081 -125.745496 
L 278.878559 -126.552358 
L 279.236036 -127.362127 
L 279.593514 -128.174834 
L 279.950991 -128.990512 
L 280.308468 -129.809192 
L 280.665946 -130.630907 
L 281.023423 -131.455689 
L 281.380901 -132.283571 
L 281.738378 -133.114585 
L 282.095856 -133.948765 
L 282.453333 -134.786143 
L 282.810811 -135.626752 
L 283.168288 -136.470624 
L 283.525766 -137.31779 
L 283.883243 -138.168282 
L 284.240721 -139.022132 
L 284.598198 -139.87937 
L 284.955676 -140.740026 
L 285.313153 -141.60413 
L 285.670631 -142.471709 
L 286.028108 -143.342792 
L 286.385586 -144.217405 
L 286.743063 -145.095575 
L 287.100541 -145.977326 
L 287.458018 -146.862682 
L 287.815495 -147.751665 
L 288.172973 -148.644298 
L 288.53045 -149.540599 
L 288.887928 -150.440588 
L 289.245405 -151.344282 
L 289.602883 -152.251696 
L 289.96036 -153.162845 
L 290.317838 -154.07774 
L 290.675315 -154.996392 
L 291.032793 -155.918811 
L 291.39027 -156.845003 
L 291.747748 -157.774974 
L 292.105225 -158.708726 
L 292.462703 -159.64626 
L 292.82018 -160.587576 
L 293.177658 -161.532671 
L 293.535135 -162.481538 
L 293.892613 -163.434171 
L 294.25009 -164.390559 
L 294.607568 -165.35069 
L 294.965045 -166.314549 
L 295.322523 -167.282119 
L 295.68 -168.253381 
L 296.037477 -169.228312 
L 296.394955 -170.206886 
L 296.752432 -171.189077 
L 297.10991 -172.174855 
L 297.467387 -173.164186 
L 297.824865 -174.157034 
L 298.182342 -175.153361 
L 298.53982 -176.153126 
L 298.897297 -177.156284 
L 299.254775 -178.162789 
L 299.612252 -179.17259 
L 299.96973 -180.185634 
L 300.327207 -181.201865 
L 300.684685 -182.221225 
L 301.042162 -183.243651 
L 301.39964 -184.269079 
L 301.757117 -185.29744 
L 302.114595 -186.328664 
L 302.472072 -187.362677 
L 302.82955 -188.3994 
L 303.187027 -189.438755 
L 303.544505 -190.480657 
L 303.901982 -191.525021 
L 304.259459 -192.571757 
L 304.616937 -193.620772 
L 304.974414 -194.671971 
L 305.331892 -195.725255 
L 305.689369 -196.780522 
L 306.046847 -197.837669 
L 306.404324 -198.896587 
L 306.761802 -199.957165 
L 307.119279 -201.019289 
L 307.476757 -202.082844 
L 307.834234 -203.14771 
L 308.191712 -204.213763 
L 308.549189 -205.280879 
L 308.906667 -206.348929 
L 309.264144 -207.417782 
L 309.621622 -208.487305 
L 309.979099 -209.557361 
L 310.336577 -210.62781 
L 310.694054 -211.698511 
L 311.051532 -212.769319 
L 311.409009 -213.840087 
L 311.766486 -214.910665 
L 312.123964 -215.980901 
L 312.481441 -217.050641 
L 312.838919 -218.119728 
L 313.196396 -219.188002 
L 313.553874 -220.255302 
L 313.911351 -221.321464 
L 314.268829 -222.386322 
L 314.626306 -223.449709 
L 314.983784 -224.511454 
L 315.341261 -225.571386 
L 315.698739 -226.62933 
L 316.056216 -227.685112 
L 316.413694 -228.738554 
L 316.771171 -229.789478 
L 317.128649 -230.837701 
L 317.486126 -231.883044 
L 317.843604 -232.925321 
L 318.201081 -233.964349 
L 318.558559 -234.99994 
L 318.916036 -236.031909 
L 319.273514 -237.060066 
L 319.630991 -238.084223 
L 319.988468 -239.104188 
L 320.345946 -240.119771 
L 320.703423 -241.130779 
L 321.060901 -242.137021 
L 321.418378 -243.138302 
L 321.775856 -244.134429 
L 322.133333 -245.125208 
L 322.490811 -246.110445 
L 322.848288 -247.089945 
L 323.205766 -248.063512 
L 323.563243 -249.030953 
L 323.920721 -249.992072 
L 324.278198 -250.946675 
L 324.635676 -251.894567 
L 324.993153 -252.835555 
L 325.350631 -253.769444 
L 325.708108 -254.696042 
L 326.065586 -255.615157 
L 326.423063 -256.526595 
L 326.780541 -257.430167 
L 327.138018 -258.325682 
L 327.495495 -259.212952 
L 327.852973 -260.091788 
L 328.21045 -260.962004 
L 328.567928 -261.823414 
L 328.925405 -262.675835 
L 329.282883 -263.519083 
L 329.64036 -264.352977 
L 329.997838 -265.177339 
L 330.355315 -265.99199 
L 330.712793 -266.796756 
L 331.07027 -267.591461 
L 331.427748 -268.375934 
L 331.785225 -269.150005 
L 332.142703 -269.913507 
L 332.50018 -270.666275 
L 332.857658 -271.408146 
L 333.215135 -272.138959 
L 333.572613 -272.858556 
L 333.93009 -273.566782 
L 334.287568 -274.263485 
L 334.645045 -274.948515 
L 335.002523 -275.621724 
L 335.36 -276.28297 
L 335.717477 -276.93211 
L 336.074955 -277.569006 
L 336.432432 -278.193525 
L 336.78991 -278.805535 
L 337.147387 -279.404906 
L 337.504865 -279.991515 
L 337.862342 -280.56524 
L 338.21982 -281.125963 
L 338.577297 -281.673569 
L 338.934775 -282.207948 
L 339.292252 -282.728992 
L 339.64973 -283.236598 
L 340.007207 -283.730667 
L 340.364685 -284.211102 
L 340.722162 -284.677811 
L 341.07964 -285.130707 
L 341.437117 -285.569706 
L 341.794595 -285.994727 
L 342.152072 -286.405694 
L 342.50955 -286.802536 
L 342.867027 -287.185184 
L 343.224505 -287.553575 
L 343.581982 -287.349443 
L 343.939459 -286.990099 
L 344.296937 -286.615041 
L 344.654414 -286.224366 
L 345.011892 -285.818178 
L 345.369369 -285.396585 
L 345.726847 -284.959696 
L 346.084324 -284.507627 
L 346.441802 -284.040494 
L 346.799279 -283.558419 
L 347.156757 -283.061527 
L 347.514234 -282.549946 
L 347.871712 -282.023808 
L 348.229189 -281.483248 
L 348.586667 -280.928404 
L 348.944144 -280.359418 
L 349.301622 -279.776435 
L 349.659099 -279.179603 
L 350.016577 -278.569074 
L 350.374054 -277.945002 
L 350.731532 -277.307544 
L 351.089009 -276.656862 
L 351.446486 -275.993117 
L 351.803964 -275.316477 
L 352.161441 -274.627111 
L 352.518919 -273.92519 
L 352.876396 -273.21089 
L 353.233874 -272.484387 
L 353.591351 -271.74586 
L 353.948829 -270.995493 
L 354.306306 -270.23347 
L 354.663784 -269.459978 
L 355.021261 -268.675206 
L 355.378739 -267.879346 
L 355.736216 -267.072591 
L 356.093694 -266.255138 
L 356.451171 -265.427184 
L 356.808649 -264.588929 
L 357.166126 -263.740573 
L 357.523604 -262.882322 
L 357.881081 -262.014379 
L 358.238559 -261.136952 
L 358.596036 -260.250248 
L 358.953514 -259.354478 
L 359.310991 -258.449851 
L 359.668468 -257.536582 
L 360.025946 -256.614882 
L 360.383423 -255.684967 
L 360.740901 -254.747053 
L 361.098378 -253.801357 
L 361.455856 -252.848095 
L 361.813333 -251.887487 
L 362.170811 -250.919752 
L 362.528288 -249.945109 
L 362.885766 -248.963779 
L 363.243243 -247.975984 
L 363.600721 -246.981943 
L 363.958198 -245.981879 
L 364.315676 -244.976014 
L 364.673153 -243.964569 
L 365.030631 -242.947767 
L 365.388108 -241.92583 
L 365.745586 -240.89898 
L 366.103063 -239.867439 
L 366.460541 -238.831428 
L 366.818018 -237.791168 
L 367.175495 -236.746881 
L 367.532973 -235.698786 
L 367.89045 -234.647104 
L 368.247928 -233.592054 
L 368.605405 -232.533854 
L 368.962883 -231.472722 
L 369.32036 -230.408874 
L 369.677838 -229.342527 
L 370.035315 -228.273895 
L 370.392793 -227.203192 
L 370.75027 -226.130631 
L 371.107748 -225.056423 
L 371.465225 -223.980778 
L 371.822703 -222.903905 
L 372.18018 -221.826012 
L 372.537658 -220.747303 
L 372.895135 -219.667983 
L 373.252613 -218.588256 
L 373.61009 -217.508321 
L 373.967568 -216.428378 
L 374.325045 -215.348625 
L 374.682523 -214.269256 
L 375.04 -213.190466 
L 375.397477 -212.112446 
L 375.754955 -211.035387 
L 376.112432 -209.959474 
L 376.46991 -208.884894 
L 376.827387 -207.811831 
L 377.184865 -206.740464 
L 377.542342 -205.670974 
L 377.89982 -204.603535 
L 378.257297 -203.538323 
L 378.614775 -202.475509 
L 378.972252 -201.415262 
L 379.32973 -200.357749 
L 379.687207 -199.303134 
L 380.044685 -198.251578 
L 380.402162 -197.203242 
L 380.75964 -196.158281 
L 381.117117 -195.116849 
L 381.474595 -194.079097 
L 381.832072 -193.045174 
L 382.18955 -192.015226 
L 382.547027 -190.989395 
L 382.904505 -189.967821 
L 383.261982 -188.950642 
L 383.619459 -187.937992 
L 383.976937 -186.930003 
L 384.334414 -185.926804 
L 384.691892 -184.928521 
L 385.049369 -183.935276 
L 385.406847 -182.947191 
L 385.764324 -181.964382 
L 386.121802 -180.986963 
L 386.479279 -180.015047 
L 386.836757 -179.048742 
L 387.194234 -178.088152 
L 387.551712 -177.133381 
L 387.909189 -176.184529 
L 388.266667 -175.241693 
L 388.624144 -174.304965 
L 388.981622 -173.374438 
L 389.339099 -172.450199 
L 389.696577 -171.532333 
L 390.054054 -170.620922 
L 390.411532 -169.716046 
L 390.769009 -168.817781 
L 391.126486 -167.9262 
L 391.483964 -167.041374 
L 391.841441 -166.163372 
L 392.198919 -165.292257 
L 392.556396 -164.428092 
L 392.913874 -163.570936 
L 393.271351 -162.720845 
L 393.628829 -161.877874 
L 393.986306 -161.042073 
L 394.343784 -160.213491 
L 394.701261 -159.392173 
L 395.058739 -158.578161 
L 395.416216 -157.771497 
L 395.773694 -156.972217 
L 396.131171 -156.180357 
L 396.488649 -155.395948 
L 396.846126 -154.619022 
L 397.203604 -153.849604 
L 397.561081 -153.087719 
L 397.918559 -152.333391 
L 398.276036 -151.586639 
L 398.633514 -150.84748 
L 398.990991 -150.115929 
L 399.348468 -149.391999 
L 399.705946 -148.675701 
L 400.063423 -147.967042 
L 400.420901 -147.266029 
L 400.778378 -146.572665 
L 401.135856 -145.886952 
L 401.493333 -145.208889 
L 401.850811 -144.538474 
L 402.208288 -143.875701 
L 402.565766 -143.220565 
L 402.923243 -142.573055 
L 403.280721 -141.933162 
L 403.638198 -141.300872 
L 403.995676 -140.676172 
L 404.353153 -140.059044 
L 404.710631 -139.449471 
L 405.068108 -138.847433 
L 405.425586 -138.252908 
L 405.783063 -137.665872 
L 406.140541 -137.086301 
L 406.498018 -136.514169 
L 406.855495 -135.949446 
L 407.212973 -135.392104 
L 407.57045 -134.84211 
L 407.927928 -134.299433 
L 408.285405 -133.764038 
L 408.642883 -133.235891 
L 409.00036 -132.714953 
L 409.357838 -132.201187 
L 409.715315 -131.694555 
L 410.072793 -131.195014 
L 410.43027 -130.702524 
L 410.787748 -130.217041 
L 411.145225 -129.738522 
L 411.502703 -129.266922 
L 411.86018 -128.802194 
L 412.217658 -128.344291 
L 412.575135 -127.893166 
L 412.932613 -127.448769 
L 413.29009 -127.011051 
L 413.647568 -126.57996 
L 414.005045 -126.155445 
L 414.362523 -125.737454 
L 414.72 -125.325935 
L 414.72 -198.194348 
L 414.72 -198.194348 
L 414.362523 -198.577439 
L 414.005045 -198.965984 
L 413.647568 -199.360004 
L 413.29009 -199.759523 
L 412.932613 -200.16456 
L 412.575135 -200.575134 
L 412.217658 -200.991262 
L 411.86018 -201.412962 
L 411.502703 -201.840245 
L 411.145225 -202.273127 
L 410.787748 -202.711617 
L 410.43027 -203.155725 
L 410.072793 -203.60546 
L 409.715315 -204.060826 
L 409.357838 -204.521828 
L 409.00036 -204.988469 
L 408.642883 -205.46075 
L 408.285405 -205.938668 
L 407.927928 -206.422221 
L 407.57045 -206.911403 
L 407.212973 -207.406209 
L 406.855495 -207.906627 
L 406.498018 -208.412648 
L 406.140541 -208.924257 
L 405.783063 -209.44144 
L 405.425586 -209.964179 
L 405.068108 -210.492454 
L 404.710631 -211.026244 
L 404.353153 -211.565524 
L 403.995676 -212.110267 
L 403.638198 -212.660446 
L 403.280721 -213.216029 
L 402.923243 -213.776983 
L 402.565766 -214.343272 
L 402.208288 -214.914857 
L 401.850811 -215.491699 
L 401.493333 -216.073755 
L 401.135856 -216.660978 
L 400.778378 -217.253322 
L 400.420901 -217.850735 
L 400.063423 -218.453165 
L 399.705946 -219.060556 
L 399.348468 -219.67285 
L 398.990991 -220.289987 
L 398.633514 -220.911903 
L 398.276036 -221.538533 
L 397.918559 -222.169808 
L 397.561081 -222.805657 
L 397.203604 -223.446006 
L 396.846126 -224.09078 
L 396.488649 -224.739899 
L 396.131171 -225.393282 
L 395.773694 -226.050844 
L 395.416216 -226.712498 
L 395.058739 -227.378155 
L 394.701261 -228.047723 
L 394.343784 -228.721106 
L 393.986306 -229.398208 
L 393.628829 -230.078927 
L 393.271351 -230.763161 
L 392.913874 -231.450805 
L 392.556396 -232.141749 
L 392.198919 -232.835884 
L 391.841441 -233.533096 
L 391.483964 -234.233269 
L 391.126486 -234.936285 
L 390.769009 -235.642021 
L 390.411532 -236.350355 
L 390.054054 -237.061159 
L 389.696577 -237.774306 
L 389.339099 -238.489664 
L 388.981622 -239.207099 
L 388.624144 -239.926475 
L 388.266667 -240.647653 
L 387.909189 -241.370492 
L 387.551712 -242.094848 
L 387.194234 -242.820577 
L 386.836757 -243.54753 
L 386.479279 -244.275555 
L 386.121802 -245.004502 
L 385.764324 -245.734216 
L 385.406847 -246.464538 
L 385.049369 -247.19531 
L 384.691892 -247.926372 
L 384.334414 -248.65756 
L 383.976937 -249.388709 
L 383.619459 -250.119651 
L 383.261982 -250.850218 
L 382.904505 -251.58024 
L 382.547027 -252.309543 
L 382.18955 -253.037953 
L 381.832072 -253.765295 
L 381.474595 -254.49139 
L 381.117117 -255.216059 
L 380.75964 -255.939123 
L 380.402162 -256.660398 
L 380.044685 -257.379701 
L 379.687207 -258.096848 
L 379.32973 -258.811651 
L 378.972252 -259.523924 
L 378.614775 -260.233479 
L 378.257297 -260.940126 
L 377.89982 -261.643674 
L 377.542342 -262.343931 
L 377.184865 -263.040707 
L 376.827387 -263.733807 
L 376.46991 -264.423037 
L 376.112432 -265.108204 
L 375.754955 -265.789112 
L 375.397477 -266.465566 
L 375.04 -267.137369 
L 374.682523 -267.804326 
L 374.325045 -268.466241 
L 373.967568 -269.122915 
L 373.61009 -269.774154 
L 373.252613 -270.419759 
L 372.895135 -271.059534 
L 372.537658 -271.693283 
L 372.18018 -272.320809 
L 371.822703 -272.941917 
L 371.465225 -273.55641 
L 371.107748 -274.164093 
L 370.75027 -274.764772 
L 370.392793 -275.358253 
L 370.035315 -275.944342 
L 369.677838 -276.522848 
L 369.32036 -277.093578 
L 368.962883 -277.656342 
L 368.605405 -278.210951 
L 368.247928 -278.757216 
L 367.89045 -279.294951 
L 367.532973 -279.823969 
L 367.175495 -280.344086 
L 366.818018 -280.85512 
L 366.460541 -281.356889 
L 366.103063 -281.849214 
L 365.745586 -282.331916 
L 365.388108 -282.80482 
L 365.030631 -283.267752 
L 364.673153 -283.72054 
L 364.315676 -284.163013 
L 363.958198 -284.595004 
L 363.600721 -285.016347 
L 363.243243 -285.426879 
L 362.885766 -285.826439 
L 362.528288 -286.214868 
L 362.170811 -286.592012 
L 361.813333 -286.957716 
L 361.455856 -287.31183 
L 361.098378 -287.654207 
L 360.740901 -287.984701 
L 360.383423 -288.303171 
L 360.025946 -288.609477 
L 359.668468 -288.903485 
L 359.310991 -289.185061 
L 358.953514 -289.454075 
L 358.596036 -289.710402 
L 358.238559 -289.953918 
L 357.881081 -290.184505 
L 357.523604 -290.402046 
L 357.166126 -290.606428 
L 356.808649 -290.797543 
L 356.451171 -290.975286 
L 356.093694 -291.139554 
L 355.736216 -291.29025 
L 355.378739 -291.427281 
L 355.021261 -291.550554 
L 354.663784 -291.659986 
L 354.306306 -291.755492 
L 353.948829 -291.836995 
L 353.591351 -291.90442 
L 353.233874 -291.957698 
L 352.876396 -291.996761 
L 352.518919 -292.021547 
L 352.161441 -292.032 
L 351.803964 -292.028065 
L 351.446486 -292.009692 
L 351.089009 -291.976838 
L 350.731532 -291.929459 
L 350.374054 -291.867521 
L 350.016577 -291.790991 
L 349.659099 -291.699841 
L 349.301622 -291.594047 
L 348.944144 -291.47359 
L 348.586667 -291.338456 
L 348.229189 -291.188634 
L 347.871712 -291.024118 
L 347.514234 -290.844906 
L 347.156757 -290.651002 
L 346.799279 -290.442413 
L 346.441802 -290.21915 
L 346.084324 -289.98123 
L 345.726847 -289.728673 
L 345.369369 -289.461503 
L 345.011892 -289.179751 
L 344.654414 -288.88345 
L 344.296937 -288.572637 
L 343.939459 -288.247355 
L 343.581982 -287.907651 
L 343.224505 -287.692976 
L 342.867027 -288.020604 
L 342.50955 -288.33224 
L 342.152072 -288.627801 
L 341.794595 -288.907204 
L 341.437117 -289.170374 
L 341.07964 -289.417236 
L 340.722162 -289.647722 
L 340.364685 -289.861766 
L 340.007207 -290.059308 
L 339.64973 -290.240288 
L 339.292252 -290.404653 
L 338.934775 -290.552355 
L 338.577297 -290.683345 
L 338.21982 -290.797583 
L 337.862342 -290.895029 
L 337.504865 -290.97565 
L 337.147387 -291.039415 
L 336.78991 -291.086298 
L 336.432432 -291.116274 
L 336.074955 -291.129326 
L 335.717477 -291.125438 
L 335.36 -291.104598 
L 335.002523 -291.066799 
L 334.645045 -291.012037 
L 334.287568 -290.940311 
L 333.93009 -290.851626 
L 333.572613 -290.745988 
L 333.215135 -290.623409 
L 332.857658 -290.483902 
L 332.50018 -290.327487 
L 332.142703 -290.154183 
L 331.785225 -289.964018 
L 331.427748 -289.757019 
L 331.07027 -289.533219 
L 330.712793 -289.292654 
L 330.355315 -289.035362 
L 329.997838 -288.761386 
L 329.64036 -288.470772 
L 329.282883 -288.163568 
L 328.925405 -287.839828 
L 328.567928 -287.499606 
L 328.21045 -287.142962 
L 327.852973 -286.769957 
L 327.495495 -286.380656 
L 327.138018 -285.975126 
L 326.780541 -285.55344 
L 326.423063 -285.11567 
L 326.065586 -284.661893 
L 325.708108 -284.192188 
L 325.350631 -283.706639 
L 324.993153 -283.20533 
L 324.635676 -282.688349 
L 324.278198 -282.155786 
L 323.920721 -281.607734 
L 323.563243 -281.044288 
L 323.205766 -280.465547 
L 322.848288 -279.871611 
L 322.490811 -279.262583 
L 322.133333 -278.638567 
L 321.775856 -277.999671 
L 321.418378 -277.346005 
L 321.060901 -276.67768 
L 320.703423 -275.994811 
L 320.345946 -275.297512 
L 319.988468 -274.585902 
L 319.630991 -273.860102 
L 319.273514 -273.120231 
L 318.916036 -272.366415 
L 318.558559 -271.598778 
L 318.201081 -270.817448 
L 317.843604 -270.022553 
L 317.486126 -269.214224 
L 317.128649 -268.392593 
L 316.771171 -267.557794 
L 316.413694 -266.709961 
L 316.056216 -265.849232 
L 315.698739 -264.975744 
L 315.341261 -264.089636 
L 314.983784 -263.19105 
L 314.626306 -262.280126 
L 314.268829 -261.357009 
L 313.911351 -260.421842 
L 313.553874 -259.474771 
L 313.196396 -258.515942 
L 312.838919 -257.545503 
L 312.481441 -256.563603 
L 312.123964 -255.57039 
L 311.766486 -254.566016 
L 311.409009 -253.550631 
L 311.051532 -252.524388 
L 310.694054 -251.487439 
L 310.336577 -250.43994 
L 309.979099 -249.382043 
L 309.621622 -248.313904 
L 309.264144 -247.23568 
L 308.906667 -246.147526 
L 308.549189 -245.049601 
L 308.191712 -243.942061 
L 307.834234 -242.825065 
L 307.476757 -241.698772 
L 307.119279 -240.563341 
L 306.761802 -239.418933 
L 306.404324 -238.265707 
L 306.046847 -237.103825 
L 305.689369 -235.933447 
L 305.331892 -234.754736 
L 304.974414 -233.567852 
L 304.616937 -232.37296 
L 304.259459 -231.170221 
L 303.901982 -229.959798 
L 303.544505 -228.741855 
L 303.187027 -227.516556 
L 302.82955 -226.284064 
L 302.472072 -225.044544 
L 302.114595 -223.79816 
L 301.757117 -222.545078 
L 301.39964 -221.285462 
L 301.042162 -220.019477 
L 300.684685 -218.74729 
L 300.327207 -217.469065 
L 299.96973 -216.184969 
L 299.612252 -214.895168 
L 299.254775 -213.599829 
L 298.897297 -212.299118 
L 298.53982 -210.993202 
L 298.182342 -209.682247 
L 297.824865 -208.366423 
L 297.467387 -207.045895 
L 297.10991 -205.720831 
L 296.752432 -204.3914 
L 296.394955 -203.05777 
L 296.037477 -201.720108 
L 295.68 -200.378584 
L 295.322523 -199.033365 
L 294.965045 -197.684622 
L 294.607568 -196.332523 
L 294.25009 -194.977237 
L 293.892613 -193.618935 
L 293.535135 -192.257786 
L 293.177658 -190.89396 
L 292.82018 -189.527628 
L 292.462703 -188.158959 
L 292.105225 -186.788126 
L 291.747748 -185.415298 
L 291.39027 -184.040648 
L 291.032793 -182.664346 
L 290.675315 -181.286566 
L 290.317838 -179.907478 
L 289.96036 -178.527255 
L 289.602883 -177.14607 
L 289.245405 -175.764096 
L 288.887928 -174.381506 
L 288.53045 -172.998473 
L 288.172973 -171.615172 
L 287.815495 -170.231776 
L 287.458018 -168.84846 
L 287.100541 -167.465398 
L 286.743063 -166.082765 
L 286.385586 -164.700737 
L 286.028108 -163.319489 
L 285.670631 -161.939197 
L 285.313153 -160.560037 
L 284.955676 -159.182185 
L 284.598198 -157.805819 
L 284.240721 -156.431114 
L 283.883243 -155.058248 
L 283.525766 -153.687399 
L 283.168288 -152.318744 
L 282.810811 -150.952461 
L 282.453333 -149.588729 
L 282.095856 -148.227726 
L 281.738378 -146.869631 
L 281.380901 -145.514622 
L 281.023423 -144.162879 
L 280.665946 -142.81458 
L 280.308468 -141.469906 
L 279.950991 -140.129036 
L 279.593514 -138.79215 
L 279.236036 -137.459427 
L 278.878559 -136.131047 
L 278.521081 -134.807192 
L 278.163604 -133.48804 
L 277.806126 -132.173772 
L 277.448649 -130.864567 
L 277.091171 -129.560608 
L 276.733694 -128.262073 
L 276.376216 -126.969142 
L 276.018739 -125.681996 
L 275.661261 -124.400814 
L 275.303784 -123.125777 
L 274.946306 -121.857064 
L 274.588829 -120.594855 
L 274.231351 -119.339328 
L 273.873874 -118.090663 
L 273.516396 -116.849038 
L 273.158919 -115.614632 
L 272.801441 -114.387622 
L 272.443964 -113.168186 
L 272.086486 -111.956502 
L 271.729009 -110.930954 
L 271.371532 -110.176847 
L 271.014054 -109.425195 
L 270.656577 -108.675991 
L 270.299099 -107.929228 
L 269.941622 -107.184903 
L 269.584144 -106.443015 
L 269.226667 -105.703563 
L 268.869189 -104.966549 
L 268.511712 -104.231977 
L 268.154234 -103.499851 
L 267.796757 -102.770179 
L 267.439279 -102.042971 
L 267.081802 -101.318238 
L 266.724324 -100.595993 
L 266.366847 -99.876251 
L 266.009369 -99.15903 
L 265.651892 -98.444348 
L 265.294414 -97.732227 
L 264.936937 -97.02269 
L 264.579459 -96.315763 
L 264.221982 -95.611474 
L 263.864505 -94.909851 
L 263.507027 -94.210927 
L 263.14955 -93.514734 
L 262.792072 -92.82131 
L 262.434595 -92.130692 
L 262.077117 -91.44292 
L 261.71964 -90.758035 
L 261.362162 -90.076083 
L 261.004685 -89.397109 
L 260.647207 -88.721161 
L 260.28973 -88.04829 
L 259.932252 -87.378548 
L 259.574775 -86.711988 
L 259.217297 -86.048668 
L 258.85982 -85.388646 
L 258.502342 -84.731981 
L 258.144865 -84.078735 
L 257.787387 -83.428972 
L 257.42991 -82.782759 
L 257.072432 -82.140161 
L 256.714955 -81.50125 
L 256.357477 -80.866096 
L 256 -80.234771 
L 255.642523 -79.60735 
L 255.285045 -78.983909 
L 254.927568 -78.364525 
L 254.57009 -77.749279 
L 254.212613 -77.138251 
L 253.855135 -76.531522 
L 253.497658 -75.929177 
L 253.14018 -75.331301 
L 252.782703 -74.73798 
L 252.425225 -74.149301 
L 252.067748 -73.565354 
L 251.71027 -72.986228 
L 251.352793 -72.412015 
L 250.995315 -71.842807 
L 250.637838 -71.278698 
L 250.28036 -70.71978 
L 249.922883 -70.16615 
L 249.565405 -69.617904 
L 249.207928 -69.075138 
L 248.85045 -68.537949 
L 248.492973 -68.006437 
L 248.135495 -67.480699 
L 247.778018 -66.960835 
L 247.420541 -66.446944 
L 247.063063 -65.939128 
L 246.705586 -65.437485 
L 246.348108 -64.942118 
L 245.990631 -64.453127 
L 245.633153 -63.970614 
L 245.275676 -63.494679 
L 244.918198 -63.025424 
L 244.560721 -62.562951 
L 244.203243 -62.10736 
L 243.845766 -61.658753 
L 243.488288 -61.217231 
L 243.130811 -60.782893 
L 242.773333 -60.355841 
L 242.415856 -59.936173 
L 242.058378 -59.52399 
L 241.700901 -59.119389 
L 241.343423 -58.722469 
L 240.985946 -58.333328 
L 240.628468 -57.952061 
L 240.270991 -57.578766 
L 239.913514 -57.213535 
L 239.556036 -56.856465 
L 239.198559 -56.507647 
L 238.841081 -56.167174 
L 238.483604 -55.835136 
L 238.126126 -55.511624 
L 237.768649 -55.196725 
L 237.411171 -54.890526 
L 237.053694 -54.593115 
L 236.696216 -54.304574 
L 236.338739 -54.024987 
L 235.981261 -53.978264 
L 235.623784 -54.168549 
L 235.266306 -54.37329 
L 234.908829 -54.592371 
L 234.551351 -54.825674 
L 234.193874 -55.073078 
L 233.836396 -55.334457 
L 233.478919 -55.609683 
L 233.121441 -55.898623 
L 232.763964 -56.201142 
L 232.406486 -56.517101 
L 232.049009 -56.846357 
L 231.691532 -57.188764 
L 231.334054 -57.544173 
L 230.976577 -57.912433 
L 230.619099 -58.293387 
L 230.261622 -58.686877 
L 229.904144 -59.092741 
L 229.546667 -59.510815 
L 229.189189 -59.940931 
L 228.831712 -60.382919 
L 228.474234 -60.836605 
L 228.116757 -61.301814 
L 227.759279 -61.778366 
L 227.401802 -62.266081 
L 227.044324 -62.764775 
L 226.686847 -63.27426 
L 226.329369 -63.794349 
L 225.971892 -64.324849 
L 225.614414 -64.865568 
L 225.256937 -65.41631 
L 224.899459 -65.976877 
L 224.541982 -66.547068 
L 224.184505 -67.126682 
L 223.827027 -67.715516 
L 223.46955 -68.313362 
L 223.112072 -68.920014 
L 222.754595 -69.535262 
L 222.397117 -70.158896 
L 222.03964 -70.790702 
L 221.682162 -71.430468 
L 221.324685 -72.077977 
L 220.967207 -72.733012 
L 220.60973 -73.395357 
L 220.252252 -74.064792 
L 219.894775 -74.741096 
L 219.537297 -75.424048 
L 219.17982 -76.113427 
L 218.822342 -76.809009 
L 218.464865 -77.510571 
L 218.107387 -78.217887 
L 217.74991 -78.930734 
L 217.392432 -79.648885 
L 217.034955 -80.372114 
L 216.677477 -81.100196 
L 216.32 -81.832902 
L 215.962523 -82.570007 
L 215.605045 -83.311284 
L 215.247568 -84.056504 
L 214.89009 -84.805442 
L 214.532613 -85.557871 
L 214.175135 -86.313563 
L 213.817658 -87.072292 
L 213.46018 -87.833832 
L 213.102703 -88.597957 
L 212.745225 -89.364443 
L 212.387748 -90.133064 
L 212.03027 -90.903597 
L 211.672793 -91.675818 
L 211.315315 -92.449505 
L 210.957838 -93.224436 
L 210.60036 -94.000391 
L 210.242883 -94.777151 
L 209.885405 -95.554496 
L 209.527928 -96.33221 
L 209.17045 -97.110077 
L 208.812973 -97.887881 
L 208.455495 -98.66541 
L 208.098018 -99.442451 
L 207.740541 -100.218795 
L 207.383063 -100.994233 
L 207.025586 -101.768556 
L 206.668108 -102.541561 
L 206.310631 -103.313044 
L 205.953153 -104.082802 
L 205.595676 -104.850636 
L 205.238198 -105.616348 
L 204.880721 -106.379742 
L 204.523243 -107.140624 
L 204.165766 -107.898804 
L 203.808288 -108.65409 
L 203.450811 -109.406297 
L 203.093333 -110.155239 
L 202.735856 -110.900734 
L 202.378378 -111.642602 
L 202.020901 -112.380666 
L 201.663423 -113.114749 
L 201.305946 -113.84468 
L 200.948468 -114.570289 
L 200.590991 -115.291409 
L 200.233514 -116.007874 
L 199.876036 -116.719524 
L 199.518559 -117.426199 
L 199.161081 -118.127743 
L 198.803604 -118.824003 
L 198.446126 -119.514828 
L 198.088649 -120.200072 
L 197.731171 -120.879588 
L 197.373694 -121.553237 
L 197.016216 -122.220879 
L 196.658739 -122.88238 
L 196.301261 -123.537607 
L 195.943784 -124.18643 
L 195.586306 -124.828725 
L 195.228829 -125.464368 
L 194.871351 -126.093239 
L 194.513874 -126.715223 
L 194.156396 -127.330206 
L 193.798919 -127.938079 
L 193.441441 -128.538735 
L 193.083964 -129.132071 
L 192.726486 -129.717987 
L 192.369009 -130.296387 
L 192.011532 -130.867178 
L 191.654054 -131.430269 
L 191.296577 -131.985574 
L 190.939099 -132.533011 
L 190.581622 -133.0725 
L 190.224144 -133.603964 
L 189.866667 -134.127332 
L 189.509189 -134.642533 
L 189.151712 -135.149501 
L 188.794234 -135.648175 
L 188.436757 -136.138495 
L 188.079279 -136.620406 
L 187.721802 -137.093854 
L 187.364324 -137.558792 
L 187.006847 -138.015174 
L 186.649369 -138.462958 
L 186.291892 -138.902105 
L 185.934414 -139.33258 
L 185.576937 -139.754352 
L 185.219459 -140.167391 
L 184.861982 -140.571673 
L 184.504505 -140.967176 
L 184.147027 -141.353882 
L 183.78955 -141.731774 
L 183.432072 -142.100843 
L 183.074595 -142.461078 
L 182.717117 -142.812474 
L 182.35964 -143.155031 
L 182.002162 -143.488748 
L 181.644685 -143.81363 
L 181.287207 -144.129684 
L 180.92973 -144.436922 
L 180.572252 -144.735357 
L 180.214775 -145.025006 
L 179.857297 -145.305888 
L 179.49982 -145.578028 
L 179.142342 -145.84145 
L 178.784865 -146.096185 
L 178.427387 -146.342263 
L 178.06991 -146.57972 
L 177.712432 -146.808594 
L 177.354955 -147.028925 
L 176.997477 -147.240756 
L 176.64 -147.444134 
L 176.282523 -147.639108 
L 175.925045 -147.825729 
L 175.567568 -148.004052 
L 175.21009 -148.174133 
L 174.852613 -148.336033 
L 174.495135 -148.489813 
L 174.137658 -148.635539 
L 173.78018 -148.773276 
L 173.422703 -148.903095 
L 173.065225 -149.025068 
L 172.707748 -149.139269 
L 172.35027 -149.245774 
L 171.992793 -149.344663 
L 171.635315 -149.436016 
L 171.277838 -149.519916 
L 170.92036 -149.59645 
L 170.562883 -149.665704 
L 170.205405 -149.727767 
L 169.847928 -149.782732 
L 169.49045 -149.830692 
L 169.132973 -149.871741 
L 168.775495 -149.905978 
L 168.418018 -149.9335 
L 168.060541 -149.954409 
L 167.703063 -149.968807 
L 167.345586 -149.976797 
L 166.988108 -149.978485 
L 166.630631 -149.973979 
L 166.273153 -149.963387 
L 165.915676 -149.946819 
L 165.558198 -149.924386 
L 165.200721 -149.896201 
L 164.843243 -149.862379 
L 164.485766 -150.291456 
L 164.128288 -150.916111 
L 163.770811 -151.535592 
L 163.413333 -152.149842 
L 163.055856 -152.758804 
L 162.698378 -153.362425 
L 162.340901 -153.960649 
L 161.983423 -154.553425 
L 161.625946 -155.140702 
L 161.268468 -155.722429 
L 160.910991 -156.298558 
L 160.553514 -156.86904 
L 160.196036 -157.43383 
L 159.838559 -157.992881 
L 159.481081 -158.546149 
L 159.123604 -159.093591 
L 158.766126 -159.635165 
L 158.408649 -160.17083 
L 158.051171 -160.700545 
L 157.693694 -161.224273 
L 157.336216 -161.741975 
L 156.978739 -162.253615 
L 156.621261 -162.759157 
L 156.263784 -163.258568 
L 155.906306 -163.751812 
L 155.548829 -164.238859 
L 155.191351 -164.719677 
L 154.833874 -165.194236 
L 154.476396 -165.662506 
L 154.118919 -166.12446 
L 153.761441 -166.58007 
L 153.403964 -167.02931 
L 153.046486 -167.472156 
L 152.689009 -167.908582 
L 152.331532 -168.338567 
L 151.974054 -168.762087 
L 151.616577 -169.179122 
L 151.259099 -169.589651 
L 150.901622 -169.993656 
L 150.544144 -170.391118 
L 150.186667 -170.782019 
L 149.829189 -171.166344 
L 149.471712 -171.544076 
L 149.114234 -171.915202 
L 148.756757 -172.279707 
L 148.399279 -172.637578 
L 148.041802 -172.988805 
L 147.684324 -173.333376 
L 147.326847 -173.67128 
L 146.969369 -174.002509 
L 146.611892 -174.327054 
L 146.254414 -174.644908 
L 145.896937 -174.956064 
L 145.539459 -175.260515 
L 145.181982 -175.558257 
L 144.824505 -175.849286 
L 144.467027 -176.133598 
L 144.10955 -176.411191 
L 143.752072 -176.682062 
L 143.394595 -176.94621 
L 143.037117 -177.203636 
L 142.67964 -177.45434 
L 142.322162 -177.698322 
L 141.964685 -177.935585 
L 141.607207 -178.166131 
L 141.24973 -178.389965 
L 140.892252 -178.607089 
L 140.534775 -178.817509 
L 140.177297 -179.021231 
L 139.81982 -179.21826 
L 139.462342 -179.408604 
L 139.104865 -179.592271 
L 138.747387 -179.769268 
L 138.38991 -179.939605 
L 138.032432 -180.103291 
L 137.674955 -180.260337 
L 137.317477 -180.410754 
L 136.96 -180.554554 
L 136.602523 -180.691748 
L 136.245045 -180.82235 
L 135.887568 -180.946373 
L 135.53009 -181.063832 
L 135.172613 -181.174741 
L 134.815135 -181.279116 
L 134.457658 -181.376974 
L 134.10018 -181.468329 
L 133.742703 -181.553201 
L 133.385225 -181.631607 
L 133.027748 -181.703565 
L 132.67027 -181.769094 
L 132.312793 -181.828214 
L 131.955315 -181.880946 
L 131.597838 -181.92731 
L 131.24036 -181.967328 
L 130.882883 -182.001021 
L 130.525405 -182.028412 
L 130.167928 -182.049525 
L 129.81045 -182.064382 
L 129.452973 -182.073009 
L 129.095495 -182.07543 
L 128.738018 -182.07167 
L 128.380541 -182.061755 
L 128.023063 -182.045713 
L 127.665586 -182.023569 
L 127.308108 -181.995351 
L 126.950631 -181.961089 
L 126.593153 -181.920809 
L 126.235676 -181.874542 
L 125.878198 -181.822317 
L 125.520721 -181.764164 
L 125.163243 -181.700115 
L 124.805766 -181.630201 
L 124.448288 -181.554453 
L 124.090811 -181.472904 
L 123.733333 -181.385588 
L 123.375856 -181.292537 
L 123.018378 -181.193785 
L 122.660901 -181.089368 
L 122.303423 -180.979321 
L 121.945946 -180.863678 
L 121.588468 -180.742477 
L 121.230991 -180.615753 
L 120.873514 -180.483545 
L 120.516036 -180.34589 
L 120.158559 -180.202827 
L 119.801081 -180.054393 
L 119.443604 -179.900629 
L 119.086126 -179.741574 
L 118.728649 -179.57727 
L 118.371171 -179.407756 
L 118.013694 -179.233075 
L 117.656216 -179.053268 
L 117.298739 -178.868378 
L 116.941261 -178.678448 
L 116.583784 -178.483521 
L 116.226306 -178.283642 
L 115.868829 -178.078856 
L 115.511351 -177.869207 
L 115.153874 -177.654741 
L 114.796396 -177.435505 
L 114.438919 -177.211544 
L 114.081441 -176.982907 
L 113.723964 -176.749641 
L 113.366486 -176.511794 
L 113.009009 -176.269416 
L 112.651532 -176.022554 
L 112.294054 -175.77126 
L 111.936577 -175.515583 
L 111.579099 -175.255575 
L 111.221622 -174.991286 
L 110.864144 -174.722768 
L 110.506667 -174.450073 
L 110.149189 -174.173255 
L 109.791712 -173.892366 
L 109.434234 -173.60746 
L 109.076757 -173.318592 
L 108.719279 -173.025815 
L 108.361802 -172.729186 
L 108.004324 -172.428759 
L 107.646847 -172.124591 
L 107.289369 -171.816737 
L 106.931892 -171.505256 
L 106.574414 -171.190205 
L 106.216937 -170.87164 
L 105.859459 -170.549621 
L 105.501982 -170.224205 
L 105.144505 -169.895453 
L 104.787027 -169.563423 
L 104.42955 -169.228175 
L 104.072072 -168.88977 
L 103.714595 -168.548268 
L 103.357117 -168.203729 
L 102.99964 -167.856216 
L 102.642162 -167.50579 
L 102.284685 -167.152513 
L 101.927207 -166.796447 
L 101.56973 -166.437654 
L 101.212252 -166.076199 
L 100.854775 -165.712144 
L 100.497297 -165.345552 
L 100.13982 -164.976488 
L 99.782342 -164.605015 
L 99.424865 -164.231198 
L 99.067387 -163.855102 
L 98.70991 -163.47679 
L 98.352432 -163.096329 
L 97.994955 -162.713784 
L 97.637477 -162.329219 
L 97.28 -161.942701 
L 96.922523 -161.554294 
L 96.565045 -161.164066 
L 96.207568 -160.772082 
L 95.85009 -160.378409 
L 95.492613 -159.983111 
L 95.135135 -159.586257 
L 94.777658 -159.187911 
L 94.42018 -158.788142 
L 94.062703 -158.387014 
L 93.705225 -157.984595 
L 93.347748 -157.580953 
L 92.99027 -157.813469 
L 92.632793 -158.116698 
L 92.275315 -158.41981 
L 91.917838 -158.722732 
L 91.56036 -159.025393 
L 91.202883 -159.327721 
L 90.845405 -159.629645 
L 90.487928 -159.931096 
L 90.13045 -160.232003 
L 89.772973 -160.532298 
L 89.415495 -160.831913 
L 89.058018 -161.13078 
L 88.700541 -161.428832 
L 88.343063 -161.726004 
L 87.985586 -162.022229 
L 87.628108 -162.317445 
L 87.270631 -162.611586 
L 86.913153 -162.90459 
L 86.555676 -163.196396 
L 86.198198 -163.486942 
L 85.840721 -163.776167 
L 85.483243 -164.064014 
L 85.125766 -164.350422 
L 84.768288 -164.635336 
L 84.410811 -164.918699 
L 84.053333 -165.200455 
L 83.695856 -165.480549 
L 83.338378 -165.75893 
L 82.980901 -166.035543 
L 82.623423 -166.310339 
L 82.265946 -166.583267 
L 81.908468 -166.854277 
L 81.550991 -167.123322 
L 81.193514 -167.390355 
L 80.836036 -167.65533 
L 80.478559 -167.918203 
L 80.121081 -168.178929 
L 79.763604 -168.437468 
L 79.406126 -168.693776 
L 79.048649 -168.947816 
L 78.691171 -169.199547 
L 78.333694 -169.448932 
L 77.976216 -169.695934 
L 77.618739 -169.940519 
L 77.261261 -170.182653 
L 76.903784 -170.422301 
L 76.546306 -170.659434 
L 76.188829 -170.89402 
L 75.831351 -171.126031 
L 75.473874 -171.355437 
L 75.116396 -171.582213 
L 74.758919 -171.806334 
L 74.401441 -172.027774 
L 74.043964 -172.24651 
L 73.686486 -172.462522 
L 73.329009 -172.675787 
L 72.971532 -172.886288 
L 72.614054 -173.094004 
L 72.256577 -173.298921 
L 71.899099 -173.501021 
L 71.541622 -173.70029 
L 71.184144 -173.896715 
L 70.826667 -174.090284 
L 70.469189 -174.280985 
L 70.111712 -174.468808 
L 69.754234 -174.653746 
L 69.396757 -174.83579 
L 69.039279 -175.014934 
L 68.681802 -175.191173 
L 68.324324 -175.364503 
L 67.966847 -175.534921 
L 67.609369 -175.702425 
L 67.251892 -175.867014 
L 66.894414 -176.028688 
L 66.536937 -176.18745 
L 66.179459 -176.343301 
L 65.821982 -176.496244 
L 65.464505 -176.646286 
L 65.107027 -176.79343 
L 64.74955 -176.937684 
L 64.392072 -177.079055 
L 64.034595 -177.217552 
L 63.677117 -177.353184 
L 63.31964 -177.485962 
L 62.962162 -177.615898 
L 62.604685 -177.743002 
L 62.247207 -177.86729 
L 61.88973 -177.988774 
L 61.532252 -178.10747 
L 61.174775 -178.223393 
L 60.817297 -178.336561 
L 60.45982 -178.44699 
L 60.102342 -178.554698 
L 59.744865 -178.659706 
L 59.387387 -178.762031 
L 59.02991 -178.861696 
L 58.672432 -178.958721 
L 58.314955 -179.053128 
L 57.957477 -179.144939 
L 57.6 -179.234177 
z
" style="stroke: #808080; stroke-opacity: 0.2"/>
    </defs>
    <g clip-path="url(#p638848ee3d)">
     <use xlink:href="#m2f39b53a3d" x="0" y="345.6" style="fill: #808080; fill-opacity: 0.2; stroke: #808080; stroke-opacity: 0.2"/>
    </g>
   </g>
   <g id="matplotlib.axis_1">
    <g id="xtick_1">
     <g id="line2d_1">
      <defs>
       <path id="m6dd657c0a8" d="M 0 0 
L 0 3.5 
" style="stroke: #000000; stroke-width: 0.8"/>
      </defs>
      <g>
       <use xlink:href="#m6dd657c0a8" x="57.6" y="307.584" style="stroke: #000000; stroke-width: 0.8"/>
      </g>
     </g>
     <g id="text_1">
      <!-- 0 -->
      <g transform="translate(54.41875 322.182437)scale(0.1 -0.1)">
       <defs>
        <path id="DejaVuSans-30" d="M 2034 4250 
Q 1547 4250 1301 3770 
Q 1056 3291 1056 2328 
Q 1056 1369 1301 889 
Q 1547 409 2034 409 
Q 2525 409 2770 889 
Q 3016 1369 3016 2328 
Q 3016 3291 2770 3770 
Q 2525 4250 2034 4250 
z
M 2034 4750 
Q 2819 4750 3233 4129 
Q 3647 3509 3647 2328 
Q 3647 1150 3233 529 
Q 2819 -91 2034 -91 
Q 1250 -91 836 529 
Q 422 1150 422 2328 
Q 422 3509 836 4129 
Q 1250 4750 2034 4750 
z
" transform="scale(0.015625)"/>
       </defs>
       <use xlink:href="#DejaVuSans-30"/>
      </g>
     </g>
    </g>
    <g id="xtick_2">
     <g id="line2d_2">
      <g>
       <use xlink:href="#m6dd657c0a8" x="129.024" y="307.584" style="stroke: #000000; stroke-width: 0.8"/>
      </g>
     </g>
     <g id="text_2">
      <!-- 2 -->
      <g transform="translate(125.84275 322.182437)scale(0.1 -0.1)">
       <defs>
        <path id="DejaVuSans-32" d="M 1228 531 
L 3431 531 
L 3431 0 
L 469 0 
L 469 531 
Q 828 903 1448 1529 
Q 2069 2156 2228 2338 
Q 2531 2678 2651 2914 
Q 2772 3150 2772 3378 
Q 2772 3750 2511 3984 
Q 2250 4219 1831 4219 
Q 1534 4219 1204 4116 
Q 875 4013 500 3803 
L 500 4441 
Q 881 4594 1212 4672 
Q 1544 4750 1819 4750 
Q 2544 4750 2975 4387 
Q 3406 4025 3406 3419 
Q 3406 3131 3298 2873 
Q 3191 2616 2906 2266 
Q 2828 2175 2409 1742 
Q 1991 1309 1228 531 
z
" transform="scale(0.015625)"/>
       </defs>
       <use xlink:href="#DejaVuSans-32"/>
      </g>
     </g>
    </g>
    <g id="xtick_3">
     <g id="line2d_3">
      <g>
       <use xlink:href="#m6dd657c0a8" x="200.448" y="307.584" style="stroke: #000000; stroke-width: 0.8"/>
      </g>
     </g>
     <g id="text_3">
      <!-- 4 -->
      <g transform="translate(197.26675 322.182437)scale(0.1 -0.1)">
       <defs>
        <path id="DejaVuSans-34" d="M 2419 4116 
L 825 1625 
L 2419 1625 
L 2419 4116 
z
M 2253 4666 
L 3047 4666 
L 3047 1625 
L 3713 1625 
L 3713 1100 
L 3047 1100 
L 3047 0 
L 2419 0 
L 2419 1100 
L 313 1100 
L 313 1709 
L 2253 4666 
z
" transform="scale(0.015625)"/>
       </defs>
       <use xlink:href="#DejaVuSans-34"/>
      </g>
     </g>
    </g>
    <g id="xtick_4">
     <g id="line2d_4">
      <g>
       <use xlink:href="#m6dd657c0a8" x="271.872" y="307.584" style="stroke: #000000; stroke-width: 0.8"/>
      </g>
     </g>
     <g id="text_4">
      <!-- 6 -->
      <g transform="translate(268.69075 322.182437)scale(0.1 -0.1)">
       <defs>
        <path id="DejaVuSans-36" d="M 2113 2584 
Q 1688 2584 1439 2293 
Q 1191 2003 1191 1497 
Q 1191 994 1439 701 
Q 1688 409 2113 409 
Q 2538 409 2786 701 
Q 3034 994 3034 1497 
Q 3034 2003 2786 2293 
Q 2538 2584 2113 2584 
z
M 3366 4563 
L 3366 3988 
Q 3128 4100 2886 4159 
Q 2644 4219 2406 4219 
Q 1781 4219 1451 3797 
Q 1122 3375 1075 2522 
Q 1259 2794 1537 2939 
Q 1816 3084 2150 3084 
Q 2853 3084 3261 2657 
Q 3669 2231 3669 1497 
Q 3669 778 3244 343 
Q 2819 -91 2113 -91 
Q 1303 -91 875 529 
Q 447 1150 447 2328 
Q 447 3434 972 4092 
Q 1497 4750 2381 4750 
Q 2619 4750 2861 4703 
Q 3103 4656 3366 4563 
z
" transform="scale(0.015625)"/>
       </defs>
       <use xlink:href="#DejaVuSans-36"/>
      </g>
     </g>
    </g>
    <g id="xtick_5">
     <g id="line2d_5">
      <g>
       <use xlink:href="#m6dd657c0a8" x="343.296" y="307.584" style="stroke: #000000; stroke-width: 0.8"/>
      </g>
     </g>
     <g id="text_5">
      <!-- 8 -->
      <g transform="translate(340.11475 322.182437)scale(0.1 -0.1)">
       <defs>
        <path id="DejaVuSans-38" d="M 2034 2216 
Q 1584 2216 1326 1975 
Q 1069 1734 1069 1313 
Q 1069 891 1326 650 
Q 1584 409 2034 409 
Q 2484 409 2743 651 
Q 3003 894 3003 1313 
Q 3003 1734 2745 1975 
Q 2488 2216 2034 2216 
z
M 1403 2484 
Q 997 2584 770 2862 
Q 544 3141 544 3541 
Q 544 4100 942 4425 
Q 1341 4750 2034 4750 
Q 2731 4750 3128 4425 
Q 3525 4100 3525 3541 
Q 3525 3141 3298 2862 
Q 3072 2584 2669 2484 
Q 3125 2378 3379 2068 
Q 3634 1759 3634 1313 
Q 3634 634 3220 271 
Q 2806 -91 2034 -91 
Q 1263 -91 848 271 
Q 434 634 434 1313 
Q 434 1759 690 2068 
Q 947 2378 1403 2484 
z
M 1172 3481 
Q 1172 3119 1398 2916 
Q 1625 2713 2034 2713 
Q 2441 2713 2670 2916 
Q 2900 3119 2900 3481 
Q 2900 3844 2670 4047 
Q 2441 4250 2034 4250 
Q 1625 4250 1398 4047 
Q 1172 3844 1172 3481 
z
" transform="scale(0.015625)"/>
       </defs>
       <use xlink:href="#DejaVuSans-38"/>
      </g>
     </g>
    </g>
    <g id="xtick_6">
     <g id="line2d_6">
      <g>
       <use xlink:href="#m6dd657c0a8" x="414.72" y="307.584" style="stroke: #000000; stroke-width: 0.8"/>
      </g>
     </g>
     <g id="text_6">
      <!-- 10 -->
      <g transform="translate(408.3575 322.182437)scale(0.1 -0.1)">
       <defs>
        <path id="DejaVuSans-31" d="M 794 531 
L 1825 531 
L 1825 4091 
L 703 3866 
L 703 4441 
L 1819 4666 
L 2450 4666 
L 2450 531 
L 3481 531 
L 3481 0 
L 794 0 
L 794 531 
z
" transform="scale(0.015625)"/>
       </defs>
       <use xlink:href="#DejaVuSans-31"/>
       <use xlink:href="#DejaVuSans-30" x="63.623047"/>
      </g>
     </g>
    </g>
   </g>
   <g id="matplotlib.axis_2">
    <g id="ytick_1">
     <g id="line2d_7">
      <defs>
       <path id="m5adb417ff4" d="M 0 0 
L -3.5 0 
" style="stroke: #000000; stroke-width: 0.8"/>
      </defs>
      <g>
       <use xlink:href="#m5adb417ff4" x="57.6" y="277.097744" style="stroke: #000000; stroke-width: 0.8"/>
      </g>
     </g>
     <g id="text_7">
      <!-- 4 -->
      <g transform="translate(35.857813 280.896963)scale(0.1 -0.1)">
       <defs>
        <path id="DejaVuSans-2212" d="M 678 2272 
L 4684 2272 
L 4684 1741 
L 678 1741 
L 678 2272 
z
" transform="scale(0.015625)"/>
       </defs>
       <use xlink:href="#DejaVuSans-2212"/>
       <use xlink:href="#DejaVuSans-34" x="83.789062"/>
      </g>
     </g>
    </g>
    <g id="ytick_2">
     <g id="line2d_8">
      <g>
       <use xlink:href="#m5adb417ff4" x="57.6" y="240.316251" style="stroke: #000000; stroke-width: 0.8"/>
      </g>
     </g>
     <g id="text_8">
      <!-- 2 -->
      <g transform="translate(35.857813 244.11547)scale(0.1 -0.1)">
       <use xlink:href="#DejaVuSans-2212"/>
       <use xlink:href="#DejaVuSans-32" x="83.789062"/>
      </g>
     </g>
    </g>
    <g id="ytick_3">
     <g id="line2d_9">
      <g>
       <use xlink:href="#m5adb417ff4" x="57.6" y="203.534757" style="stroke: #000000; stroke-width: 0.8"/>
      </g>
     </g>
     <g id="text_9">
      <!-- 0 -->
      <g transform="translate(44.2375 207.333976)scale(0.1 -0.1)">
       <use xlink:href="#DejaVuSans-30"/>
      </g>
     </g>
    </g>
    <g id="ytick_4">
     <g id="line2d_10">
      <g>
       <use xlink:href="#m5adb417ff4" x="57.6" y="166.753264" style="stroke: #000000; stroke-width: 0.8"/>
      </g>
     </g>
     <g id="text_10">
      <!-- 2 -->
      <g transform="translate(44.2375 170.552483)scale(0.1 -0.1)">
       <use xlink:href="#DejaVuSans-32"/>
      </g>
     </g>
    </g>
    <g id="ytick_5">
     <g id="line2d_11">
      <g>
       <use xlink:href="#m5adb417ff4" x="57.6" y="129.971771" style="stroke: #000000; stroke-width: 0.8"/>
      </g>
     </g>
     <g id="text_11">
      <!-- 4 -->
      <g transform="translate(44.2375 133.770989)scale(0.1 -0.1)">
       <use xlink:href="#DejaVuSans-34"/>
      </g>
     </g>
    </g>
    <g id="ytick_6">
     <g id="line2d_12">
      <g>
       <use xlink:href="#m5adb417ff4" x="57.6" y="93.190277" style="stroke: #000000; stroke-width: 0.8"/>
      </g>
     </g>
     <g id="text_12">
      <!-- 6 -->
      <g transform="translate(44.2375 96.989496)scale(0.1 -0.1)">
       <use xlink:href="#DejaVuSans-36"/>
      </g>
     </g>
    </g>
    <g id="ytick_7">
     <g id="line2d_13">
      <g>
       <use xlink:href="#m5adb417ff4" x="57.6" y="56.408784" style="stroke: #000000; stroke-width: 0.8"/>
      </g>
     </g>
     <g id="text_13">
      <!-- 8 -->
      <g transform="translate(44.2375 60.208003)scale(0.1 -0.1)">
       <use xlink:href="#DejaVuSans-38"/>
      </g>
     </g>
    </g>
   </g>
   <g id="line2d_14">
    <defs>
     <path id="m42f7fdee2d" d="M 0 3 
C 0.795609 3 1.55874 2.683901 2.12132 2.12132 
C 2.683901 1.55874 3 0.795609 3 0 
C 3 -0.795609 2.683901 -1.55874 2.12132 -2.12132 
C 1.55874 -2.683901 0.795609 -3 0 -3 
C -0.795609 -3 -1.55874 -2.683901 -2.12132 -2.12132 
C -2.683901 -1.55874 -3 -0.795609 -3 0 
C -3 0.795609 -2.683901 1.55874 -2.12132 2.12132 
C -1.55874 2.683901 -0.795609 3 0 3 
z
" style="stroke: #ff0000"/>
    </defs>
    <g clip-path="url(#p638848ee3d)">
     <use xlink:href="#m42f7fdee2d" x="93.312" y="188.059478" style="fill: #ff0000; stroke: #ff0000"/>
     <use xlink:href="#m42f7fdee2d" x="164.736" y="195.74885" style="fill: #ff0000; stroke: #ff0000"/>
     <use xlink:href="#m42f7fdee2d" x="236.16" y="291.711425" style="fill: #ff0000; stroke: #ff0000"/>
     <use xlink:href="#m42f7fdee2d" x="271.872" y="234.366715" style="fill: #ff0000; stroke: #ff0000"/>
     <use xlink:href="#m42f7fdee2d" x="343.296" y="57.974462" style="fill: #ff0000; stroke: #ff0000"/>
    </g>
   </g>
   <g id="line2d_15">
    <path d="M 57.6 195.487219 
L 77.976216 190.759227 
L 85.483243 189.305673 
L 92.632793 188.156523 
L 99.782342 187.23304 
L 108.004324 186.402317 
L 117.298739 185.688326 
L 125.520721 185.263178 
L 131.597838 185.158996 
L 136.245045 185.283562 
L 140.177297 185.591001 
L 143.752072 186.082704 
L 146.969369 186.739564 
L 150.186667 187.638614 
L 153.046486 188.672363 
L 155.906306 189.954954 
L 158.766126 191.512177 
L 161.268468 193.118799 
L 163.770811 194.968083 
L 166.273153 197.071982 
L 168.775495 199.439795 
L 171.635315 202.476804 
L 174.495135 205.870015 
L 177.354955 209.616177 
L 180.572252 214.238897 
L 183.78955 219.267372 
L 187.364324 225.28079 
L 191.654054 232.984913 
L 197.016216 243.116642 
L 207.025586 262.129826 
L 210.957838 269.074337 
L 214.175135 274.315161 
L 217.034955 278.545022 
L 219.537297 281.85536 
L 221.682162 284.366307 
L 223.827027 286.548254 
L 225.971892 288.377686 
L 227.759279 289.617944 
L 229.546667 290.5887 
L 231.334054 291.281228 
L 233.121441 291.688441 
L 234.551351 291.80509 
L 235.981261 291.733652 
L 237.411171 291.472826 
L 238.841081 291.022 
L 240.628468 290.19143 
L 242.415856 289.065667 
L 244.203243 287.647777 
L 245.990631 285.942259 
L 247.778018 283.954931 
L 249.922883 281.208115 
L 252.067748 278.079803 
L 254.212613 274.586005 
L 256.714955 270.071399 
L 259.217297 265.112908 
L 262.077117 258.942383 
L 265.294414 251.414874 
L 268.511712 243.331749 
L 272.086486 233.777988 
L 276.376216 221.633585 
L 281.023423 207.790716 
L 286.743063 190.01083 
L 294.607568 164.758394 
L 305.331892 130.360005 
L 310.336577 115.066125 
L 314.268829 103.728335 
L 317.486126 95.051366 
L 320.345946 87.891359 
L 323.205766 81.33547 
L 325.708108 76.155885 
L 327.852973 72.169127 
L 329.997838 68.630637 
L 332.142703 65.566155 
L 333.93009 63.390796 
L 335.717477 61.571226 
L 337.504865 60.116417 
L 338.934775 59.219849 
L 340.364685 58.563566 
L 341.794595 58.149035 
L 343.224505 57.976725 
L 344.654414 58.046092 
L 346.084324 58.355572 
L 347.514234 58.902574 
L 348.944144 59.683496 
L 350.374054 60.693738 
L 352.161441 62.270444 
L 353.948829 64.183756 
L 355.736216 66.418579 
L 357.881081 69.500558 
L 360.025946 72.98782 
L 362.528288 77.520011 
L 365.388108 83.234675 
L 368.605405 90.227597 
L 372.537658 99.379707 
L 378.257297 113.360776 
L 386.836757 134.301864 
L 391.126486 144.168758 
L 394.701261 151.880052 
L 397.918559 158.348401 
L 401.135856 164.326035 
L 403.995676 169.20678 
L 406.855495 173.671963 
L 409.715315 177.72231 
L 412.575135 181.36585 
L 414.72 183.839859 
L 414.72 183.839859 
" clip-path="url(#p638848ee3d)" style="fill: none; stroke: #808080; stroke-width: 1.5; stroke-linecap: square"/>
   </g>
   <g id="patch_3">
    <path d="M 57.6 307.584 
L 57.6 41.472 
" style="fill: none; stroke: #000000; stroke-width: 0.8; stroke-linejoin: miter; stroke-linecap: square"/>
   </g>
   <g id="patch_4">
    <path d="M 414.72 307.584 
L 414.72 41.472 
" style="fill: none; stroke: #000000; stroke-width: 0.8; stroke-linejoin: miter; stroke-linecap: square"/>
   </g>
   <g id="patch_5">
    <path d="M 57.6 307.584 
L 414.72 307.584 
" style="fill: none; stroke: #000000; stroke-width: 0.8; stroke-linejoin: miter; stroke-linecap: square"/>
   </g>
   <g id="patch_6">
    <path d="M 57.6 41.472 
L 414.72 41.472 
" style="fill: none; stroke: #000000; stroke-width: 0.8; stroke-linejoin: miter; stroke-linecap: square"/>
   </g>
  </g>
 </g>
 <defs>
  <clipPath id="p638848ee3d">
   <rect x="57.6" y="41.472" width="357.12" height="266.112"/>
  </clipPath>
 </defs>
</svg>
