<?xml version="1.0" encoding="utf-8" standalone="no"?>
<!DOCTYPE svg PUBLIC "-//W3C//DTD SVG 1.1//EN"
  "http://www.w3.org/Graphics/SVG/1.1/DTD/svg11.dtd">
<svg xmlns:xlink="http://www.w3.org/1999/xlink" width="460.8pt" height="345.6pt" viewBox="0 0 460.8 345.6" xmlns="http://www.w3.org/2000/svg" version="1.1">
 <metadata>
  <rdf:RDF xmlns:dc="http://purl.org/dc/elements/1.1/" xmlns:cc="http://creativecommons.org/ns#" xmlns:rdf="http://www.w3.org/1999/02/22-rdf-syntax-ns#">
   <cc:Work>
    <dc:type rdf:resource="http://purl.org/dc/dcmitype/StillImage"/>
    <dc:date>2022-10-04T09:06:35.758947</dc:date>
    <dc:format>image/svg+xml</dc:format>
    <dc:creator>
     <cc:Agent>
      <dc:title>Matplotlib v3.5.3, https://matplotlib.org/</dc:title>
     </cc:Agent>
    </dc:creator>
   </cc:Work>
  </rdf:RDF>
 </metadata>
 <defs>
  <style type="text/css">*{stroke-linejoin: round; stroke-linecap: butt}</style>
 </defs>
 <g id="figure_1">
  <g id="patch_1">
   <path d="M 0 345.6 
L 460.8 345.6 
L 460.8 0 
L 0 0 
z
" style="fill: #ffffff"/>
  </g>
  <g id="axes_1">
   <g id="patch_2">
    <path d="M 57.6 307.584 
L 414.72 307.584 
L 414.72 41.472 
L 57.6 41.472 
z
" style="fill: #ffffff"/>
   </g>
   <g id="matplotlib.axis_1">
    <g id="xtick_1">
     <g id="line2d_1">
      <defs>
       <path id="m3b2c704c31" d="M 0 0 
L 0 3.5 
" style="stroke: #000000; stroke-width: 0.8"/>
      </defs>
      <g>
       <use xlink:href="#m3b2c704c31" x="57.6" y="307.584" style="stroke: #000000; stroke-width: 0.8"/>
      </g>
     </g>
     <g id="text_1">
      <!-- 0.0 -->
      <g transform="translate(49.648438 322.182437)scale(0.1 -0.1)">
       <defs>
        <path id="DejaVuSans-30" d="M 2034 4250 
Q 1547 4250 1301 3770 
Q 1056 3291 1056 2328 
Q 1056 1369 1301 889 
Q 1547 409 2034 409 
Q 2525 409 2770 889 
Q 3016 1369 3016 2328 
Q 3016 3291 2770 3770 
Q 2525 4250 2034 4250 
z
M 2034 4750 
Q 2819 4750 3233 4129 
Q 3647 3509 3647 2328 
Q 3647 1150 3233 529 
Q 2819 -91 2034 -91 
Q 1250 -91 836 529 
Q 422 1150 422 2328 
Q 422 3509 836 4129 
Q 1250 4750 2034 4750 
z
" transform="scale(0.015625)"/>
        <path id="DejaVuSans-2e" d="M 684 794 
L 1344 794 
L 1344 0 
L 684 0 
L 684 794 
z
" transform="scale(0.015625)"/>
       </defs>
       <use xlink:href="#DejaVuSans-30"/>
       <use xlink:href="#DejaVuSans-2e" x="63.623047"/>
       <use xlink:href="#DejaVuSans-30" x="95.410156"/>
      </g>
     </g>
    </g>
    <g id="xtick_2">
     <g id="line2d_2">
      <g>
       <use xlink:href="#m3b2c704c31" x="97.28" y="307.584" style="stroke: #000000; stroke-width: 0.8"/>
      </g>
     </g>
     <g id="text_2">
      <!-- 0.2 -->
      <g transform="translate(89.328438 322.182437)scale(0.1 -0.1)">
       <defs>
        <path id="DejaVuSans-32" d="M 1228 531 
L 3431 531 
L 3431 0 
L 469 0 
L 469 531 
Q 828 903 1448 1529 
Q 2069 2156 2228 2338 
Q 2531 2678 2651 2914 
Q 2772 3150 2772 3378 
Q 2772 3750 2511 3984 
Q 2250 4219 1831 4219 
Q 1534 4219 1204 4116 
Q 875 4013 500 3803 
L 500 4441 
Q 881 4594 1212 4672 
Q 1544 4750 1819 4750 
Q 2544 4750 2975 4387 
Q 3406 4025 3406 3419 
Q 3406 3131 3298 2873 
Q 3191 2616 2906 2266 
Q 2828 2175 2409 1742 
Q 1991 1309 1228 531 
z
" transform="scale(0.015625)"/>
       </defs>
       <use xlink:href="#DejaVuSans-30"/>
       <use xlink:href="#DejaVuSans-2e" x="63.623047"/>
       <use xlink:href="#DejaVuSans-32" x="95.410156"/>
      </g>
     </g>
    </g>
    <g id="xtick_3">
     <g id="line2d_3">
      <g>
       <use xlink:href="#m3b2c704c31" x="136.96" y="307.584" style="stroke: #000000; stroke-width: 0.8"/>
      </g>
     </g>
     <g id="text_3">
      <!-- 0.4 -->
      <g transform="translate(129.008438 322.182437)scale(0.1 -0.1)">
       <defs>
        <path id="DejaVuSans-34" d="M 2419 4116 
L 825 1625 
L 2419 1625 
L 2419 4116 
z
M 2253 4666 
L 3047 4666 
L 3047 1625 
L 3713 1625 
L 3713 1100 
L 3047 1100 
L 3047 0 
L 2419 0 
L 2419 1100 
L 313 1100 
L 313 1709 
L 2253 4666 
z
" transform="scale(0.015625)"/>
       </defs>
       <use xlink:href="#DejaVuSans-30"/>
       <use xlink:href="#DejaVuSans-2e" x="63.623047"/>
       <use xlink:href="#DejaVuSans-34" x="95.410156"/>
      </g>
     </g>
    </g>
    <g id="xtick_4">
     <g id="line2d_4">
      <g>
       <use xlink:href="#m3b2c704c31" x="176.64" y="307.584" style="stroke: #000000; stroke-width: 0.8"/>
      </g>
     </g>
     <g id="text_4">
      <!-- 0.6 -->
      <g transform="translate(168.688438 322.182437)scale(0.1 -0.1)">
       <defs>
        <path id="DejaVuSans-36" d="M 2113 2584 
Q 1688 2584 1439 2293 
Q 1191 2003 1191 1497 
Q 1191 994 1439 701 
Q 1688 409 2113 409 
Q 2538 409 2786 701 
Q 3034 994 3034 1497 
Q 3034 2003 2786 2293 
Q 2538 2584 2113 2584 
z
M 3366 4563 
L 3366 3988 
Q 3128 4100 2886 4159 
Q 2644 4219 2406 4219 
Q 1781 4219 1451 3797 
Q 1122 3375 1075 2522 
Q 1259 2794 1537 2939 
Q 1816 3084 2150 3084 
Q 2853 3084 3261 2657 
Q 3669 2231 3669 1497 
Q 3669 778 3244 343 
Q 2819 -91 2113 -91 
Q 1303 -91 875 529 
Q 447 1150 447 2328 
Q 447 3434 972 4092 
Q 1497 4750 2381 4750 
Q 2619 4750 2861 4703 
Q 3103 4656 3366 4563 
z
" transform="scale(0.015625)"/>
       </defs>
       <use xlink:href="#DejaVuSans-30"/>
       <use xlink:href="#DejaVuSans-2e" x="63.623047"/>
       <use xlink:href="#DejaVuSans-36" x="95.410156"/>
      </g>
     </g>
    </g>
    <g id="xtick_5">
     <g id="line2d_5">
      <g>
       <use xlink:href="#m3b2c704c31" x="216.32" y="307.584" style="stroke: #000000; stroke-width: 0.8"/>
      </g>
     </g>
     <g id="text_5">
      <!-- 0.8 -->
      <g transform="translate(208.368438 322.182437)scale(0.1 -0.1)">
       <defs>
        <path id="DejaVuSans-38" d="M 2034 2216 
Q 1584 2216 1326 1975 
Q 1069 1734 1069 1313 
Q 1069 891 1326 650 
Q 1584 409 2034 409 
Q 2484 409 2743 651 
Q 3003 894 3003 1313 
Q 3003 1734 2745 1975 
Q 2488 2216 2034 2216 
z
M 1403 2484 
Q 997 2584 770 2862 
Q 544 3141 544 3541 
Q 544 4100 942 4425 
Q 1341 4750 2034 4750 
Q 2731 4750 3128 4425 
Q 3525 4100 3525 3541 
Q 3525 3141 3298 2862 
Q 3072 2584 2669 2484 
Q 3125 2378 3379 2068 
Q 3634 1759 3634 1313 
Q 3634 634 3220 271 
Q 2806 -91 2034 -91 
Q 1263 -91 848 271 
Q 434 634 434 1313 
Q 434 1759 690 2068 
Q 947 2378 1403 2484 
z
M 1172 3481 
Q 1172 3119 1398 2916 
Q 1625 2713 2034 2713 
Q 2441 2713 2670 2916 
Q 2900 3119 2900 3481 
Q 2900 3844 2670 4047 
Q 2441 4250 2034 4250 
Q 1625 4250 1398 4047 
Q 1172 3844 1172 3481 
z
" transform="scale(0.015625)"/>
       </defs>
       <use xlink:href="#DejaVuSans-30"/>
       <use xlink:href="#DejaVuSans-2e" x="63.623047"/>
       <use xlink:href="#DejaVuSans-38" x="95.410156"/>
      </g>
     </g>
    </g>
    <g id="xtick_6">
     <g id="line2d_6">
      <g>
       <use xlink:href="#m3b2c704c31" x="256" y="307.584" style="stroke: #000000; stroke-width: 0.8"/>
      </g>
     </g>
     <g id="text_6">
      <!-- 1.0 -->
      <g transform="translate(248.048438 322.182437)scale(0.1 -0.1)">
       <defs>
        <path id="DejaVuSans-31" d="M 794 531 
L 1825 531 
L 1825 4091 
L 703 3866 
L 703 4441 
L 1819 4666 
L 2450 4666 
L 2450 531 
L 3481 531 
L 3481 0 
L 794 0 
L 794 531 
z
" transform="scale(0.015625)"/>
       </defs>
       <use xlink:href="#DejaVuSans-31"/>
       <use xlink:href="#DejaVuSans-2e" x="63.623047"/>
       <use xlink:href="#DejaVuSans-30" x="95.410156"/>
      </g>
     </g>
    </g>
    <g id="xtick_7">
     <g id="line2d_7">
      <g>
       <use xlink:href="#m3b2c704c31" x="295.68" y="307.584" style="stroke: #000000; stroke-width: 0.8"/>
      </g>
     </g>
     <g id="text_7">
      <!-- 1.2 -->
      <g transform="translate(287.728438 322.182437)scale(0.1 -0.1)">
       <use xlink:href="#DejaVuSans-31"/>
       <use xlink:href="#DejaVuSans-2e" x="63.623047"/>
       <use xlink:href="#DejaVuSans-32" x="95.410156"/>
      </g>
     </g>
    </g>
    <g id="xtick_8">
     <g id="line2d_8">
      <g>
       <use xlink:href="#m3b2c704c31" x="335.36" y="307.584" style="stroke: #000000; stroke-width: 0.8"/>
      </g>
     </g>
     <g id="text_8">
      <!-- 1.4 -->
      <g transform="translate(327.408438 322.182437)scale(0.1 -0.1)">
       <use xlink:href="#DejaVuSans-31"/>
       <use xlink:href="#DejaVuSans-2e" x="63.623047"/>
       <use xlink:href="#DejaVuSans-34" x="95.410156"/>
      </g>
     </g>
    </g>
    <g id="xtick_9">
     <g id="line2d_9">
      <g>
       <use xlink:href="#m3b2c704c31" x="375.04" y="307.584" style="stroke: #000000; stroke-width: 0.8"/>
      </g>
     </g>
     <g id="text_9">
      <!-- 1.6 -->
      <g transform="translate(367.088438 322.182437)scale(0.1 -0.1)">
       <use xlink:href="#DejaVuSans-31"/>
       <use xlink:href="#DejaVuSans-2e" x="63.623047"/>
       <use xlink:href="#DejaVuSans-36" x="95.410156"/>
      </g>
     </g>
    </g>
    <g id="xtick_10">
     <g id="line2d_10">
      <g>
       <use xlink:href="#m3b2c704c31" x="414.72" y="307.584" style="stroke: #000000; stroke-width: 0.8"/>
      </g>
     </g>
     <g id="text_10">
      <!-- 1.8 -->
      <g transform="translate(406.768438 322.182437)scale(0.1 -0.1)">
       <use xlink:href="#DejaVuSans-31"/>
       <use xlink:href="#DejaVuSans-2e" x="63.623047"/>
       <use xlink:href="#DejaVuSans-38" x="95.410156"/>
      </g>
     </g>
    </g>
   </g>
   <g id="matplotlib.axis_2">
    <g id="ytick_1">
     <g id="line2d_11">
      <defs>
       <path id="ma472d8db8a" d="M 0 0 
L -3.5 0 
" style="stroke: #000000; stroke-width: 0.8"/>
      </defs>
      <g>
       <use xlink:href="#ma472d8db8a" x="57.6" y="296.672534" style="stroke: #000000; stroke-width: 0.8"/>
      </g>
     </g>
     <g id="text_11">
      <!-- 0.0 -->
      <g transform="translate(34.696875 300.471753)scale(0.1 -0.1)">
       <use xlink:href="#DejaVuSans-30"/>
       <use xlink:href="#DejaVuSans-2e" x="63.623047"/>
       <use xlink:href="#DejaVuSans-30" x="95.410156"/>
      </g>
     </g>
    </g>
    <g id="ytick_2">
     <g id="line2d_12">
      <g>
       <use xlink:href="#ma472d8db8a" x="57.6" y="246.218258" style="stroke: #000000; stroke-width: 0.8"/>
      </g>
     </g>
     <g id="text_12">
      <!-- 0.2 -->
      <g transform="translate(34.696875 250.017477)scale(0.1 -0.1)">
       <use xlink:href="#DejaVuSans-30"/>
       <use xlink:href="#DejaVuSans-2e" x="63.623047"/>
       <use xlink:href="#DejaVuSans-32" x="95.410156"/>
      </g>
     </g>
    </g>
    <g id="ytick_3">
     <g id="line2d_13">
      <g>
       <use xlink:href="#ma472d8db8a" x="57.6" y="195.763982" style="stroke: #000000; stroke-width: 0.8"/>
      </g>
     </g>
     <g id="text_13">
      <!-- 0.4 -->
      <g transform="translate(34.696875 199.563201)scale(0.1 -0.1)">
       <use xlink:href="#DejaVuSans-30"/>
       <use xlink:href="#DejaVuSans-2e" x="63.623047"/>
       <use xlink:href="#DejaVuSans-34" x="95.410156"/>
      </g>
     </g>
    </g>
    <g id="ytick_4">
     <g id="line2d_14">
      <g>
       <use xlink:href="#ma472d8db8a" x="57.6" y="145.309706" style="stroke: #000000; stroke-width: 0.8"/>
      </g>
     </g>
     <g id="text_14">
      <!-- 0.6 -->
      <g transform="translate(34.696875 149.108925)scale(0.1 -0.1)">
       <use xlink:href="#DejaVuSans-30"/>
       <use xlink:href="#DejaVuSans-2e" x="63.623047"/>
       <use xlink:href="#DejaVuSans-36" x="95.410156"/>
      </g>
     </g>
    </g>
    <g id="ytick_5">
     <g id="line2d_15">
      <g>
       <use xlink:href="#ma472d8db8a" x="57.6" y="94.85543" style="stroke: #000000; stroke-width: 0.8"/>
      </g>
     </g>
     <g id="text_15">
      <!-- 0.8 -->
      <g transform="translate(34.696875 98.654649)scale(0.1 -0.1)">
       <use xlink:href="#DejaVuSans-30"/>
       <use xlink:href="#DejaVuSans-2e" x="63.623047"/>
       <use xlink:href="#DejaVuSans-38" x="95.410156"/>
      </g>
     </g>
    </g>
    <g id="ytick_6">
     <g id="line2d_16">
      <g>
       <use xlink:href="#ma472d8db8a" x="57.6" y="44.401154" style="stroke: #000000; stroke-width: 0.8"/>
      </g>
     </g>
     <g id="text_16">
      <!-- 1.0 -->
      <g transform="translate(34.696875 48.200373)scale(0.1 -0.1)">
       <use xlink:href="#DejaVuSans-31"/>
       <use xlink:href="#DejaVuSans-2e" x="63.623047"/>
       <use xlink:href="#DejaVuSans-30" x="95.410156"/>
      </g>
     </g>
    </g>
   </g>
   <g id="line2d_17">
    <defs>
     <path id="maa4cc17569" d="M 0 3 
C 0.795609 3 1.55874 2.683901 2.12132 2.12132 
C 2.683901 1.55874 3 0.795609 3 0 
C 3 -0.795609 2.683901 -1.55874 2.12132 -2.12132 
C 1.55874 -2.683901 0.795609 -3 0 -3 
C -0.795609 -3 -1.55874 -2.683901 -2.12132 -2.12132 
C -2.683901 -1.55874 -3 -0.795609 -3 0 
C -3 0.795609 -2.683901 1.55874 -2.12132 2.12132 
C -1.55874 2.683901 -0.795609 3 0 3 
z
" style="stroke: #1f77b4"/>
    </defs>
    <g clip-path="url(#p1adfe3b1f4)">
     <use xlink:href="#maa4cc17569" x="166.484599" y="133.731935" style="fill: #1f77b4; stroke: #1f77b4"/>
     <use xlink:href="#maa4cc17569" x="199.49357" y="186.281805" style="fill: #1f77b4; stroke: #1f77b4"/>
     <use xlink:href="#maa4cc17569" x="177.188254" y="71.703729" style="fill: #1f77b4; stroke: #1f77b4"/>
     <use xlink:href="#maa4cc17569" x="165.704824" y="53.568" style="fill: #1f77b4; stroke: #1f77b4"/>
     <use xlink:href="#maa4cc17569" x="141.653112" y="199.941213" style="fill: #1f77b4; stroke: #1f77b4"/>
    </g>
   </g>
   <g id="line2d_18">
    <defs>
     <path id="m14cf9e12eb" d="M 0 1.5 
C 0.397805 1.5 0.77937 1.341951 1.06066 1.06066 
C 1.341951 0.77937 1.5 0.397805 1.5 0 
C 1.5 -0.397805 1.341951 -0.77937 1.06066 -1.06066 
C 0.77937 -1.341951 0.397805 -1.5 0 -1.5 
C -0.397805 -1.5 -0.77937 -1.341951 -1.06066 -1.06066 
C -1.341951 -0.77937 -1.5 -0.397805 -1.5 0 
C -1.5 0.397805 -1.341951 0.77937 -1.06066 1.06066 
C -0.77937 1.341951 -0.397805 1.5 0 1.5 
z
" style="stroke: #ff7f0e"/>
    </defs>
    <g clip-path="url(#p1adfe3b1f4)">
     <use xlink:href="#m14cf9e12eb" x="214.678248" y="274.692306" style="fill: #ff7f0e; stroke: #ff7f0e"/>
     <use xlink:href="#m14cf9e12eb" x="162.532752" y="291.572011" style="fill: #ff7f0e; stroke: #ff7f0e"/>
     <use xlink:href="#m14cf9e12eb" x="170.300041" y="86.626377" style="fill: #ff7f0e; stroke: #ff7f0e"/>
     <use xlink:href="#m14cf9e12eb" x="241.238373" y="100.365857" style="fill: #ff7f0e; stroke: #ff7f0e"/>
     <use xlink:href="#m14cf9e12eb" x="71.693554" y="77.193369" style="fill: #ff7f0e; stroke: #ff7f0e"/>
    </g>
   </g>
   <g id="line2d_19">
    <defs>
     <path id="me49c98beb6" d="M -0.49999 0.49999 
L 0.50001 0.49999 
L 0.50001 -0.50001 
L -0.49999 -0.50001 
z
"/>
    </defs>
    <g clip-path="url(#p1adfe3b1f4)">
     <use xlink:href="#me49c98beb6" x="251.757879" y="135.238775" style="fill: #2ca02c"/>
     <use xlink:href="#me49c98beb6" x="216.153059" y="260.508603" style="fill: #2ca02c"/>
     <use xlink:href="#me49c98beb6" x="149.157505" y="58.359603" style="fill: #2ca02c"/>
     <use xlink:href="#me49c98beb6" x="212.456989" y="165.025138" style="fill: #2ca02c"/>
     <use xlink:href="#me49c98beb6" x="81.065646" y="192.065195" style="fill: #2ca02c"/>
    </g>
   </g>
   <g id="line2d_20">
    <defs>
     <path id="mc70aa7317a" d="M -3 3 
L 3 -3 
M -3 -3 
L 3 3 
" style="stroke: #d62728"/>
    </defs>
    <g clip-path="url(#p1adfe3b1f4)">
     <use xlink:href="#mc70aa7317a" x="110.087833" y="140.860775" style="fill: #d62728; stroke: #d62728"/>
     <use xlink:href="#mc70aa7317a" x="211.207964" y="142.258302" style="fill: #d62728; stroke: #d62728"/>
     <use xlink:href="#mc70aa7317a" x="148.100226" y="141.037744" style="fill: #d62728; stroke: #d62728"/>
     <use xlink:href="#mc70aa7317a" x="170.377295" y="58.591904" style="fill: #d62728; stroke: #d62728"/>
     <use xlink:href="#mc70aa7317a" x="61.327896" y="124.668787" style="fill: #d62728; stroke: #d62728"/>
    </g>
   </g>
   <g id="line2d_21">
    <defs>
     <path id="m5fc848d1bf" d="M -3 0 
L 3 0 
M 0 3 
L 0 -3 
" style="stroke: #9467bd"/>
    </defs>
    <g clip-path="url(#p1adfe3b1f4)">
     <use xlink:href="#m5fc848d1bf" x="128.926367" y="127.489794" style="fill: #9467bd; stroke: #9467bd"/>
     <use xlink:href="#m5fc848d1bf" x="144.30714" y="243.599035" style="fill: #9467bd; stroke: #9467bd"/>
     <use xlink:href="#m5fc848d1bf" x="196.010029" y="264.148119" style="fill: #9467bd; stroke: #9467bd"/>
     <use xlink:href="#m5fc848d1bf" x="69.548734" y="217.098989" style="fill: #9467bd; stroke: #9467bd"/>
     <use xlink:href="#m5fc848d1bf" x="189.886516" y="204.918716" style="fill: #9467bd; stroke: #9467bd"/>
    </g>
   </g>
   <g id="line2d_22">
    <defs>
     <path id="m5b254fd603" d="M -0 3 
L 3 -3 
L -3 -3 
z
" style="stroke: #8c564b; stroke-linejoin: miter"/>
    </defs>
    <g clip-path="url(#p1adfe3b1f4)">
     <use xlink:href="#m5b254fd603" x="170.727039" y="255.97876" style="fill: #8c564b; stroke: #8c564b; stroke-linejoin: miter"/>
     <use xlink:href="#m5b254fd603" x="144.61854" y="131.911996" style="fill: #8c564b; stroke: #8c564b; stroke-linejoin: miter"/>
     <use xlink:href="#m5b254fd603" x="253.693369" y="232.774312" style="fill: #8c564b; stroke: #8c564b; stroke-linejoin: miter"/>
     <use xlink:href="#m5b254fd603" x="77.84569" y="179.035672" style="fill: #8c564b; stroke: #8c564b; stroke-linejoin: miter"/>
     <use xlink:href="#m5b254fd603" x="99.041148" y="235.010953" style="fill: #8c564b; stroke: #8c564b; stroke-linejoin: miter"/>
    </g>
   </g>
   <g id="line2d_23">
    <path d="M 89.139565 203.653727 
L 79.498428 89.559439 
L 187.815791 272.176661 
L 85.015498 85.283016 
L 96.601941 272.429656 
" clip-path="url(#p1adfe3b1f4)" style="fill: none; stroke: #ffffff; stroke-width: 1.5; stroke-linecap: square"/>
   </g>
   <g id="line2d_24">
    <defs>
     <path id="md79ef7b698" d="M -3 -0 
L 3 3 
L 3 -3 
z
" style="stroke: #e377c2; stroke-linejoin: miter"/>
    </defs>
    <g clip-path="url(#p1adfe3b1f4)">
     <use xlink:href="#md79ef7b698" x="251.329558" y="286.786576" style="fill: #e377c2; stroke: #e377c2; stroke-linejoin: miter"/>
     <use xlink:href="#md79ef7b698" x="150.580398" y="225.328432" style="fill: #e377c2; stroke: #e377c2; stroke-linejoin: miter"/>
     <use xlink:href="#md79ef7b698" x="251.3894" y="266.350382" style="fill: #e377c2; stroke: #e377c2; stroke-linejoin: miter"/>
     <use xlink:href="#md79ef7b698" x="177.601351" y="221.964838" style="fill: #e377c2; stroke: #e377c2; stroke-linejoin: miter"/>
     <use xlink:href="#md79ef7b698" x="204.269894" y="266.720929" style="fill: #e377c2; stroke: #e377c2; stroke-linejoin: miter"/>
    </g>
   </g>
   <g id="line2d_25">
    <defs>
     <path id="m3cdbcaeb33" d="M 3 0 
L -3 -3 
L -3 3 
z
" style="stroke: #7f7f7f; stroke-linejoin: miter"/>
    </defs>
    <g clip-path="url(#p1adfe3b1f4)">
     <use xlink:href="#m3cdbcaeb33" x="120.687863" y="229.722361" style="fill: #7f7f7f; stroke: #7f7f7f; stroke-linejoin: miter"/>
     <use xlink:href="#m3cdbcaeb33" x="139.789778" y="164.672026" style="fill: #7f7f7f; stroke: #7f7f7f; stroke-linejoin: miter"/>
     <use xlink:href="#m3cdbcaeb33" x="70.326863" y="272.974032" style="fill: #7f7f7f; stroke: #7f7f7f; stroke-linejoin: miter"/>
     <use xlink:href="#m3cdbcaeb33" x="194.986468" y="151.377717" style="fill: #7f7f7f; stroke: #7f7f7f; stroke-linejoin: miter"/>
     <use xlink:href="#m3cdbcaeb33" x="170.013729" y="62.2377" style="fill: #7f7f7f; stroke: #7f7f7f; stroke-linejoin: miter"/>
    </g>
   </g>
   <g id="line2d_26">
    <defs>
     <path id="ma35412f21c" d="M -3 3 
L 3 3 
L 3 -3 
L -3 -3 
z
" style="stroke: #bcbd22; stroke-linejoin: miter"/>
    </defs>
    <g clip-path="url(#p1adfe3b1f4)">
     <use xlink:href="#ma35412f21c" x="120.80408" y="250.458597" style="fill: #bcbd22; stroke: #bcbd22; stroke-linejoin: miter"/>
     <use xlink:href="#ma35412f21c" x="190.014219" y="148.712107" style="fill: #bcbd22; stroke: #bcbd22; stroke-linejoin: miter"/>
     <use xlink:href="#ma35412f21c" x="83.748696" y="291.599976" style="fill: #bcbd22; stroke: #bcbd22; stroke-linejoin: miter"/>
     <use xlink:href="#ma35412f21c" x="199.719317" y="87.554689" style="fill: #bcbd22; stroke: #bcbd22; stroke-linejoin: miter"/>
     <use xlink:href="#ma35412f21c" x="115.018169" y="295.488" style="fill: #bcbd22; stroke: #bcbd22; stroke-linejoin: miter"/>
    </g>
   </g>
   <g id="line2d_27">
    <defs>
     <path id="m46a06fc238" d="M 0 4.242641 
L 2.545584 0 
L 0 -4.242641 
L -2.545584 0 
z
" style="stroke: #17becf; stroke-linejoin: miter"/>
    </defs>
    <g clip-path="url(#p1adfe3b1f4)">
     <use xlink:href="#m46a06fc238" x="192.078801" y="151.324529" style="fill: #17becf; stroke: #17becf; stroke-linejoin: miter"/>
     <use xlink:href="#m46a06fc238" x="111.169582" y="147.317299" style="fill: #17becf; stroke: #17becf; stroke-linejoin: miter"/>
     <use xlink:href="#m46a06fc238" x="203.462494" y="152.309756" style="fill: #17becf; stroke: #17becf; stroke-linejoin: miter"/>
     <use xlink:href="#m46a06fc238" x="248.498207" y="240.395423" style="fill: #17becf; stroke: #17becf; stroke-linejoin: miter"/>
     <use xlink:href="#m46a06fc238" x="106.952624" y="56.321227" style="fill: #17becf; stroke: #17becf; stroke-linejoin: miter"/>
    </g>
   </g>
   <g id="patch_3">
    <path d="M 57.6 307.584 
L 57.6 41.472 
" style="fill: none; stroke: #000000; stroke-width: 0.8; stroke-linejoin: miter; stroke-linecap: square"/>
   </g>
   <g id="patch_4">
    <path d="M 414.72 307.584 
L 414.72 41.472 
" style="fill: none; stroke: #000000; stroke-width: 0.8; stroke-linejoin: miter; stroke-linecap: square"/>
   </g>
   <g id="patch_5">
    <path d="M 57.6 307.584 
L 414.72 307.584 
" style="fill: none; stroke: #000000; stroke-width: 0.8; stroke-linejoin: miter; stroke-linecap: square"/>
   </g>
   <g id="patch_6">
    <path d="M 57.6 41.472 
L 414.72 41.472 
" style="fill: none; stroke: #000000; stroke-width: 0.8; stroke-linejoin: miter; stroke-linecap: square"/>
   </g>
   <g id="legend_1">
    <g id="patch_7">
     <path d="M 317.791875 210.931375 
L 407.72 210.931375 
Q 409.72 210.931375 409.72 208.931375 
L 409.72 48.472 
Q 409.72 46.472 407.72 46.472 
L 317.791875 46.472 
Q 315.791875 46.472 315.791875 48.472 
L 315.791875 208.931375 
Q 315.791875 210.931375 317.791875 210.931375 
z
" style="fill: #ffffff; opacity: 0.8; stroke: #cccccc; stroke-linejoin: miter"/>
    </g>
    <g id="line2d_28">
     <g>
      <use xlink:href="#maa4cc17569" x="329.791875" y="54.570437" style="fill: #1f77b4; stroke: #1f77b4"/>
     </g>
    </g>
    <g id="text_17">
     <!-- marker='o' -->
     <g transform="translate(347.791875 58.070437)scale(0.1 -0.1)">
      <defs>
       <path id="DejaVuSans-6d" d="M 3328 2828 
Q 3544 3216 3844 3400 
Q 4144 3584 4550 3584 
Q 5097 3584 5394 3201 
Q 5691 2819 5691 2113 
L 5691 0 
L 5113 0 
L 5113 2094 
Q 5113 2597 4934 2840 
Q 4756 3084 4391 3084 
Q 3944 3084 3684 2787 
Q 3425 2491 3425 1978 
L 3425 0 
L 2847 0 
L 2847 2094 
Q 2847 2600 2669 2842 
Q 2491 3084 2119 3084 
Q 1678 3084 1418 2786 
Q 1159 2488 1159 1978 
L 1159 0 
L 581 0 
L 581 3500 
L 1159 3500 
L 1159 2956 
Q 1356 3278 1631 3431 
Q 1906 3584 2284 3584 
Q 2666 3584 2933 3390 
Q 3200 3197 3328 2828 
z
" transform="scale(0.015625)"/>
       <path id="DejaVuSans-61" d="M 2194 1759 
Q 1497 1759 1228 1600 
Q 959 1441 959 1056 
Q 959 750 1161 570 
Q 1363 391 1709 391 
Q 2188 391 2477 730 
Q 2766 1069 2766 1631 
L 2766 1759 
L 2194 1759 
z
M 3341 1997 
L 3341 0 
L 2766 0 
L 2766 531 
Q 2569 213 2275 61 
Q 1981 -91 1556 -91 
Q 1019 -91 701 211 
Q 384 513 384 1019 
Q 384 1609 779 1909 
Q 1175 2209 1959 2209 
L 2766 2209 
L 2766 2266 
Q 2766 2663 2505 2880 
Q 2244 3097 1772 3097 
Q 1472 3097 1187 3025 
Q 903 2953 641 2809 
L 641 3341 
Q 956 3463 1253 3523 
Q 1550 3584 1831 3584 
Q 2591 3584 2966 3190 
Q 3341 2797 3341 1997 
z
" transform="scale(0.015625)"/>
       <path id="DejaVuSans-72" d="M 2631 2963 
Q 2534 3019 2420 3045 
Q 2306 3072 2169 3072 
Q 1681 3072 1420 2755 
Q 1159 2438 1159 1844 
L 1159 0 
L 581 0 
L 581 3500 
L 1159 3500 
L 1159 2956 
Q 1341 3275 1631 3429 
Q 1922 3584 2338 3584 
Q 2397 3584 2469 3576 
Q 2541 3569 2628 3553 
L 2631 2963 
z
" transform="scale(0.015625)"/>
       <path id="DejaVuSans-6b" d="M 581 4863 
L 1159 4863 
L 1159 1991 
L 2875 3500 
L 3609 3500 
L 1753 1863 
L 3688 0 
L 2938 0 
L 1159 1709 
L 1159 0 
L 581 0 
L 581 4863 
z
" transform="scale(0.015625)"/>
       <path id="DejaVuSans-65" d="M 3597 1894 
L 3597 1613 
L 953 1613 
Q 991 1019 1311 708 
Q 1631 397 2203 397 
Q 2534 397 2845 478 
Q 3156 559 3463 722 
L 3463 178 
Q 3153 47 2828 -22 
Q 2503 -91 2169 -91 
Q 1331 -91 842 396 
Q 353 884 353 1716 
Q 353 2575 817 3079 
Q 1281 3584 2069 3584 
Q 2775 3584 3186 3129 
Q 3597 2675 3597 1894 
z
M 3022 2063 
Q 3016 2534 2758 2815 
Q 2500 3097 2075 3097 
Q 1594 3097 1305 2825 
Q 1016 2553 972 2059 
L 3022 2063 
z
" transform="scale(0.015625)"/>
       <path id="DejaVuSans-3d" d="M 678 2906 
L 4684 2906 
L 4684 2381 
L 678 2381 
L 678 2906 
z
M 678 1631 
L 4684 1631 
L 4684 1100 
L 678 1100 
L 678 1631 
z
" transform="scale(0.015625)"/>
       <path id="DejaVuSans-27" d="M 1147 4666 
L 1147 2931 
L 616 2931 
L 616 4666 
L 1147 4666 
z
" transform="scale(0.015625)"/>
       <path id="DejaVuSans-6f" d="M 1959 3097 
Q 1497 3097 1228 2736 
Q 959 2375 959 1747 
Q 959 1119 1226 758 
Q 1494 397 1959 397 
Q 2419 397 2687 759 
Q 2956 1122 2956 1747 
Q 2956 2369 2687 2733 
Q 2419 3097 1959 3097 
z
M 1959 3584 
Q 2709 3584 3137 3096 
Q 3566 2609 3566 1747 
Q 3566 888 3137 398 
Q 2709 -91 1959 -91 
Q 1206 -91 779 398 
Q 353 888 353 1747 
Q 353 2609 779 3096 
Q 1206 3584 1959 3584 
z
" transform="scale(0.015625)"/>
      </defs>
      <use xlink:href="#DejaVuSans-6d"/>
      <use xlink:href="#DejaVuSans-61" x="97.412109"/>
      <use xlink:href="#DejaVuSans-72" x="158.691406"/>
      <use xlink:href="#DejaVuSans-6b" x="199.804688"/>
      <use xlink:href="#DejaVuSans-65" x="254.089844"/>
      <use xlink:href="#DejaVuSans-72" x="315.613281"/>
      <use xlink:href="#DejaVuSans-3d" x="356.726562"/>
      <use xlink:href="#DejaVuSans-27" x="440.515625"/>
      <use xlink:href="#DejaVuSans-6f" x="468.005859"/>
      <use xlink:href="#DejaVuSans-27" x="529.1875"/>
     </g>
    </g>
    <g id="line2d_29">
     <g>
      <use xlink:href="#m14cf9e12eb" x="329.791875" y="69.248562" style="fill: #ff7f0e; stroke: #ff7f0e"/>
     </g>
    </g>
    <g id="text_18">
     <!-- marker='.' -->
     <g transform="translate(347.791875 72.748562)scale(0.1 -0.1)">
      <use xlink:href="#DejaVuSans-6d"/>
      <use xlink:href="#DejaVuSans-61" x="97.412109"/>
      <use xlink:href="#DejaVuSans-72" x="158.691406"/>
      <use xlink:href="#DejaVuSans-6b" x="199.804688"/>
      <use xlink:href="#DejaVuSans-65" x="254.089844"/>
      <use xlink:href="#DejaVuSans-72" x="315.613281"/>
      <use xlink:href="#DejaVuSans-3d" x="356.726562"/>
      <use xlink:href="#DejaVuSans-27" x="440.515625"/>
      <use xlink:href="#DejaVuSans-2e" x="468.005859"/>
      <use xlink:href="#DejaVuSans-27" x="499.792969"/>
     </g>
    </g>
    <g id="line2d_30">
     <g>
      <use xlink:href="#me49c98beb6" x="329.791875" y="83.926688" style="fill: #2ca02c"/>
     </g>
    </g>
    <g id="text_19">
     <!-- marker=',' -->
     <g transform="translate(347.791875 87.426688)scale(0.1 -0.1)">
      <defs>
       <path id="DejaVuSans-2c" d="M 750 794 
L 1409 794 
L 1409 256 
L 897 -744 
L 494 -744 
L 750 256 
L 750 794 
z
" transform="scale(0.015625)"/>
      </defs>
      <use xlink:href="#DejaVuSans-6d"/>
      <use xlink:href="#DejaVuSans-61" x="97.412109"/>
      <use xlink:href="#DejaVuSans-72" x="158.691406"/>
      <use xlink:href="#DejaVuSans-6b" x="199.804688"/>
      <use xlink:href="#DejaVuSans-65" x="254.089844"/>
      <use xlink:href="#DejaVuSans-72" x="315.613281"/>
      <use xlink:href="#DejaVuSans-3d" x="356.726562"/>
      <use xlink:href="#DejaVuSans-27" x="440.515625"/>
      <use xlink:href="#DejaVuSans-2c" x="468.005859"/>
      <use xlink:href="#DejaVuSans-27" x="499.792969"/>
     </g>
    </g>
    <g id="line2d_31">
     <g>
      <use xlink:href="#mc70aa7317a" x="329.791875" y="98.604812" style="fill: #d62728; stroke: #d62728"/>
     </g>
    </g>
    <g id="text_20">
     <!-- marker='x' -->
     <g transform="translate(347.791875 102.104812)scale(0.1 -0.1)">
      <defs>
       <path id="DejaVuSans-78" d="M 3513 3500 
L 2247 1797 
L 3578 0 
L 2900 0 
L 1881 1375 
L 863 0 
L 184 0 
L 1544 1831 
L 300 3500 
L 978 3500 
L 1906 2253 
L 2834 3500 
L 3513 3500 
z
" transform="scale(0.015625)"/>
      </defs>
      <use xlink:href="#DejaVuSans-6d"/>
      <use xlink:href="#DejaVuSans-61" x="97.412109"/>
      <use xlink:href="#DejaVuSans-72" x="158.691406"/>
      <use xlink:href="#DejaVuSans-6b" x="199.804688"/>
      <use xlink:href="#DejaVuSans-65" x="254.089844"/>
      <use xlink:href="#DejaVuSans-72" x="315.613281"/>
      <use xlink:href="#DejaVuSans-3d" x="356.726562"/>
      <use xlink:href="#DejaVuSans-27" x="440.515625"/>
      <use xlink:href="#DejaVuSans-78" x="468.005859"/>
      <use xlink:href="#DejaVuSans-27" x="527.185547"/>
     </g>
    </g>
    <g id="line2d_32">
     <g>
      <use xlink:href="#m5fc848d1bf" x="329.791875" y="113.282938" style="fill: #9467bd; stroke: #9467bd"/>
     </g>
    </g>
    <g id="text_21">
     <!-- marker='+' -->
     <g transform="translate(347.791875 116.782938)scale(0.1 -0.1)">
      <defs>
       <path id="DejaVuSans-2b" d="M 2944 4013 
L 2944 2272 
L 4684 2272 
L 4684 1741 
L 2944 1741 
L 2944 0 
L 2419 0 
L 2419 1741 
L 678 1741 
L 678 2272 
L 2419 2272 
L 2419 4013 
L 2944 4013 
z
" transform="scale(0.015625)"/>
      </defs>
      <use xlink:href="#DejaVuSans-6d"/>
      <use xlink:href="#DejaVuSans-61" x="97.412109"/>
      <use xlink:href="#DejaVuSans-72" x="158.691406"/>
      <use xlink:href="#DejaVuSans-6b" x="199.804688"/>
      <use xlink:href="#DejaVuSans-65" x="254.089844"/>
      <use xlink:href="#DejaVuSans-72" x="315.613281"/>
      <use xlink:href="#DejaVuSans-3d" x="356.726562"/>
      <use xlink:href="#DejaVuSans-27" x="440.515625"/>
      <use xlink:href="#DejaVuSans-2b" x="468.005859"/>
      <use xlink:href="#DejaVuSans-27" x="551.794922"/>
     </g>
    </g>
    <g id="line2d_33">
     <g>
      <use xlink:href="#m5b254fd603" x="329.791875" y="127.961062" style="fill: #8c564b; stroke: #8c564b; stroke-linejoin: miter"/>
     </g>
    </g>
    <g id="text_22">
     <!-- marker='v' -->
     <g transform="translate(347.791875 131.461062)scale(0.1 -0.1)">
      <defs>
       <path id="DejaVuSans-76" d="M 191 3500 
L 800 3500 
L 1894 563 
L 2988 3500 
L 3597 3500 
L 2284 0 
L 1503 0 
L 191 3500 
z
" transform="scale(0.015625)"/>
      </defs>
      <use xlink:href="#DejaVuSans-6d"/>
      <use xlink:href="#DejaVuSans-61" x="97.412109"/>
      <use xlink:href="#DejaVuSans-72" x="158.691406"/>
      <use xlink:href="#DejaVuSans-6b" x="199.804688"/>
      <use xlink:href="#DejaVuSans-65" x="254.089844"/>
      <use xlink:href="#DejaVuSans-72" x="315.613281"/>
      <use xlink:href="#DejaVuSans-3d" x="356.726562"/>
      <use xlink:href="#DejaVuSans-27" x="440.515625"/>
      <use xlink:href="#DejaVuSans-76" x="468.005859"/>
      <use xlink:href="#DejaVuSans-27" x="527.185547"/>
     </g>
    </g>
    <g id="line2d_34">
     <path d="M 319.791875 142.639187 
L 329.791875 142.639187 
L 339.791875 142.639187 
" style="fill: none; stroke: #ffffff; stroke-width: 1.5; stroke-linecap: square"/>
    </g>
    <g id="text_23">
     <!-- marker='w' -->
     <g transform="translate(347.791875 146.139187)scale(0.1 -0.1)">
      <defs>
       <path id="DejaVuSans-77" d="M 269 3500 
L 844 3500 
L 1563 769 
L 2278 3500 
L 2956 3500 
L 3675 769 
L 4391 3500 
L 4966 3500 
L 4050 0 
L 3372 0 
L 2619 2869 
L 1863 0 
L 1184 0 
L 269 3500 
z
" transform="scale(0.015625)"/>
      </defs>
      <use xlink:href="#DejaVuSans-6d"/>
      <use xlink:href="#DejaVuSans-61" x="97.412109"/>
      <use xlink:href="#DejaVuSans-72" x="158.691406"/>
      <use xlink:href="#DejaVuSans-6b" x="199.804688"/>
      <use xlink:href="#DejaVuSans-65" x="254.089844"/>
      <use xlink:href="#DejaVuSans-72" x="315.613281"/>
      <use xlink:href="#DejaVuSans-3d" x="356.726562"/>
      <use xlink:href="#DejaVuSans-27" x="440.515625"/>
      <use xlink:href="#DejaVuSans-77" x="468.005859"/>
      <use xlink:href="#DejaVuSans-27" x="549.792969"/>
     </g>
    </g>
    <g id="line2d_35">
     <g>
      <use xlink:href="#md79ef7b698" x="329.791875" y="157.317312" style="fill: #e377c2; stroke: #e377c2; stroke-linejoin: miter"/>
     </g>
    </g>
    <g id="text_24">
     <!-- marker='&lt;' -->
     <g transform="translate(347.791875 160.817312)scale(0.1 -0.1)">
      <defs>
       <path id="DejaVuSans-3c" d="M 4684 3150 
L 1459 2003 
L 4684 863 
L 4684 294 
L 678 1747 
L 678 2266 
L 4684 3719 
L 4684 3150 
z
" transform="scale(0.015625)"/>
      </defs>
      <use xlink:href="#DejaVuSans-6d"/>
      <use xlink:href="#DejaVuSans-61" x="97.412109"/>
      <use xlink:href="#DejaVuSans-72" x="158.691406"/>
      <use xlink:href="#DejaVuSans-6b" x="199.804688"/>
      <use xlink:href="#DejaVuSans-65" x="254.089844"/>
      <use xlink:href="#DejaVuSans-72" x="315.613281"/>
      <use xlink:href="#DejaVuSans-3d" x="356.726562"/>
      <use xlink:href="#DejaVuSans-27" x="440.515625"/>
      <use xlink:href="#DejaVuSans-3c" x="468.005859"/>
      <use xlink:href="#DejaVuSans-27" x="551.794922"/>
     </g>
    </g>
    <g id="line2d_36">
     <g>
      <use xlink:href="#m3cdbcaeb33" x="329.791875" y="171.995437" style="fill: #7f7f7f; stroke: #7f7f7f; stroke-linejoin: miter"/>
     </g>
    </g>
    <g id="text_25">
     <!-- marker='&gt;' -->
     <g transform="translate(347.791875 175.495437)scale(0.1 -0.1)">
      <defs>
       <path id="DejaVuSans-3e" d="M 678 3150 
L 678 3719 
L 4684 2266 
L 4684 1747 
L 678 294 
L 678 863 
L 3897 2003 
L 678 3150 
z
" transform="scale(0.015625)"/>
      </defs>
      <use xlink:href="#DejaVuSans-6d"/>
      <use xlink:href="#DejaVuSans-61" x="97.412109"/>
      <use xlink:href="#DejaVuSans-72" x="158.691406"/>
      <use xlink:href="#DejaVuSans-6b" x="199.804688"/>
      <use xlink:href="#DejaVuSans-65" x="254.089844"/>
      <use xlink:href="#DejaVuSans-72" x="315.613281"/>
      <use xlink:href="#DejaVuSans-3d" x="356.726562"/>
      <use xlink:href="#DejaVuSans-27" x="440.515625"/>
      <use xlink:href="#DejaVuSans-3e" x="468.005859"/>
      <use xlink:href="#DejaVuSans-27" x="551.794922"/>
     </g>
    </g>
    <g id="line2d_37">
     <g>
      <use xlink:href="#ma35412f21c" x="329.791875" y="186.673562" style="fill: #bcbd22; stroke: #bcbd22; stroke-linejoin: miter"/>
     </g>
    </g>
    <g id="text_26">
     <!-- marker='s' -->
     <g transform="translate(347.791875 190.173562)scale(0.1 -0.1)">
      <defs>
       <path id="DejaVuSans-73" d="M 2834 3397 
L 2834 2853 
Q 2591 2978 2328 3040 
Q 2066 3103 1784 3103 
Q 1356 3103 1142 2972 
Q 928 2841 928 2578 
Q 928 2378 1081 2264 
Q 1234 2150 1697 2047 
L 1894 2003 
Q 2506 1872 2764 1633 
Q 3022 1394 3022 966 
Q 3022 478 2636 193 
Q 2250 -91 1575 -91 
Q 1294 -91 989 -36 
Q 684 19 347 128 
L 347 722 
Q 666 556 975 473 
Q 1284 391 1588 391 
Q 1994 391 2212 530 
Q 2431 669 2431 922 
Q 2431 1156 2273 1281 
Q 2116 1406 1581 1522 
L 1381 1569 
Q 847 1681 609 1914 
Q 372 2147 372 2553 
Q 372 3047 722 3315 
Q 1072 3584 1716 3584 
Q 2034 3584 2315 3537 
Q 2597 3491 2834 3397 
z
" transform="scale(0.015625)"/>
      </defs>
      <use xlink:href="#DejaVuSans-6d"/>
      <use xlink:href="#DejaVuSans-61" x="97.412109"/>
      <use xlink:href="#DejaVuSans-72" x="158.691406"/>
      <use xlink:href="#DejaVuSans-6b" x="199.804688"/>
      <use xlink:href="#DejaVuSans-65" x="254.089844"/>
      <use xlink:href="#DejaVuSans-72" x="315.613281"/>
      <use xlink:href="#DejaVuSans-3d" x="356.726562"/>
      <use xlink:href="#DejaVuSans-27" x="440.515625"/>
      <use xlink:href="#DejaVuSans-73" x="468.005859"/>
      <use xlink:href="#DejaVuSans-27" x="520.105469"/>
     </g>
    </g>
    <g id="line2d_38">
     <g>
      <use xlink:href="#m46a06fc238" x="329.791875" y="201.351687" style="fill: #17becf; stroke: #17becf; stroke-linejoin: miter"/>
     </g>
    </g>
    <g id="text_27">
     <!-- marker='d' -->
     <g transform="translate(347.791875 204.851687)scale(0.1 -0.1)">
      <defs>
       <path id="DejaVuSans-64" d="M 2906 2969 
L 2906 4863 
L 3481 4863 
L 3481 0 
L 2906 0 
L 2906 525 
Q 2725 213 2448 61 
Q 2172 -91 1784 -91 
Q 1150 -91 751 415 
Q 353 922 353 1747 
Q 353 2572 751 3078 
Q 1150 3584 1784 3584 
Q 2172 3584 2448 3432 
Q 2725 3281 2906 2969 
z
M 947 1747 
Q 947 1113 1208 752 
Q 1469 391 1925 391 
Q 2381 391 2643 752 
Q 2906 1113 2906 1747 
Q 2906 2381 2643 2742 
Q 2381 3103 1925 3103 
Q 1469 3103 1208 2742 
Q 947 2381 947 1747 
z
" transform="scale(0.015625)"/>
      </defs>
      <use xlink:href="#DejaVuSans-6d"/>
      <use xlink:href="#DejaVuSans-61" x="97.412109"/>
      <use xlink:href="#DejaVuSans-72" x="158.691406"/>
      <use xlink:href="#DejaVuSans-6b" x="199.804688"/>
      <use xlink:href="#DejaVuSans-65" x="254.089844"/>
      <use xlink:href="#DejaVuSans-72" x="315.613281"/>
      <use xlink:href="#DejaVuSans-3d" x="356.726562"/>
      <use xlink:href="#DejaVuSans-27" x="440.515625"/>
      <use xlink:href="#DejaVuSans-64" x="468.005859"/>
      <use xlink:href="#DejaVuSans-27" x="531.482422"/>
     </g>
    </g>
   </g>
  </g>
 </g>
 <defs>
  <clipPath id="p1adfe3b1f4">
   <rect x="57.6" y="41.472" width="357.12" height="266.112"/>
  </clipPath>
 </defs>
</svg>
