<?xml version="1.0" encoding="utf-8" standalone="no"?>
<!DOCTYPE svg PUBLIC "-//W3C//DTD SVG 1.1//EN"
  "http://www.w3.org/Graphics/SVG/1.1/DTD/svg11.dtd">
<svg xmlns:xlink="http://www.w3.org/1999/xlink" width="460.8pt" height="345.6pt" viewBox="0 0 460.8 345.6" xmlns="http://www.w3.org/2000/svg" version="1.1">
 <metadata>
  <rdf:RDF xmlns:dc="http://purl.org/dc/elements/1.1/" xmlns:cc="http://creativecommons.org/ns#" xmlns:rdf="http://www.w3.org/1999/02/22-rdf-syntax-ns#">
   <cc:Work>
    <dc:type rdf:resource="http://purl.org/dc/dcmitype/StillImage"/>
    <dc:date>2022-10-04T08:30:10.475685</dc:date>
    <dc:format>image/svg+xml</dc:format>
    <dc:creator>
     <cc:Agent>
      <dc:title>Matplotlib v3.5.3, https://matplotlib.org/</dc:title>
     </cc:Agent>
    </dc:creator>
   </cc:Work>
  </rdf:RDF>
 </metadata>
 <defs>
  <style type="text/css">*{stroke-linejoin: round; stroke-linecap: butt}</style>
 </defs>
 <g id="figure_1">
  <g id="patch_1">
   <path d="M 0 345.6 
L 460.8 345.6 
L 460.8 0 
L 0 0 
z
" style="fill: #ffffff"/>
  </g>
  <g id="axes_1">
   <g id="patch_2">
    <path d="M 57.6 307.584 
L 414.72 307.584 
L 414.72 41.472 
L 57.6 41.472 
z
" style="fill: #ffffff"/>
   </g>
   <g id="matplotlib.axis_1">
    <g id="xtick_1">
     <g id="line2d_1">
      <path d="M 57.6 307.584 
L 57.6 41.472 
" clip-path="url(#p72e2a15f8a)" style="fill: none; stroke: #cccccc; stroke-width: 0.8; stroke-linecap: round"/>
     </g>
     <g id="line2d_2"/>
     <g id="text_1">
      <!-- −6 -->
      <g style="fill: #262626" transform="translate(51.899219 318.241812)scale(0.1 -0.1)">
       <defs>
        <path id="ArialMT-2212" d="M 3381 1997 
L 356 1997 
L 356 2522 
L 3381 2522 
L 3381 1997 
z
" transform="scale(0.015625)"/>
        <path id="ArialMT-36" d="M 3184 3459 
L 2625 3416 
Q 2550 3747 2413 3897 
Q 2184 4138 1850 4138 
Q 1581 4138 1378 3988 
Q 1113 3794 959 3422 
Q 806 3050 800 2363 
Q 1003 2672 1297 2822 
Q 1591 2972 1913 2972 
Q 2475 2972 2870 2558 
Q 3266 2144 3266 1488 
Q 3266 1056 3080 686 
Q 2894 316 2569 119 
Q 2244 -78 1831 -78 
Q 1128 -78 684 439 
Q 241 956 241 2144 
Q 241 3472 731 4075 
Q 1159 4600 1884 4600 
Q 2425 4600 2770 4297 
Q 3116 3994 3184 3459 
z
M 888 1484 
Q 888 1194 1011 928 
Q 1134 663 1356 523 
Q 1578 384 1822 384 
Q 2178 384 2434 671 
Q 2691 959 2691 1453 
Q 2691 1928 2437 2201 
Q 2184 2475 1800 2475 
Q 1419 2475 1153 2201 
Q 888 1928 888 1484 
z
" transform="scale(0.015625)"/>
       </defs>
       <use xlink:href="#ArialMT-2212"/>
       <use xlink:href="#ArialMT-36" x="58.398438"/>
      </g>
     </g>
    </g>
    <g id="xtick_2">
     <g id="line2d_3">
      <path d="M 117.12 307.584 
L 117.12 41.472 
" clip-path="url(#p72e2a15f8a)" style="fill: none; stroke: #cccccc; stroke-width: 0.8; stroke-linecap: round"/>
     </g>
     <g id="line2d_4"/>
     <g id="text_2">
      <!-- −4 -->
      <g style="fill: #262626" transform="translate(111.419219 318.241812)scale(0.1 -0.1)">
       <defs>
        <path id="ArialMT-34" d="M 2069 0 
L 2069 1097 
L 81 1097 
L 81 1613 
L 2172 4581 
L 2631 4581 
L 2631 1613 
L 3250 1613 
L 3250 1097 
L 2631 1097 
L 2631 0 
L 2069 0 
z
M 2069 1613 
L 2069 3678 
L 634 1613 
L 2069 1613 
z
" transform="scale(0.015625)"/>
       </defs>
       <use xlink:href="#ArialMT-2212"/>
       <use xlink:href="#ArialMT-34" x="58.398438"/>
      </g>
     </g>
    </g>
    <g id="xtick_3">
     <g id="line2d_5">
      <path d="M 176.64 307.584 
L 176.64 41.472 
" clip-path="url(#p72e2a15f8a)" style="fill: none; stroke: #cccccc; stroke-width: 0.8; stroke-linecap: round"/>
     </g>
     <g id="line2d_6"/>
     <g id="text_3">
      <!-- −2 -->
      <g style="fill: #262626" transform="translate(170.939219 318.241812)scale(0.1 -0.1)">
       <defs>
        <path id="ArialMT-32" d="M 3222 541 
L 3222 0 
L 194 0 
Q 188 203 259 391 
Q 375 700 629 1000 
Q 884 1300 1366 1694 
Q 2113 2306 2375 2664 
Q 2638 3022 2638 3341 
Q 2638 3675 2398 3904 
Q 2159 4134 1775 4134 
Q 1369 4134 1125 3890 
Q 881 3647 878 3216 
L 300 3275 
Q 359 3922 746 4261 
Q 1134 4600 1788 4600 
Q 2447 4600 2831 4234 
Q 3216 3869 3216 3328 
Q 3216 3053 3103 2787 
Q 2991 2522 2730 2228 
Q 2469 1934 1863 1422 
Q 1356 997 1212 845 
Q 1069 694 975 541 
L 3222 541 
z
" transform="scale(0.015625)"/>
       </defs>
       <use xlink:href="#ArialMT-2212"/>
       <use xlink:href="#ArialMT-32" x="58.398438"/>
      </g>
     </g>
    </g>
    <g id="xtick_4">
     <g id="line2d_7">
      <path d="M 236.16 307.584 
L 236.16 41.472 
" clip-path="url(#p72e2a15f8a)" style="fill: none; stroke: #cccccc; stroke-width: 0.8; stroke-linecap: round"/>
     </g>
     <g id="line2d_8"/>
     <g id="text_4">
      <!-- 0 -->
      <g style="fill: #262626" transform="translate(233.379531 318.241812)scale(0.1 -0.1)">
       <defs>
        <path id="ArialMT-30" d="M 266 2259 
Q 266 3072 433 3567 
Q 600 4063 929 4331 
Q 1259 4600 1759 4600 
Q 2128 4600 2406 4451 
Q 2684 4303 2865 4023 
Q 3047 3744 3150 3342 
Q 3253 2941 3253 2259 
Q 3253 1453 3087 958 
Q 2922 463 2592 192 
Q 2263 -78 1759 -78 
Q 1097 -78 719 397 
Q 266 969 266 2259 
z
M 844 2259 
Q 844 1131 1108 757 
Q 1372 384 1759 384 
Q 2147 384 2411 759 
Q 2675 1134 2675 2259 
Q 2675 3391 2411 3762 
Q 2147 4134 1753 4134 
Q 1366 4134 1134 3806 
Q 844 3388 844 2259 
z
" transform="scale(0.015625)"/>
       </defs>
       <use xlink:href="#ArialMT-30"/>
      </g>
     </g>
    </g>
    <g id="xtick_5">
     <g id="line2d_9">
      <path d="M 295.68 307.584 
L 295.68 41.472 
" clip-path="url(#p72e2a15f8a)" style="fill: none; stroke: #cccccc; stroke-width: 0.8; stroke-linecap: round"/>
     </g>
     <g id="line2d_10"/>
     <g id="text_5">
      <!-- 2 -->
      <g style="fill: #262626" transform="translate(292.899531 318.241812)scale(0.1 -0.1)">
       <use xlink:href="#ArialMT-32"/>
      </g>
     </g>
    </g>
    <g id="xtick_6">
     <g id="line2d_11">
      <path d="M 355.2 307.584 
L 355.2 41.472 
" clip-path="url(#p72e2a15f8a)" style="fill: none; stroke: #cccccc; stroke-width: 0.8; stroke-linecap: round"/>
     </g>
     <g id="line2d_12"/>
     <g id="text_6">
      <!-- 4 -->
      <g style="fill: #262626" transform="translate(352.419531 318.241812)scale(0.1 -0.1)">
       <use xlink:href="#ArialMT-34"/>
      </g>
     </g>
    </g>
    <g id="xtick_7">
     <g id="line2d_13">
      <path d="M 414.72 307.584 
L 414.72 41.472 
" clip-path="url(#p72e2a15f8a)" style="fill: none; stroke: #cccccc; stroke-width: 0.8; stroke-linecap: round"/>
     </g>
     <g id="line2d_14"/>
     <g id="text_7">
      <!-- 6 -->
      <g style="fill: #262626" transform="translate(411.939531 318.241812)scale(0.1 -0.1)">
       <use xlink:href="#ArialMT-36"/>
      </g>
     </g>
    </g>
   </g>
   <g id="matplotlib.axis_2">
    <g id="ytick_1">
     <g id="line2d_15">
      <path d="M 57.6 285.408 
L 414.72 285.408 
" clip-path="url(#p72e2a15f8a)" style="fill: none; stroke: #cccccc; stroke-width: 0.8; stroke-linecap: round"/>
     </g>
     <g id="line2d_16"/>
     <g id="text_8">
      <!-- −1.0 -->
      <g style="fill: #262626" transform="translate(34.359375 288.986906)scale(0.1 -0.1)">
       <defs>
        <path id="ArialMT-31" d="M 2384 0 
L 1822 0 
L 1822 3584 
Q 1619 3391 1289 3197 
Q 959 3003 697 2906 
L 697 3450 
Q 1169 3672 1522 3987 
Q 1875 4303 2022 4600 
L 2384 4600 
L 2384 0 
z
" transform="scale(0.015625)"/>
        <path id="ArialMT-2e" d="M 581 0 
L 581 641 
L 1222 641 
L 1222 0 
L 581 0 
z
" transform="scale(0.015625)"/>
       </defs>
       <use xlink:href="#ArialMT-2212"/>
       <use xlink:href="#ArialMT-31" x="58.398438"/>
       <use xlink:href="#ArialMT-2e" x="114.013672"/>
       <use xlink:href="#ArialMT-30" x="141.796875"/>
      </g>
     </g>
    </g>
    <g id="ytick_2">
     <g id="line2d_17">
      <path d="M 57.6 229.968 
L 414.72 229.968 
" clip-path="url(#p72e2a15f8a)" style="fill: none; stroke: #cccccc; stroke-width: 0.8; stroke-linecap: round"/>
     </g>
     <g id="line2d_18"/>
     <g id="text_9">
      <!-- −0.5 -->
      <g style="fill: #262626" transform="translate(34.359375 233.546906)scale(0.1 -0.1)">
       <defs>
        <path id="ArialMT-35" d="M 266 1200 
L 856 1250 
Q 922 819 1161 601 
Q 1400 384 1738 384 
Q 2144 384 2425 690 
Q 2706 997 2706 1503 
Q 2706 1984 2436 2262 
Q 2166 2541 1728 2541 
Q 1456 2541 1237 2417 
Q 1019 2294 894 2097 
L 366 2166 
L 809 4519 
L 3088 4519 
L 3088 3981 
L 1259 3981 
L 1013 2750 
Q 1425 3038 1878 3038 
Q 2478 3038 2890 2622 
Q 3303 2206 3303 1553 
Q 3303 931 2941 478 
Q 2500 -78 1738 -78 
Q 1113 -78 717 272 
Q 322 622 266 1200 
z
" transform="scale(0.015625)"/>
       </defs>
       <use xlink:href="#ArialMT-2212"/>
       <use xlink:href="#ArialMT-30" x="58.398438"/>
       <use xlink:href="#ArialMT-2e" x="114.013672"/>
       <use xlink:href="#ArialMT-35" x="141.796875"/>
      </g>
     </g>
    </g>
    <g id="ytick_3">
     <g id="line2d_19">
      <path d="M 57.6 174.528 
L 414.72 174.528 
" clip-path="url(#p72e2a15f8a)" style="fill: none; stroke: #cccccc; stroke-width: 0.8; stroke-linecap: round"/>
     </g>
     <g id="line2d_20"/>
     <g id="text_10">
      <!-- 0.0 -->
      <g style="fill: #262626" transform="translate(40.2 178.106906)scale(0.1 -0.1)">
       <use xlink:href="#ArialMT-30"/>
       <use xlink:href="#ArialMT-2e" x="55.615234"/>
       <use xlink:href="#ArialMT-30" x="83.398438"/>
      </g>
     </g>
    </g>
    <g id="ytick_4">
     <g id="line2d_21">
      <path d="M 57.6 119.088 
L 414.72 119.088 
" clip-path="url(#p72e2a15f8a)" style="fill: none; stroke: #cccccc; stroke-width: 0.8; stroke-linecap: round"/>
     </g>
     <g id="line2d_22"/>
     <g id="text_11">
      <!-- 0.5 -->
      <g style="fill: #262626" transform="translate(40.2 122.666906)scale(0.1 -0.1)">
       <use xlink:href="#ArialMT-30"/>
       <use xlink:href="#ArialMT-2e" x="55.615234"/>
       <use xlink:href="#ArialMT-35" x="83.398438"/>
      </g>
     </g>
    </g>
    <g id="ytick_5">
     <g id="line2d_23">
      <path d="M 57.6 63.648 
L 414.72 63.648 
" clip-path="url(#p72e2a15f8a)" style="fill: none; stroke: #cccccc; stroke-width: 0.8; stroke-linecap: round"/>
     </g>
     <g id="line2d_24"/>
     <g id="text_12">
      <!-- 1.0 -->
      <g style="fill: #262626" transform="translate(40.2 67.226906)scale(0.1 -0.1)">
       <use xlink:href="#ArialMT-31"/>
       <use xlink:href="#ArialMT-2e" x="55.615234"/>
       <use xlink:href="#ArialMT-30" x="83.398438"/>
      </g>
     </g>
    </g>
   </g>
   <g id="line2d_25">
    <path d="M 87.36 68.202476 
L 88.849489 66.762082 
L 90.338979 65.591585 
L 91.828468 64.693918 
L 93.317958 64.071328 
L 94.807447 63.725376 
L 96.296937 63.656927 
L 97.786426 63.866153 
L 99.275916 64.35253 
L 100.765405 65.114839 
L 102.254895 66.151172 
L 103.744384 67.458934 
L 105.233874 69.034848 
L 107.021261 71.274303 
L 108.808649 73.886103 
L 110.596036 76.860831 
L 112.681321 80.775665 
L 114.766607 85.150617 
L 117.14979 90.68633 
L 119.830871 97.554434 
L 122.511952 105.04685 
L 125.490931 114.029905 
L 128.767808 124.607186 
L 132.64048 137.876663 
L 137.406847 155.034499 
L 154.684925 218.100076 
L 158.557598 230.962332 
L 161.834474 241.108683 
L 164.813453 249.635898 
L 167.494535 256.669752 
L 169.877718 262.364416 
L 172.260901 267.496103 
L 174.346186 271.498561 
L 176.431471 275.025106 
L 178.218859 277.655888 
L 180.006246 279.914776 
L 181.793634 281.793627 
L 183.283123 283.0641 
L 184.772613 284.062745 
L 186.262102 284.787062 
L 187.751592 285.235237 
L 189.241081 285.406148 
L 190.730571 285.299366 
L 192.22006 284.915158 
L 193.70955 284.254488 
L 195.199039 283.31901 
L 196.688529 282.111066 
L 198.178018 280.633682 
L 199.965405 278.510416 
L 201.752793 276.012177 
L 203.54018 273.147974 
L 205.625465 269.357715 
L 207.710751 265.102051 
L 210.093934 259.695443 
L 212.477117 253.742963 
L 215.158198 246.441568 
L 218.137177 237.647558 
L 221.414054 227.247849 
L 225.286727 214.144378 
L 229.755195 198.207276 
L 236.904745 171.753515 
L 244.65009 143.322907 
L 249.118559 127.758234 
L 252.693333 116.048182 
L 255.97021 106.050417 
L 258.949189 97.678269 
L 261.63027 90.798934 
L 264.013453 85.252469 
L 266.396637 80.278206 
L 268.481922 76.420267 
L 270.567207 73.043823 
L 272.354595 70.545584 
L 274.141982 68.422318 
L 275.929369 66.681684 
L 277.418859 65.528013 
L 278.908348 64.64733 
L 280.397838 64.041842 
L 281.887327 63.713065 
L 283.376817 63.661823 
L 284.866306 63.888243 
L 286.355796 64.391758 
L 287.845285 65.171108 
L 289.334775 66.224341 
L 290.824264 67.548818 
L 292.313754 69.141224 
L 294.101141 71.400112 
L 295.888529 74.030894 
L 297.973814 77.557439 
L 300.059099 81.559897 
L 302.144384 86.018625 
L 304.527568 91.644842 
L 307.208649 98.607392 
L 309.88973 106.185714 
L 312.868709 115.253359 
L 316.443483 126.909454 
L 320.614054 141.363212 
L 325.976216 160.860891 
L 339.67952 211.179337 
L 343.85009 225.437353 
L 347.424865 236.874132 
L 350.403844 245.725047 
L 353.382823 253.863162 
L 356.063904 260.510519 
L 358.447087 265.835376 
L 360.532372 270.015635 
L 362.617658 273.727258 
L 364.702943 276.952031 
L 366.49033 279.316566 
L 368.277718 281.303219 
L 369.767207 282.664895 
L 371.256697 283.755743 
L 372.746186 284.573032 
L 374.235676 285.114715 
L 375.725165 285.379435 
L 377.214655 285.36653 
L 378.704144 285.076031 
L 380.193634 284.508666 
L 381.683123 283.665857 
L 383.172613 282.549713 
L 384.662102 281.163031 
L 384.96 280.853524 
L 384.96 280.853524 
" clip-path="url(#p72e2a15f8a)" style="fill: none; stroke: #1f77b4; stroke-width: 1.5; stroke-linecap: round"/>
   </g>
   <g id="line2d_26">
    <path d="M 110.733449 68.202476 
L 112.222939 66.762082 
L 113.712428 65.591585 
L 115.201918 64.693918 
L 116.691407 64.071328 
L 118.180897 63.725376 
L 119.670386 63.656927 
L 121.159876 63.866153 
L 122.649365 64.35253 
L 124.138855 65.114839 
L 125.628344 66.151172 
L 127.117834 67.458934 
L 128.607323 69.034848 
L 130.394711 71.274303 
L 132.182098 73.886103 
L 133.969485 76.860831 
L 136.054771 80.775665 
L 138.140056 85.150617 
L 140.523239 90.68633 
L 143.20432 97.554434 
L 145.885401 105.04685 
L 148.86438 114.029905 
L 152.141257 124.607186 
L 156.01393 137.876663 
L 160.780296 155.034499 
L 178.058374 218.100076 
L 181.931047 230.962332 
L 185.207924 241.108683 
L 188.186903 249.635898 
L 190.867984 256.669752 
L 193.251167 262.364416 
L 195.63435 267.496103 
L 197.719636 271.498561 
L 199.804921 275.025106 
L 201.592308 277.655888 
L 203.379696 279.914776 
L 205.167083 281.793627 
L 206.656572 283.0641 
L 208.146062 284.062745 
L 209.635551 284.787062 
L 211.125041 285.235237 
L 212.61453 285.406148 
L 214.10402 285.299366 
L 215.593509 284.915158 
L 217.082999 284.254488 
L 218.572488 283.31901 
L 220.061978 282.111066 
L 221.551467 280.633682 
L 223.338855 278.510416 
L 225.126242 276.012177 
L 226.91363 273.147974 
L 228.998915 269.357715 
L 231.0842 265.102051 
L 233.467383 259.695443 
L 235.850566 253.742963 
L 238.531648 246.441568 
L 241.510627 237.647558 
L 244.787503 227.247849 
L 248.660176 214.144378 
L 253.128645 198.207276 
L 260.278194 171.753515 
L 268.023539 143.322907 
L 272.492008 127.758234 
L 276.066783 116.048182 
L 279.34366 106.050417 
L 282.322639 97.678269 
L 285.00372 90.798934 
L 287.386903 85.252469 
L 289.770086 80.278206 
L 291.855371 76.420267 
L 293.940657 73.043823 
L 295.728044 70.545584 
L 297.515431 68.422318 
L 299.302819 66.681684 
L 300.792308 65.528013 
L 302.281798 64.64733 
L 303.771287 64.041842 
L 305.260777 63.713065 
L 306.750266 63.661823 
L 308.239756 63.888243 
L 309.729245 64.391758 
L 311.218735 65.171108 
L 312.708224 66.224341 
L 314.197714 67.548818 
L 315.687203 69.141224 
L 317.47459 71.400112 
L 319.261978 74.030894 
L 321.347263 77.557439 
L 323.432548 81.559897 
L 325.517834 86.018625 
L 327.901017 91.644842 
L 330.582098 98.607392 
L 333.263179 106.185714 
L 336.242158 115.253359 
L 339.816933 126.909454 
L 343.987503 141.363212 
L 349.349666 160.860891 
L 363.052969 211.179337 
L 367.223539 225.437353 
L 370.798314 236.874132 
L 373.777293 245.725047 
L 376.756272 253.863162 
L 379.437353 260.510519 
L 381.820536 265.835376 
L 383.905822 270.015635 
L 385.991107 273.727258 
L 388.076392 276.952031 
L 389.86378 279.316566 
L 391.651167 281.303219 
L 393.140657 282.664895 
L 394.630146 283.755743 
L 396.119636 284.573032 
L 397.609125 285.114715 
L 399.098615 285.379435 
L 400.588104 285.36653 
L 402.077593 285.076031 
L 403.567083 284.508666 
L 405.056572 283.665857 
L 406.546062 282.549713 
L 408.035551 281.163031 
L 408.333449 280.853524 
L 408.333449 280.853524 
" clip-path="url(#p72e2a15f8a)" style="fill: none; stroke: #ff7f0e; stroke-width: 1.5; stroke-linecap: round"/>
   </g>
   <g id="patch_3">
    <path d="M 57.6 307.584 
L 57.6 41.472 
" style="fill: none; stroke: #cccccc; stroke-linejoin: miter; stroke-linecap: square"/>
   </g>
   <g id="patch_4">
    <path d="M 414.72 307.584 
L 414.72 41.472 
" style="fill: none; stroke: #cccccc; stroke-linejoin: miter; stroke-linecap: square"/>
   </g>
   <g id="patch_5">
    <path d="M 57.6 307.584 
L 414.72 307.584 
" style="fill: none; stroke: #cccccc; stroke-linejoin: miter; stroke-linecap: square"/>
   </g>
   <g id="patch_6">
    <path d="M 57.6 41.472 
L 414.72 41.472 
" style="fill: none; stroke: #cccccc; stroke-linejoin: miter; stroke-linecap: square"/>
   </g>
  </g>
 </g>
 <defs>
  <clipPath id="p72e2a15f8a">
   <rect x="57.6" y="41.472" width="357.12" height="266.112"/>
  </clipPath>
 </defs>
</svg>
